<mxfile host="www.draw.io" modified="2019-11-30T04:24:32.186Z" agent="Mozilla/5.0 (Windows NT 10.0; Win64; x64) AppleWebKit/537.36 (KHTML, like Gecko) Chrome/78.0.3904.108 Safari/537.36" etag="HY333j0Kt_zlZrQafTJJ" version="12.3.3" type="github" pages="3">
  <diagram id="lHAX9x2BuuFhZPploAq1" name="第1頁">
    <mxGraphModel dx="768" dy="464" grid="1" gridSize="10" guides="1" tooltips="1" connect="1" arrows="1" fold="1" page="1" pageScale="1" pageWidth="1169" pageHeight="827" math="0" shadow="0">
      <root>
        <mxCell id="0"/>
        <mxCell id="1" parent="0"/>
        <mxCell id="RNC7cV8lwbOpFSMDOjC8-1" parent="0"/>
        <mxCell id="RNC7cV8lwbOpFSMDOjC8-2" value="&lt;b style=&quot;font-size: 14px;&quot;&gt;&lt;font style=&quot;font-size: 14px;&quot;&gt;R&lt;/font&gt;&lt;/b&gt;" style="ellipse;whiteSpace=wrap;html=1;aspect=fixed;fontSize=14;" vertex="1" parent="RNC7cV8lwbOpFSMDOjC8-1">
          <mxGeometry x="682" y="28" width="60" height="60" as="geometry"/>
        </mxCell>
        <mxCell id="RNC7cV8lwbOpFSMDOjC8-3" value="&lt;font style=&quot;font-size: 14px;&quot;&gt;FW&lt;/font&gt;" style="rounded=0;whiteSpace=wrap;html=1;fontSize=14;" vertex="1" parent="RNC7cV8lwbOpFSMDOjC8-1">
          <mxGeometry x="652" y="113.5" width="120" height="20" as="geometry"/>
        </mxCell>
        <mxCell id="RNC7cV8lwbOpFSMDOjC8-4" value="" style="endArrow=none;html=1;entryX=0.5;entryY=1;entryDx=0;entryDy=0;exitX=0.5;exitY=0;exitDx=0;exitDy=0;fontSize=14;" edge="1" parent="RNC7cV8lwbOpFSMDOjC8-1" source="RNC7cV8lwbOpFSMDOjC8-3" target="RNC7cV8lwbOpFSMDOjC8-2">
          <mxGeometry width="50" height="50" relative="1" as="geometry">
            <mxPoint x="672" y="228" as="sourcePoint"/>
            <mxPoint x="722" y="178" as="targetPoint"/>
          </mxGeometry>
        </mxCell>
        <mxCell id="RNC7cV8lwbOpFSMDOjC8-5" value="&lt;font style=&quot;font-size: 14px;&quot;&gt;SW&lt;/font&gt;" style="rounded=0;whiteSpace=wrap;html=1;fontSize=14;" vertex="1" parent="RNC7cV8lwbOpFSMDOjC8-1">
          <mxGeometry x="672" y="152" width="80" height="20" as="geometry"/>
        </mxCell>
        <mxCell id="RNC7cV8lwbOpFSMDOjC8-6" value="" style="ellipse;shape=cloud;whiteSpace=wrap;html=1;fontSize=14;" vertex="1" parent="RNC7cV8lwbOpFSMDOjC8-1">
          <mxGeometry x="40" y="19" width="160" height="80" as="geometry"/>
        </mxCell>
        <mxCell id="RNC7cV8lwbOpFSMDOjC8-7" style="edgeStyle=orthogonalEdgeStyle;rounded=1;orthogonalLoop=1;jettySize=auto;html=1;fontSize=14;entryX=0.875;entryY=0.5;entryDx=0;entryDy=0;entryPerimeter=0;endArrow=none;endFill=0;elbow=vertical;exitX=0;exitY=0.5;exitDx=0;exitDy=0;" edge="1" parent="RNC7cV8lwbOpFSMDOjC8-1" source="RNC7cV8lwbOpFSMDOjC8-2" target="RNC7cV8lwbOpFSMDOjC8-6">
          <mxGeometry relative="1" as="geometry">
            <mxPoint x="492" y="52" as="sourcePoint"/>
          </mxGeometry>
        </mxCell>
        <mxCell id="RNC7cV8lwbOpFSMDOjC8-8" value="GW" style="rounded=0;whiteSpace=wrap;html=1;fontSize=14;" vertex="1" parent="RNC7cV8lwbOpFSMDOjC8-1">
          <mxGeometry x="970" y="96" width="60" height="30" as="geometry"/>
        </mxCell>
        <mxCell id="RNC7cV8lwbOpFSMDOjC8-9" value="" style="endArrow=none;html=1;edgeStyle=elbowEdgeStyle;elbow=vertical;exitX=0.5;exitY=0;exitDx=0;exitDy=0;entryX=1;entryY=1;entryDx=0;entryDy=0;fontSize=14;" edge="1" parent="RNC7cV8lwbOpFSMDOjC8-1" source="RNC7cV8lwbOpFSMDOjC8-8" target="RNC7cV8lwbOpFSMDOjC8-2">
          <mxGeometry width="50" height="50" relative="1" as="geometry">
            <mxPoint x="1000" y="59" as="sourcePoint"/>
            <mxPoint x="640" y="79" as="targetPoint"/>
            <Array as="points">
              <mxPoint x="812" y="76"/>
            </Array>
          </mxGeometry>
        </mxCell>
        <mxCell id="RNC7cV8lwbOpFSMDOjC8-10" style="edgeStyle=orthogonalEdgeStyle;rounded=1;orthogonalLoop=1;jettySize=auto;html=1;entryX=0;entryY=0.5;entryDx=0;entryDy=0;endArrow=none;endFill=0;strokeWidth=1;fontSize=14;" edge="1" parent="RNC7cV8lwbOpFSMDOjC8-1" source="RNC7cV8lwbOpFSMDOjC8-11" target="RNC7cV8lwbOpFSMDOjC8-8">
          <mxGeometry relative="1" as="geometry"/>
        </mxCell>
        <mxCell id="RNC7cV8lwbOpFSMDOjC8-11" value="&lt;font style=&quot;font-size: 14px;&quot;&gt;SW&lt;/font&gt;" style="rounded=0;whiteSpace=wrap;html=1;fontSize=14;" vertex="1" parent="RNC7cV8lwbOpFSMDOjC8-1">
          <mxGeometry x="804" y="101" width="80" height="20" as="geometry"/>
        </mxCell>
        <mxCell id="RNC7cV8lwbOpFSMDOjC8-12" style="edgeStyle=orthogonalEdgeStyle;rounded=1;orthogonalLoop=1;jettySize=auto;html=1;exitX=0.5;exitY=0;exitDx=0;exitDy=0;entryX=0.5;entryY=1;entryDx=0;entryDy=0;endArrow=none;endFill=0;strokeWidth=1;fontSize=14;" edge="1" parent="RNC7cV8lwbOpFSMDOjC8-1" source="RNC7cV8lwbOpFSMDOjC8-123" target="RNC7cV8lwbOpFSMDOjC8-8">
          <mxGeometry relative="1" as="geometry">
            <Array as="points">
              <mxPoint x="932" y="196"/>
              <mxPoint x="1000" y="196"/>
            </Array>
          </mxGeometry>
        </mxCell>
        <mxCell id="RNC7cV8lwbOpFSMDOjC8-13" value="" style="edgeStyle=orthogonalEdgeStyle;rounded=1;orthogonalLoop=1;jettySize=auto;html=1;entryX=0.5;entryY=1;entryDx=0;entryDy=0;endArrow=none;endFill=0;strokeWidth=1;fontSize=14;spacingTop=0;" edge="1" parent="RNC7cV8lwbOpFSMDOjC8-1" source="RNC7cV8lwbOpFSMDOjC8-14" target="RNC7cV8lwbOpFSMDOjC8-123">
          <mxGeometry relative="1" as="geometry">
            <mxPoint x="816.1428571428573" y="228.14285714285722" as="targetPoint"/>
          </mxGeometry>
        </mxCell>
        <mxCell id="RNC7cV8lwbOpFSMDOjC8-14" value="&lt;font style=&quot;font-size: 14px;&quot;&gt;SW&lt;/font&gt;" style="rounded=0;whiteSpace=wrap;html=1;fontSize=14;" vertex="1" parent="RNC7cV8lwbOpFSMDOjC8-1">
          <mxGeometry x="788" y="249" width="56" height="20" as="geometry"/>
        </mxCell>
        <mxCell id="RNC7cV8lwbOpFSMDOjC8-15" style="edgeStyle=orthogonalEdgeStyle;rounded=1;orthogonalLoop=1;jettySize=auto;html=1;exitX=1;exitY=0.5;exitDx=0;exitDy=0;strokeWidth=1;endArrow=none;endFill=0;fontSize=14;" edge="1" parent="RNC7cV8lwbOpFSMDOjC8-1" source="RNC7cV8lwbOpFSMDOjC8-5" target="RNC7cV8lwbOpFSMDOjC8-11">
          <mxGeometry relative="1" as="geometry"/>
        </mxCell>
        <mxCell id="RNC7cV8lwbOpFSMDOjC8-16" value="" style="endArrow=none;html=1;entryX=0.5;entryY=1;entryDx=0;entryDy=0;exitX=0.5;exitY=0;exitDx=0;exitDy=0;fontSize=14;edgeStyle=elbowEdgeStyle;elbow=vertical;" edge="1" parent="RNC7cV8lwbOpFSMDOjC8-1" source="RNC7cV8lwbOpFSMDOjC8-5" target="RNC7cV8lwbOpFSMDOjC8-3">
          <mxGeometry width="50" height="50" relative="1" as="geometry">
            <mxPoint x="320" y="279" as="sourcePoint"/>
            <mxPoint x="370" y="229" as="targetPoint"/>
          </mxGeometry>
        </mxCell>
        <mxCell id="RNC7cV8lwbOpFSMDOjC8-17" style="edgeStyle=elbowEdgeStyle;rounded=1;orthogonalLoop=1;jettySize=auto;html=1;endArrow=none;endFill=0;fontSize=14;entryX=0.75;entryY=1;entryDx=0;entryDy=0;elbow=vertical;exitX=0.22;exitY=0.5;exitDx=0;exitDy=0;exitPerimeter=0;" edge="1" parent="RNC7cV8lwbOpFSMDOjC8-1" source="RNC7cV8lwbOpFSMDOjC8-18" target="RNC7cV8lwbOpFSMDOjC8-11">
          <mxGeometry relative="1" as="geometry">
            <mxPoint x="929" y="138.9999999999999" as="sourcePoint"/>
            <mxPoint x="1059" y="119" as="targetPoint"/>
          </mxGeometry>
        </mxCell>
        <mxCell id="RNC7cV8lwbOpFSMDOjC8-18" value="&lt;font style=&quot;font-size: 14px;&quot;&gt;AP&lt;/font&gt;" style="strokeWidth=2;html=1;shape=mxgraph.flowchart.extract_or_measurement;whiteSpace=wrap;fontSize=14;" vertex="1" parent="RNC7cV8lwbOpFSMDOjC8-1">
          <mxGeometry x="916" y="132" width="50" height="40" as="geometry"/>
        </mxCell>
        <mxCell id="RNC7cV8lwbOpFSMDOjC8-19" value="" style="edgeStyle=elbowEdgeStyle;rounded=1;orthogonalLoop=1;jettySize=auto;html=1;entryX=0.5;entryY=1;entryDx=0;entryDy=0;endArrow=none;endFill=0;strokeWidth=1;fontSize=14;" edge="1" parent="RNC7cV8lwbOpFSMDOjC8-1" source="RNC7cV8lwbOpFSMDOjC8-20" target="RNC7cV8lwbOpFSMDOjC8-14">
          <mxGeometry relative="1" as="geometry"/>
        </mxCell>
        <mxCell id="RNC7cV8lwbOpFSMDOjC8-20" value="&lt;b style=&quot;font-size: 14px;&quot;&gt;&lt;font style=&quot;font-size: 14px;&quot;&gt;PC&lt;/font&gt;&lt;/b&gt;" style="whiteSpace=wrap;html=1;aspect=fixed;rounded=1;fontSize=14;" vertex="1" parent="RNC7cV8lwbOpFSMDOjC8-1">
          <mxGeometry x="788" y="304" width="60" height="60" as="geometry"/>
        </mxCell>
        <mxCell id="RNC7cV8lwbOpFSMDOjC8-21" value="..." style="text;html=1;resizable=0;points=[];autosize=1;align=left;verticalAlign=top;spacingTop=-4;fontSize=14;fontStyle=1" vertex="1" parent="RNC7cV8lwbOpFSMDOjC8-1">
          <mxGeometry x="858" y="324" width="30" height="20" as="geometry"/>
        </mxCell>
        <mxCell id="RNC7cV8lwbOpFSMDOjC8-22" value="&lt;font style=&quot;font-size: 14px;&quot;&gt;SW&lt;/font&gt;" style="rounded=0;whiteSpace=wrap;html=1;fontSize=14;" vertex="1" parent="RNC7cV8lwbOpFSMDOjC8-1">
          <mxGeometry x="553" y="229" width="60" height="20" as="geometry"/>
        </mxCell>
        <mxCell id="RNC7cV8lwbOpFSMDOjC8-23" value="" style="edgeStyle=orthogonalEdgeStyle;rounded=1;orthogonalLoop=1;jettySize=auto;html=1;entryX=0.5;entryY=1;entryDx=0;entryDy=0;endArrow=none;endFill=0;strokeWidth=1;fontSize=14;" edge="1" parent="RNC7cV8lwbOpFSMDOjC8-1" source="RNC7cV8lwbOpFSMDOjC8-24" target="RNC7cV8lwbOpFSMDOjC8-22">
          <mxGeometry relative="1" as="geometry"/>
        </mxCell>
        <mxCell id="RNC7cV8lwbOpFSMDOjC8-24" value="&lt;b style=&quot;font-size: 14px;&quot;&gt;&lt;font style=&quot;font-size: 14px;&quot;&gt;PC&lt;/font&gt;&lt;/b&gt;" style="whiteSpace=wrap;html=1;aspect=fixed;rounded=1;fontSize=14;" vertex="1" parent="RNC7cV8lwbOpFSMDOjC8-1">
          <mxGeometry x="508" y="288" width="60" height="60" as="geometry"/>
        </mxCell>
        <mxCell id="RNC7cV8lwbOpFSMDOjC8-25" value="..." style="text;html=1;resizable=0;points=[];autosize=1;align=left;verticalAlign=top;spacingTop=-4;fontSize=14;fontStyle=1" vertex="1" parent="RNC7cV8lwbOpFSMDOjC8-1">
          <mxGeometry x="578" y="308" width="30" height="20" as="geometry"/>
        </mxCell>
        <mxCell id="RNC7cV8lwbOpFSMDOjC8-26" value="" style="rounded=0;whiteSpace=wrap;html=1;strokeColor=#000000;strokeWidth=1;fillColor=none;fontSize=14;" vertex="1" parent="RNC7cV8lwbOpFSMDOjC8-1">
          <mxGeometry x="643" y="228" width="20" height="20" as="geometry"/>
        </mxCell>
        <mxCell id="RNC7cV8lwbOpFSMDOjC8-27" style="edgeStyle=elbowEdgeStyle;rounded=1;orthogonalLoop=1;jettySize=auto;elbow=vertical;html=1;endArrow=none;endFill=0;fontSize=14;exitX=1;exitY=0.5;exitDx=0;exitDy=0;entryX=0;entryY=0.25;entryDx=0;entryDy=0;" edge="1" parent="RNC7cV8lwbOpFSMDOjC8-1" source="RNC7cV8lwbOpFSMDOjC8-22" target="RNC7cV8lwbOpFSMDOjC8-26">
          <mxGeometry relative="1" as="geometry">
            <mxPoint x="572" y="244" as="sourcePoint"/>
            <mxPoint x="620" y="238" as="targetPoint"/>
          </mxGeometry>
        </mxCell>
        <mxCell id="RNC7cV8lwbOpFSMDOjC8-28" style="edgeStyle=elbowEdgeStyle;rounded=1;orthogonalLoop=1;jettySize=auto;html=1;exitX=1;exitY=0.5;exitDx=0;exitDy=0;entryX=0;entryY=0.25;entryDx=0;entryDy=0;endArrow=none;endFill=0;fontSize=14;" edge="1" parent="RNC7cV8lwbOpFSMDOjC8-1" source="RNC7cV8lwbOpFSMDOjC8-29" target="RNC7cV8lwbOpFSMDOjC8-123">
          <mxGeometry relative="1" as="geometry">
            <Array as="points">
              <mxPoint x="748" y="218"/>
              <mxPoint x="868" y="252"/>
              <mxPoint x="948" y="300"/>
              <mxPoint x="928" y="368"/>
              <mxPoint x="952" y="304"/>
              <mxPoint x="928" y="376"/>
              <mxPoint x="956" y="324"/>
              <mxPoint x="940" y="388"/>
              <mxPoint x="956" y="288"/>
            </Array>
          </mxGeometry>
        </mxCell>
        <mxCell id="RNC7cV8lwbOpFSMDOjC8-29" value="" style="rounded=0;whiteSpace=wrap;html=1;strokeColor=#000000;strokeWidth=1;fillColor=#FFFF99;fontSize=14;" vertex="1" parent="RNC7cV8lwbOpFSMDOjC8-1">
          <mxGeometry x="680" y="232" width="52" height="12" as="geometry"/>
        </mxCell>
        <mxCell id="RNC7cV8lwbOpFSMDOjC8-30" style="rounded=1;orthogonalLoop=1;jettySize=auto;html=1;endArrow=none;endFill=0;fontSize=14;elbow=vertical;exitX=1;exitY=0.5;exitDx=0;exitDy=0;entryX=0;entryY=0.5;entryDx=0;entryDy=0;" edge="1" parent="RNC7cV8lwbOpFSMDOjC8-1" source="RNC7cV8lwbOpFSMDOjC8-26" target="RNC7cV8lwbOpFSMDOjC8-29">
          <mxGeometry relative="1" as="geometry">
            <mxPoint x="816" y="260" as="sourcePoint"/>
            <mxPoint x="872" y="256" as="targetPoint"/>
          </mxGeometry>
        </mxCell>
        <mxCell id="RNC7cV8lwbOpFSMDOjC8-31" style="edgeStyle=elbowEdgeStyle;rounded=1;orthogonalLoop=1;jettySize=auto;html=1;exitX=0.25;exitY=0;exitDx=0;exitDy=0;endArrow=none;endFill=0;fontSize=14;elbow=vertical;entryX=0.75;entryY=1;entryDx=0;entryDy=0;" edge="1" parent="RNC7cV8lwbOpFSMDOjC8-1" source="RNC7cV8lwbOpFSMDOjC8-123" target="RNC7cV8lwbOpFSMDOjC8-5">
          <mxGeometry relative="1" as="geometry">
            <mxPoint x="690" y="209" as="targetPoint"/>
            <Array as="points"/>
          </mxGeometry>
        </mxCell>
        <mxCell id="RNC7cV8lwbOpFSMDOjC8-32" value="&lt;font style=&quot;font-size: 14px;&quot;&gt;AP&lt;/font&gt;" style="strokeWidth=2;html=1;shape=mxgraph.flowchart.extract_or_measurement;whiteSpace=wrap;fontSize=14;" vertex="1" parent="RNC7cV8lwbOpFSMDOjC8-1">
          <mxGeometry x="848" y="416" width="50" height="40" as="geometry"/>
        </mxCell>
        <mxCell id="RNC7cV8lwbOpFSMDOjC8-33" value="&lt;font style=&quot;font-size: 14px;&quot;&gt;SW&lt;/font&gt;" style="rounded=0;whiteSpace=wrap;html=1;fontSize=14;" vertex="1" parent="RNC7cV8lwbOpFSMDOjC8-1">
          <mxGeometry x="720" y="433" width="80" height="20" as="geometry"/>
        </mxCell>
        <mxCell id="RNC7cV8lwbOpFSMDOjC8-34" value="" style="edgeStyle=orthogonalEdgeStyle;rounded=1;orthogonalLoop=1;jettySize=auto;html=1;entryX=0.5;entryY=1;entryDx=0;entryDy=0;endArrow=none;endFill=0;strokeWidth=1;fontSize=14;" edge="1" parent="RNC7cV8lwbOpFSMDOjC8-1" source="RNC7cV8lwbOpFSMDOjC8-36" target="RNC7cV8lwbOpFSMDOjC8-33">
          <mxGeometry relative="1" as="geometry"/>
        </mxCell>
        <mxCell id="RNC7cV8lwbOpFSMDOjC8-35" style="edgeStyle=elbowEdgeStyle;rounded=1;orthogonalLoop=1;jettySize=auto;elbow=vertical;html=1;exitX=1;exitY=0.25;exitDx=0;exitDy=0;endArrow=none;endFill=0;fontSize=14;" edge="1" parent="RNC7cV8lwbOpFSMDOjC8-1" source="RNC7cV8lwbOpFSMDOjC8-36" target="RNC7cV8lwbOpFSMDOjC8-139">
          <mxGeometry relative="1" as="geometry"/>
        </mxCell>
        <mxCell id="RNC7cV8lwbOpFSMDOjC8-36" value="&lt;b style=&quot;font-size: 14px;&quot;&gt;&lt;font style=&quot;font-size: 14px;&quot;&gt;PC&lt;/font&gt;&lt;/b&gt;" style="whiteSpace=wrap;html=1;aspect=fixed;rounded=1;fontSize=14;" vertex="1" parent="RNC7cV8lwbOpFSMDOjC8-1">
          <mxGeometry x="730" y="473" width="60" height="60" as="geometry"/>
        </mxCell>
        <mxCell id="RNC7cV8lwbOpFSMDOjC8-37" style="rounded=1;orthogonalLoop=1;jettySize=auto;html=1;exitX=0.5;exitY=0;exitDx=0;exitDy=0;endArrow=none;endFill=0;fontSize=14;edgeStyle=orthogonalEdgeStyle;entryX=1;entryY=0.5;entryDx=0;entryDy=0;" edge="1" parent="RNC7cV8lwbOpFSMDOjC8-1" source="RNC7cV8lwbOpFSMDOjC8-38" target="RNC7cV8lwbOpFSMDOjC8-33">
          <mxGeometry relative="1" as="geometry">
            <mxPoint x="805" y="542" as="targetPoint"/>
          </mxGeometry>
        </mxCell>
        <mxCell id="RNC7cV8lwbOpFSMDOjC8-38" value="&lt;font style=&quot;font-size: 14px;&quot;&gt;SW&lt;/font&gt;" style="rounded=0;whiteSpace=wrap;html=1;fontSize=14;" vertex="1" parent="RNC7cV8lwbOpFSMDOjC8-1">
          <mxGeometry x="804" y="528" width="48" height="20" as="geometry"/>
        </mxCell>
        <mxCell id="RNC7cV8lwbOpFSMDOjC8-39" style="edgeStyle=orthogonalEdgeStyle;rounded=1;orthogonalLoop=1;jettySize=auto;html=1;endArrow=none;endFill=0;fontSize=14;" edge="1" parent="RNC7cV8lwbOpFSMDOjC8-1" source="RNC7cV8lwbOpFSMDOjC8-40" target="RNC7cV8lwbOpFSMDOjC8-38">
          <mxGeometry relative="1" as="geometry"/>
        </mxCell>
        <mxCell id="RNC7cV8lwbOpFSMDOjC8-40" value="&lt;font style=&quot;font-size: 14px;&quot;&gt;SW&lt;/font&gt;" style="rounded=0;whiteSpace=wrap;html=1;fontSize=14;" vertex="1" parent="RNC7cV8lwbOpFSMDOjC8-1">
          <mxGeometry x="908" y="579" width="44" height="20" as="geometry"/>
        </mxCell>
        <mxCell id="RNC7cV8lwbOpFSMDOjC8-41" style="edgeStyle=orthogonalEdgeStyle;rounded=1;orthogonalLoop=1;jettySize=auto;html=1;entryX=0.5;entryY=1;entryDx=0;entryDy=0;endArrow=none;endFill=0;fontSize=14;" edge="1" parent="RNC7cV8lwbOpFSMDOjC8-1" source="RNC7cV8lwbOpFSMDOjC8-42" target="RNC7cV8lwbOpFSMDOjC8-40">
          <mxGeometry relative="1" as="geometry"/>
        </mxCell>
        <mxCell id="RNC7cV8lwbOpFSMDOjC8-42" value="&lt;font style=&quot;font-size: 14px;&quot;&gt;SW&lt;/font&gt;" style="rounded=0;whiteSpace=wrap;html=1;fontSize=14;" vertex="1" parent="RNC7cV8lwbOpFSMDOjC8-1">
          <mxGeometry x="908" y="619" width="44" height="20" as="geometry"/>
        </mxCell>
        <mxCell id="RNC7cV8lwbOpFSMDOjC8-43" style="edgeStyle=elbowEdgeStyle;rounded=1;orthogonalLoop=1;jettySize=auto;html=1;entryX=0.5;entryY=1;entryDx=0;entryDy=0;endArrow=none;endFill=0;fontSize=14;exitX=0.5;exitY=0;exitDx=0;exitDy=0;exitPerimeter=0;" edge="1" parent="RNC7cV8lwbOpFSMDOjC8-1" source="RNC7cV8lwbOpFSMDOjC8-44" target="RNC7cV8lwbOpFSMDOjC8-42">
          <mxGeometry relative="1" as="geometry"/>
        </mxCell>
        <mxCell id="RNC7cV8lwbOpFSMDOjC8-44" value="&lt;font style=&quot;font-size: 14px;&quot;&gt;AP&lt;/font&gt;" style="strokeWidth=2;html=1;shape=mxgraph.flowchart.extract_or_measurement;whiteSpace=wrap;fontSize=14;" vertex="1" parent="RNC7cV8lwbOpFSMDOjC8-1">
          <mxGeometry x="902" y="649" width="50" height="40" as="geometry"/>
        </mxCell>
        <mxCell id="RNC7cV8lwbOpFSMDOjC8-45" style="edgeStyle=orthogonalEdgeStyle;rounded=1;orthogonalLoop=1;jettySize=auto;html=1;entryX=1;entryY=0.5;entryDx=0;entryDy=0;endArrow=none;endFill=0;fontSize=14;exitX=1;exitY=0.5;exitDx=0;exitDy=0;" edge="1" parent="RNC7cV8lwbOpFSMDOjC8-1" source="RNC7cV8lwbOpFSMDOjC8-46" target="RNC7cV8lwbOpFSMDOjC8-2">
          <mxGeometry relative="1" as="geometry">
            <Array as="points">
              <mxPoint x="1132" y="785"/>
              <mxPoint x="1132" y="59"/>
            </Array>
            <mxPoint x="1008" y="785" as="sourcePoint"/>
          </mxGeometry>
        </mxCell>
        <mxCell id="RNC7cV8lwbOpFSMDOjC8-46" value="GW" style="rounded=0;whiteSpace=wrap;html=1;fontSize=14;" vertex="1" parent="RNC7cV8lwbOpFSMDOjC8-1">
          <mxGeometry x="920" y="770" width="60" height="30" as="geometry"/>
        </mxCell>
        <mxCell id="RNC7cV8lwbOpFSMDOjC8-47" style="edgeStyle=elbowEdgeStyle;rounded=1;orthogonalLoop=1;jettySize=auto;html=1;entryX=0.5;entryY=0;entryDx=0;entryDy=0;endArrow=none;endFill=0;fontSize=14;exitX=0.5;exitY=0;exitDx=0;exitDy=0;exitPerimeter=0;elbow=vertical;" edge="1" parent="RNC7cV8lwbOpFSMDOjC8-1" source="RNC7cV8lwbOpFSMDOjC8-48" target="RNC7cV8lwbOpFSMDOjC8-46">
          <mxGeometry relative="1" as="geometry"/>
        </mxCell>
        <mxCell id="RNC7cV8lwbOpFSMDOjC8-48" value="&lt;font style=&quot;font-size: 14px;&quot;&gt;AP&lt;/font&gt;" style="strokeWidth=2;html=1;shape=mxgraph.flowchart.extract_or_measurement;whiteSpace=wrap;fontSize=14;" vertex="1" parent="RNC7cV8lwbOpFSMDOjC8-1">
          <mxGeometry x="860" y="760" width="50" height="40" as="geometry"/>
        </mxCell>
        <mxCell id="RNC7cV8lwbOpFSMDOjC8-49" value="無線橋接" style="edgeStyle=orthogonalEdgeStyle;rounded=1;orthogonalLoop=1;jettySize=auto;html=1;entryX=0.78;entryY=0.5;entryDx=0;entryDy=0;entryPerimeter=0;endArrow=none;endFill=0;fontSize=14;dashed=1;" edge="1" parent="RNC7cV8lwbOpFSMDOjC8-1" source="RNC7cV8lwbOpFSMDOjC8-50" target="RNC7cV8lwbOpFSMDOjC8-32">
          <mxGeometry relative="1" as="geometry"/>
        </mxCell>
        <mxCell id="RNC7cV8lwbOpFSMDOjC8-50" value="&lt;font style=&quot;font-size: 14px;&quot;&gt;AP&lt;/font&gt;" style="strokeWidth=2;html=1;shape=mxgraph.flowchart.extract_or_measurement;whiteSpace=wrap;fontSize=14;" vertex="1" parent="RNC7cV8lwbOpFSMDOjC8-1">
          <mxGeometry x="1042" y="416" width="50" height="40" as="geometry"/>
        </mxCell>
        <mxCell id="RNC7cV8lwbOpFSMDOjC8-51" style="edgeStyle=orthogonalEdgeStyle;rounded=1;orthogonalLoop=1;jettySize=auto;html=1;entryX=0.5;entryY=1;entryDx=0;entryDy=0;entryPerimeter=0;endArrow=none;endFill=0;fontSize=14;" edge="1" parent="RNC7cV8lwbOpFSMDOjC8-1" source="RNC7cV8lwbOpFSMDOjC8-52" target="RNC7cV8lwbOpFSMDOjC8-50">
          <mxGeometry relative="1" as="geometry"/>
        </mxCell>
        <mxCell id="RNC7cV8lwbOpFSMDOjC8-52" value="&lt;font style=&quot;font-size: 14px;&quot;&gt;SW&lt;/font&gt;" style="rounded=0;whiteSpace=wrap;html=1;fontSize=14;" vertex="1" parent="RNC7cV8lwbOpFSMDOjC8-1">
          <mxGeometry x="1027" y="484" width="80" height="20" as="geometry"/>
        </mxCell>
        <mxCell id="RNC7cV8lwbOpFSMDOjC8-53" style="edgeStyle=orthogonalEdgeStyle;rounded=1;orthogonalLoop=1;jettySize=auto;html=1;entryX=0.5;entryY=1;entryDx=0;entryDy=0;endArrow=none;endFill=0;fontSize=14;" edge="1" parent="RNC7cV8lwbOpFSMDOjC8-1" source="RNC7cV8lwbOpFSMDOjC8-54" target="RNC7cV8lwbOpFSMDOjC8-52">
          <mxGeometry relative="1" as="geometry"/>
        </mxCell>
        <mxCell id="RNC7cV8lwbOpFSMDOjC8-54" value="&lt;b style=&quot;font-size: 14px;&quot;&gt;&lt;font style=&quot;font-size: 14px;&quot;&gt;PC&lt;/font&gt;&lt;/b&gt;" style="whiteSpace=wrap;html=1;aspect=fixed;rounded=1;fontSize=14;" vertex="1" parent="RNC7cV8lwbOpFSMDOjC8-1">
          <mxGeometry x="1037" y="544" width="60" height="60" as="geometry"/>
        </mxCell>
        <mxCell id="RNC7cV8lwbOpFSMDOjC8-55" style="edgeStyle=orthogonalEdgeStyle;rounded=1;orthogonalLoop=1;jettySize=auto;html=1;entryX=0;entryY=0.5;entryDx=0;entryDy=0;endArrow=none;endFill=0;fontSize=14;exitX=0;exitY=0.75;exitDx=0;exitDy=0;" edge="1" parent="RNC7cV8lwbOpFSMDOjC8-1" source="RNC7cV8lwbOpFSMDOjC8-102" target="RNC7cV8lwbOpFSMDOjC8-5">
          <mxGeometry relative="1" as="geometry">
            <mxPoint x="610" y="740" as="sourcePoint"/>
            <Array as="points">
              <mxPoint x="496" y="650"/>
              <mxPoint x="469" y="650"/>
              <mxPoint x="469" y="160"/>
              <mxPoint x="672" y="160"/>
            </Array>
          </mxGeometry>
        </mxCell>
        <mxCell id="RNC7cV8lwbOpFSMDOjC8-56" value="&lt;font style=&quot;font-size: 14px;&quot;&gt;SW&lt;/font&gt;" style="rounded=0;whiteSpace=wrap;html=1;fontSize=14;" vertex="1" parent="RNC7cV8lwbOpFSMDOjC8-1">
          <mxGeometry x="354" y="274" width="80" height="20" as="geometry"/>
        </mxCell>
        <mxCell id="RNC7cV8lwbOpFSMDOjC8-57" value="&lt;b style=&quot;font-size: 14px;&quot;&gt;&lt;font style=&quot;font-size: 14px;&quot;&gt;PC&lt;/font&gt;&lt;/b&gt;" style="whiteSpace=wrap;html=1;aspect=fixed;rounded=1;fontSize=14;" vertex="1" parent="RNC7cV8lwbOpFSMDOjC8-1">
          <mxGeometry x="272" y="309" width="60" height="60" as="geometry"/>
        </mxCell>
        <mxCell id="RNC7cV8lwbOpFSMDOjC8-58" style="edgeStyle=orthogonalEdgeStyle;rounded=1;orthogonalLoop=1;jettySize=auto;html=1;exitX=1;exitY=0.5;exitDx=0;exitDy=0;endArrow=none;endFill=0;fontSize=14;entryX=0.75;entryY=1;entryDx=0;entryDy=0;" edge="1" parent="RNC7cV8lwbOpFSMDOjC8-1" source="RNC7cV8lwbOpFSMDOjC8-60" target="RNC7cV8lwbOpFSMDOjC8-56">
          <mxGeometry relative="1" as="geometry">
            <mxPoint x="410" y="294" as="targetPoint"/>
          </mxGeometry>
        </mxCell>
        <mxCell id="RNC7cV8lwbOpFSMDOjC8-59" style="edgeStyle=elbowEdgeStyle;rounded=1;orthogonalLoop=1;jettySize=auto;html=1;endArrow=none;endFill=0;fontSize=14;exitX=1;exitY=0.5;exitDx=0;exitDy=0;" edge="1" parent="RNC7cV8lwbOpFSMDOjC8-1" source="RNC7cV8lwbOpFSMDOjC8-57" target="RNC7cV8lwbOpFSMDOjC8-60">
          <mxGeometry relative="1" as="geometry">
            <mxPoint x="334.11764705882365" y="301.7941176470589" as="sourcePoint"/>
          </mxGeometry>
        </mxCell>
        <mxCell id="RNC7cV8lwbOpFSMDOjC8-60" value="" style="rounded=0;whiteSpace=wrap;html=1;strokeColor=#000000;strokeWidth=1;fillColor=none;fontSize=14;" vertex="1" parent="RNC7cV8lwbOpFSMDOjC8-1">
          <mxGeometry x="354" y="311.5" width="20" height="20" as="geometry"/>
        </mxCell>
        <mxCell id="RNC7cV8lwbOpFSMDOjC8-61" value="&lt;font style=&quot;font-size: 14px;&quot;&gt;SW&lt;/font&gt;" style="rounded=0;whiteSpace=wrap;html=1;fontSize=14;" vertex="1" parent="RNC7cV8lwbOpFSMDOjC8-1">
          <mxGeometry x="354" y="394" width="80" height="20" as="geometry"/>
        </mxCell>
        <mxCell id="RNC7cV8lwbOpFSMDOjC8-62" value="&lt;b style=&quot;font-size: 14px;&quot;&gt;&lt;font style=&quot;font-size: 14px;&quot;&gt;PC&lt;/font&gt;&lt;/b&gt;" style="whiteSpace=wrap;html=1;aspect=fixed;rounded=1;fontSize=14;" vertex="1" parent="RNC7cV8lwbOpFSMDOjC8-1">
          <mxGeometry x="272" y="429" width="60" height="60" as="geometry"/>
        </mxCell>
        <mxCell id="RNC7cV8lwbOpFSMDOjC8-63" style="edgeStyle=orthogonalEdgeStyle;rounded=1;orthogonalLoop=1;jettySize=auto;html=1;exitX=1;exitY=0.5;exitDx=0;exitDy=0;entryX=0.75;entryY=1;entryDx=0;entryDy=0;endArrow=none;endFill=0;fontSize=14;" edge="1" parent="RNC7cV8lwbOpFSMDOjC8-1" source="RNC7cV8lwbOpFSMDOjC8-65" target="RNC7cV8lwbOpFSMDOjC8-61">
          <mxGeometry relative="1" as="geometry"/>
        </mxCell>
        <mxCell id="RNC7cV8lwbOpFSMDOjC8-64" style="edgeStyle=elbowEdgeStyle;rounded=1;orthogonalLoop=1;jettySize=auto;html=1;endArrow=none;endFill=0;fontSize=14;exitX=1;exitY=0.5;exitDx=0;exitDy=0;" edge="1" parent="RNC7cV8lwbOpFSMDOjC8-1" source="RNC7cV8lwbOpFSMDOjC8-62" target="RNC7cV8lwbOpFSMDOjC8-65">
          <mxGeometry relative="1" as="geometry">
            <mxPoint x="334.11764705882365" y="421.7941176470589" as="sourcePoint"/>
          </mxGeometry>
        </mxCell>
        <mxCell id="RNC7cV8lwbOpFSMDOjC8-65" value="" style="rounded=0;whiteSpace=wrap;html=1;strokeColor=#000000;strokeWidth=1;fillColor=none;fontSize=14;" vertex="1" parent="RNC7cV8lwbOpFSMDOjC8-1">
          <mxGeometry x="354" y="431.5" width="20" height="20" as="geometry"/>
        </mxCell>
        <mxCell id="RNC7cV8lwbOpFSMDOjC8-66" value="&lt;font style=&quot;font-size: 14px;&quot;&gt;SW&lt;/font&gt;" style="rounded=0;whiteSpace=wrap;html=1;fontSize=14;" vertex="1" parent="RNC7cV8lwbOpFSMDOjC8-1">
          <mxGeometry x="354" y="514" width="80" height="20" as="geometry"/>
        </mxCell>
        <mxCell id="RNC7cV8lwbOpFSMDOjC8-67" value="&lt;b style=&quot;font-size: 14px;&quot;&gt;&lt;font style=&quot;font-size: 14px;&quot;&gt;PC&lt;/font&gt;&lt;/b&gt;" style="whiteSpace=wrap;html=1;aspect=fixed;rounded=1;fontSize=14;" vertex="1" parent="RNC7cV8lwbOpFSMDOjC8-1">
          <mxGeometry x="272" y="549" width="60" height="60" as="geometry"/>
        </mxCell>
        <mxCell id="RNC7cV8lwbOpFSMDOjC8-68" style="edgeStyle=orthogonalEdgeStyle;rounded=1;orthogonalLoop=1;jettySize=auto;html=1;exitX=1;exitY=0.5;exitDx=0;exitDy=0;entryX=0.75;entryY=1;entryDx=0;entryDy=0;endArrow=none;endFill=0;fontSize=14;" edge="1" parent="RNC7cV8lwbOpFSMDOjC8-1" source="RNC7cV8lwbOpFSMDOjC8-70" target="RNC7cV8lwbOpFSMDOjC8-66">
          <mxGeometry relative="1" as="geometry"/>
        </mxCell>
        <mxCell id="RNC7cV8lwbOpFSMDOjC8-69" style="edgeStyle=elbowEdgeStyle;rounded=1;orthogonalLoop=1;jettySize=auto;html=1;endArrow=none;endFill=0;fontSize=14;exitX=1;exitY=0.5;exitDx=0;exitDy=0;" edge="1" parent="RNC7cV8lwbOpFSMDOjC8-1" source="RNC7cV8lwbOpFSMDOjC8-67" target="RNC7cV8lwbOpFSMDOjC8-70">
          <mxGeometry relative="1" as="geometry">
            <mxPoint x="334.11764705882365" y="541.7941176470588" as="sourcePoint"/>
          </mxGeometry>
        </mxCell>
        <mxCell id="RNC7cV8lwbOpFSMDOjC8-70" value="" style="rounded=0;whiteSpace=wrap;html=1;strokeColor=#000000;strokeWidth=1;fillColor=none;fontSize=14;" vertex="1" parent="RNC7cV8lwbOpFSMDOjC8-1">
          <mxGeometry x="354" y="551.5" width="20" height="20" as="geometry"/>
        </mxCell>
        <mxCell id="RNC7cV8lwbOpFSMDOjC8-71" value="&lt;font style=&quot;font-size: 14px;&quot;&gt;SW&lt;/font&gt;" style="rounded=0;whiteSpace=wrap;html=1;fontSize=14;" vertex="1" parent="RNC7cV8lwbOpFSMDOjC8-1">
          <mxGeometry x="122" y="266" width="80" height="20" as="geometry"/>
        </mxCell>
        <mxCell id="RNC7cV8lwbOpFSMDOjC8-72" value="&lt;b style=&quot;font-size: 14px;&quot;&gt;&lt;font style=&quot;font-size: 14px;&quot;&gt;PC&lt;/font&gt;&lt;/b&gt;" style="whiteSpace=wrap;html=1;aspect=fixed;rounded=1;fontSize=14;" vertex="1" parent="RNC7cV8lwbOpFSMDOjC8-1">
          <mxGeometry x="42" y="305" width="60" height="60" as="geometry"/>
        </mxCell>
        <mxCell id="RNC7cV8lwbOpFSMDOjC8-73" style="edgeStyle=orthogonalEdgeStyle;rounded=1;orthogonalLoop=1;jettySize=auto;html=1;exitX=1;exitY=0.5;exitDx=0;exitDy=0;entryX=0.75;entryY=1;entryDx=0;entryDy=0;endArrow=none;endFill=0;fontSize=14;" edge="1" parent="RNC7cV8lwbOpFSMDOjC8-1" source="RNC7cV8lwbOpFSMDOjC8-75" target="RNC7cV8lwbOpFSMDOjC8-71">
          <mxGeometry relative="1" as="geometry"/>
        </mxCell>
        <mxCell id="RNC7cV8lwbOpFSMDOjC8-74" style="edgeStyle=elbowEdgeStyle;rounded=1;orthogonalLoop=1;jettySize=auto;html=1;endArrow=none;endFill=0;fontSize=14;exitX=1;exitY=0.5;exitDx=0;exitDy=0;" edge="1" parent="RNC7cV8lwbOpFSMDOjC8-1" source="RNC7cV8lwbOpFSMDOjC8-72" target="RNC7cV8lwbOpFSMDOjC8-75">
          <mxGeometry relative="1" as="geometry"/>
        </mxCell>
        <mxCell id="RNC7cV8lwbOpFSMDOjC8-75" value="" style="rounded=0;whiteSpace=wrap;html=1;strokeColor=#000000;strokeWidth=1;fillColor=none;fontSize=14;" vertex="1" parent="RNC7cV8lwbOpFSMDOjC8-1">
          <mxGeometry x="122" y="305" width="20" height="21" as="geometry"/>
        </mxCell>
        <mxCell id="RNC7cV8lwbOpFSMDOjC8-76" value="&lt;font style=&quot;font-size: 14px;&quot;&gt;SW&lt;/font&gt;" style="rounded=0;whiteSpace=wrap;html=1;fontSize=14;" vertex="1" parent="RNC7cV8lwbOpFSMDOjC8-1">
          <mxGeometry x="122" y="386" width="80" height="20" as="geometry"/>
        </mxCell>
        <mxCell id="RNC7cV8lwbOpFSMDOjC8-77" value="&lt;b style=&quot;font-size: 14px;&quot;&gt;&lt;font style=&quot;font-size: 14px;&quot;&gt;PC&lt;/font&gt;&lt;/b&gt;" style="whiteSpace=wrap;html=1;aspect=fixed;rounded=1;fontSize=14;" vertex="1" parent="RNC7cV8lwbOpFSMDOjC8-1">
          <mxGeometry x="42" y="425" width="60" height="60" as="geometry"/>
        </mxCell>
        <mxCell id="RNC7cV8lwbOpFSMDOjC8-78" style="edgeStyle=orthogonalEdgeStyle;rounded=1;orthogonalLoop=1;jettySize=auto;html=1;exitX=1;exitY=0.5;exitDx=0;exitDy=0;entryX=0.75;entryY=1;entryDx=0;entryDy=0;endArrow=none;endFill=0;fontSize=14;" edge="1" parent="RNC7cV8lwbOpFSMDOjC8-1" source="RNC7cV8lwbOpFSMDOjC8-80" target="RNC7cV8lwbOpFSMDOjC8-76">
          <mxGeometry relative="1" as="geometry"/>
        </mxCell>
        <mxCell id="RNC7cV8lwbOpFSMDOjC8-79" style="edgeStyle=elbowEdgeStyle;rounded=1;orthogonalLoop=1;jettySize=auto;html=1;endArrow=none;endFill=0;fontSize=14;" edge="1" parent="RNC7cV8lwbOpFSMDOjC8-1" source="RNC7cV8lwbOpFSMDOjC8-77" target="RNC7cV8lwbOpFSMDOjC8-80">
          <mxGeometry relative="1" as="geometry"/>
        </mxCell>
        <mxCell id="RNC7cV8lwbOpFSMDOjC8-80" value="" style="rounded=0;whiteSpace=wrap;html=1;strokeColor=#000000;strokeWidth=1;fillColor=none;fontSize=14;" vertex="1" parent="RNC7cV8lwbOpFSMDOjC8-1">
          <mxGeometry x="122" y="426" width="20" height="20" as="geometry"/>
        </mxCell>
        <mxCell id="RNC7cV8lwbOpFSMDOjC8-81" value="&lt;font style=&quot;font-size: 14px;&quot;&gt;SW&lt;/font&gt;" style="rounded=0;whiteSpace=wrap;html=1;fontSize=14;" vertex="1" parent="RNC7cV8lwbOpFSMDOjC8-1">
          <mxGeometry x="122" y="506" width="80" height="20" as="geometry"/>
        </mxCell>
        <mxCell id="RNC7cV8lwbOpFSMDOjC8-82" value="&lt;b style=&quot;font-size: 14px;&quot;&gt;&lt;font style=&quot;font-size: 14px;&quot;&gt;PC&lt;/font&gt;&lt;/b&gt;" style="whiteSpace=wrap;html=1;aspect=fixed;rounded=1;fontSize=14;" vertex="1" parent="RNC7cV8lwbOpFSMDOjC8-1">
          <mxGeometry x="42" y="545" width="60" height="60" as="geometry"/>
        </mxCell>
        <mxCell id="RNC7cV8lwbOpFSMDOjC8-83" style="edgeStyle=orthogonalEdgeStyle;rounded=1;orthogonalLoop=1;jettySize=auto;html=1;exitX=1;exitY=0.5;exitDx=0;exitDy=0;entryX=0.75;entryY=1;entryDx=0;entryDy=0;endArrow=none;endFill=0;fontSize=14;" edge="1" parent="RNC7cV8lwbOpFSMDOjC8-1" source="RNC7cV8lwbOpFSMDOjC8-85" target="RNC7cV8lwbOpFSMDOjC8-81">
          <mxGeometry relative="1" as="geometry"/>
        </mxCell>
        <mxCell id="RNC7cV8lwbOpFSMDOjC8-84" style="edgeStyle=elbowEdgeStyle;rounded=1;orthogonalLoop=1;jettySize=auto;html=1;endArrow=none;endFill=0;fontSize=14;" edge="1" parent="RNC7cV8lwbOpFSMDOjC8-1" source="RNC7cV8lwbOpFSMDOjC8-82" target="RNC7cV8lwbOpFSMDOjC8-85">
          <mxGeometry relative="1" as="geometry"/>
        </mxCell>
        <mxCell id="RNC7cV8lwbOpFSMDOjC8-85" value="" style="rounded=0;whiteSpace=wrap;html=1;strokeColor=#000000;strokeWidth=1;fillColor=none;fontSize=14;" vertex="1" parent="RNC7cV8lwbOpFSMDOjC8-1">
          <mxGeometry x="122" y="545" width="20" height="20" as="geometry"/>
        </mxCell>
        <mxCell id="RNC7cV8lwbOpFSMDOjC8-86" value="&lt;font style=&quot;font-size: 14px;&quot;&gt;SW&lt;/font&gt;" style="rounded=0;whiteSpace=wrap;html=1;fontSize=14;" vertex="1" parent="RNC7cV8lwbOpFSMDOjC8-1">
          <mxGeometry x="122" y="626" width="80" height="20" as="geometry"/>
        </mxCell>
        <mxCell id="RNC7cV8lwbOpFSMDOjC8-87" style="edgeStyle=orthogonalEdgeStyle;rounded=1;orthogonalLoop=1;jettySize=auto;html=1;exitX=1;exitY=0.5;exitDx=0;exitDy=0;entryX=1;entryY=0.75;entryDx=0;entryDy=0;endArrow=none;endFill=0;fontSize=14;" edge="1" parent="RNC7cV8lwbOpFSMDOjC8-1" source="RNC7cV8lwbOpFSMDOjC8-71" target="RNC7cV8lwbOpFSMDOjC8-86">
          <mxGeometry relative="1" as="geometry">
            <Array as="points">
              <mxPoint x="222" y="276"/>
              <mxPoint x="222" y="636"/>
              <mxPoint x="202" y="636"/>
            </Array>
          </mxGeometry>
        </mxCell>
        <mxCell id="RNC7cV8lwbOpFSMDOjC8-88" style="edgeStyle=orthogonalEdgeStyle;rounded=1;orthogonalLoop=1;jettySize=auto;html=1;endArrow=none;endFill=0;fontSize=14;exitX=1;exitY=0.5;exitDx=0;exitDy=0;" edge="1" parent="RNC7cV8lwbOpFSMDOjC8-1" source="RNC7cV8lwbOpFSMDOjC8-76">
          <mxGeometry relative="1" as="geometry">
            <Array as="points">
              <mxPoint x="214" y="396"/>
              <mxPoint x="214" y="606"/>
              <mxPoint x="195" y="606"/>
            </Array>
            <mxPoint x="195" y="626" as="targetPoint"/>
          </mxGeometry>
        </mxCell>
        <mxCell id="RNC7cV8lwbOpFSMDOjC8-89" style="edgeStyle=orthogonalEdgeStyle;rounded=1;orthogonalLoop=1;jettySize=auto;html=1;entryX=0.667;entryY=-0.017;entryDx=0;entryDy=0;endArrow=none;endFill=0;fontSize=14;exitX=0.9;exitY=1.05;exitDx=0;exitDy=0;entryPerimeter=0;exitPerimeter=0;" edge="1" parent="RNC7cV8lwbOpFSMDOjC8-1" source="RNC7cV8lwbOpFSMDOjC8-81" target="RNC7cV8lwbOpFSMDOjC8-86">
          <mxGeometry relative="1" as="geometry"/>
        </mxCell>
        <mxCell id="RNC7cV8lwbOpFSMDOjC8-90" value="&lt;b style=&quot;font-size: 14px;&quot;&gt;&lt;font style=&quot;font-size: 14px;&quot;&gt;PC&lt;/font&gt;&lt;/b&gt;" style="whiteSpace=wrap;html=1;aspect=fixed;rounded=1;direction=south;fontSize=14;" vertex="1" parent="RNC7cV8lwbOpFSMDOjC8-1">
          <mxGeometry x="42" y="665" width="60" height="60" as="geometry"/>
        </mxCell>
        <mxCell id="RNC7cV8lwbOpFSMDOjC8-91" style="edgeStyle=orthogonalEdgeStyle;rounded=1;orthogonalLoop=1;jettySize=auto;html=1;exitX=1;exitY=0.5;exitDx=0;exitDy=0;endArrow=none;endFill=0;fontSize=14;" edge="1" parent="RNC7cV8lwbOpFSMDOjC8-1" source="RNC7cV8lwbOpFSMDOjC8-92">
          <mxGeometry relative="1" as="geometry">
            <mxPoint x="162" y="646" as="targetPoint"/>
          </mxGeometry>
        </mxCell>
        <mxCell id="RNC7cV8lwbOpFSMDOjC8-92" value="" style="rounded=0;whiteSpace=wrap;html=1;strokeColor=#000000;strokeWidth=1;fillColor=none;fontSize=14;" vertex="1" parent="RNC7cV8lwbOpFSMDOjC8-1">
          <mxGeometry x="122" y="665" width="20" height="20" as="geometry"/>
        </mxCell>
        <mxCell id="RNC7cV8lwbOpFSMDOjC8-93" style="edgeStyle=elbowEdgeStyle;rounded=1;orthogonalLoop=1;jettySize=auto;html=1;entryX=0;entryY=0.5;entryDx=0;entryDy=0;endArrow=none;endFill=0;" edge="1" parent="RNC7cV8lwbOpFSMDOjC8-1" source="RNC7cV8lwbOpFSMDOjC8-90" target="RNC7cV8lwbOpFSMDOjC8-92">
          <mxGeometry relative="1" as="geometry"/>
        </mxCell>
        <mxCell id="RNC7cV8lwbOpFSMDOjC8-94" value="&lt;b style=&quot;font-size: 14px;&quot;&gt;&lt;font style=&quot;font-size: 14px;&quot;&gt;PC&lt;/font&gt;&lt;/b&gt;" style="whiteSpace=wrap;html=1;aspect=fixed;rounded=1;fontSize=14;" vertex="1" parent="RNC7cV8lwbOpFSMDOjC8-1">
          <mxGeometry x="588" y="434" width="60" height="60" as="geometry"/>
        </mxCell>
        <mxCell id="RNC7cV8lwbOpFSMDOjC8-95" style="edgeStyle=elbowEdgeStyle;rounded=1;orthogonalLoop=1;jettySize=auto;html=1;endArrow=none;endFill=0;fontSize=14;exitX=0;exitY=0.5;exitDx=0;exitDy=0;" edge="1" parent="RNC7cV8lwbOpFSMDOjC8-1" source="RNC7cV8lwbOpFSMDOjC8-94" target="RNC7cV8lwbOpFSMDOjC8-96">
          <mxGeometry relative="1" as="geometry"/>
        </mxCell>
        <mxCell id="RNC7cV8lwbOpFSMDOjC8-96" value="" style="rounded=0;whiteSpace=wrap;html=1;strokeColor=#000000;strokeWidth=1;fillColor=none;fontSize=14;" vertex="1" parent="RNC7cV8lwbOpFSMDOjC8-1">
          <mxGeometry x="552" y="434" width="20" height="20" as="geometry"/>
        </mxCell>
        <mxCell id="RNC7cV8lwbOpFSMDOjC8-97" value="&lt;font style=&quot;font-size: 14px;&quot;&gt;SW&lt;/font&gt;" style="rounded=0;whiteSpace=wrap;html=1;fontSize=14;" vertex="1" parent="RNC7cV8lwbOpFSMDOjC8-1">
          <mxGeometry x="495.5" y="394" width="80" height="20" as="geometry"/>
        </mxCell>
        <mxCell id="RNC7cV8lwbOpFSMDOjC8-98" style="edgeStyle=elbowEdgeStyle;rounded=1;orthogonalLoop=1;jettySize=auto;html=1;entryX=0.5;entryY=1;entryDx=0;entryDy=0;endArrow=none;endFill=0;fontSize=14;elbow=vertical;" edge="1" parent="RNC7cV8lwbOpFSMDOjC8-1" source="RNC7cV8lwbOpFSMDOjC8-96" target="RNC7cV8lwbOpFSMDOjC8-97">
          <mxGeometry relative="1" as="geometry"/>
        </mxCell>
        <mxCell id="RNC7cV8lwbOpFSMDOjC8-99" value="&lt;b style=&quot;font-size: 14px;&quot;&gt;&lt;font style=&quot;font-size: 14px;&quot;&gt;PC&lt;/font&gt;&lt;/b&gt;" style="whiteSpace=wrap;html=1;aspect=fixed;rounded=1;fontSize=14;" vertex="1" parent="RNC7cV8lwbOpFSMDOjC8-1">
          <mxGeometry x="588" y="674" width="60" height="60" as="geometry"/>
        </mxCell>
        <mxCell id="RNC7cV8lwbOpFSMDOjC8-100" style="edgeStyle=elbowEdgeStyle;rounded=1;orthogonalLoop=1;jettySize=auto;html=1;endArrow=none;endFill=0;fontSize=14;exitX=0;exitY=0.5;exitDx=0;exitDy=0;" edge="1" parent="RNC7cV8lwbOpFSMDOjC8-1" source="RNC7cV8lwbOpFSMDOjC8-99" target="RNC7cV8lwbOpFSMDOjC8-101">
          <mxGeometry relative="1" as="geometry"/>
        </mxCell>
        <mxCell id="RNC7cV8lwbOpFSMDOjC8-101" value="" style="rounded=0;whiteSpace=wrap;html=1;strokeColor=#000000;strokeWidth=1;fillColor=none;fontSize=14;" vertex="1" parent="RNC7cV8lwbOpFSMDOjC8-1">
          <mxGeometry x="552" y="674" width="20" height="20" as="geometry"/>
        </mxCell>
        <mxCell id="RNC7cV8lwbOpFSMDOjC8-102" value="&lt;font style=&quot;font-size: 14px;&quot;&gt;SW&lt;/font&gt;" style="rounded=0;whiteSpace=wrap;html=1;fontSize=14;" vertex="1" parent="RNC7cV8lwbOpFSMDOjC8-1">
          <mxGeometry x="495.5" y="634" width="80" height="20" as="geometry"/>
        </mxCell>
        <mxCell id="RNC7cV8lwbOpFSMDOjC8-103" style="edgeStyle=orthogonalEdgeStyle;rounded=1;orthogonalLoop=1;jettySize=auto;html=1;entryX=0;entryY=0.5;entryDx=0;entryDy=0;endArrow=none;endFill=0;fontSize=14;exitX=0;exitY=0.5;exitDx=0;exitDy=0;" edge="1" parent="RNC7cV8lwbOpFSMDOjC8-1" source="RNC7cV8lwbOpFSMDOjC8-97" target="RNC7cV8lwbOpFSMDOjC8-102">
          <mxGeometry relative="1" as="geometry">
            <Array as="points">
              <mxPoint x="476" y="404"/>
              <mxPoint x="476" y="644"/>
            </Array>
          </mxGeometry>
        </mxCell>
        <mxCell id="RNC7cV8lwbOpFSMDOjC8-104" style="edgeStyle=elbowEdgeStyle;rounded=1;orthogonalLoop=1;jettySize=auto;html=1;entryX=0.5;entryY=1;entryDx=0;entryDy=0;endArrow=none;endFill=0;fontSize=14;elbow=vertical;" edge="1" parent="RNC7cV8lwbOpFSMDOjC8-1" source="RNC7cV8lwbOpFSMDOjC8-101" target="RNC7cV8lwbOpFSMDOjC8-102">
          <mxGeometry relative="1" as="geometry"/>
        </mxCell>
        <mxCell id="RNC7cV8lwbOpFSMDOjC8-105" value="&lt;b style=&quot;font-size: 14px;&quot;&gt;&lt;font style=&quot;font-size: 14px;&quot;&gt;PC&lt;/font&gt;&lt;/b&gt;" style="whiteSpace=wrap;html=1;aspect=fixed;rounded=1;fontSize=14;" vertex="1" parent="RNC7cV8lwbOpFSMDOjC8-1">
          <mxGeometry x="588" y="554" width="60" height="60" as="geometry"/>
        </mxCell>
        <mxCell id="RNC7cV8lwbOpFSMDOjC8-106" value="" style="rounded=0;whiteSpace=wrap;html=1;strokeColor=#000000;strokeWidth=1;fillColor=none;fontSize=14;" vertex="1" parent="RNC7cV8lwbOpFSMDOjC8-1">
          <mxGeometry x="552" y="554" width="20" height="20" as="geometry"/>
        </mxCell>
        <mxCell id="RNC7cV8lwbOpFSMDOjC8-107" style="edgeStyle=elbowEdgeStyle;rounded=1;orthogonalLoop=1;jettySize=auto;html=1;entryX=1;entryY=0.5;entryDx=0;entryDy=0;endArrow=none;endFill=0;fontSize=14;" edge="1" parent="RNC7cV8lwbOpFSMDOjC8-1" source="RNC7cV8lwbOpFSMDOjC8-105" target="RNC7cV8lwbOpFSMDOjC8-106">
          <mxGeometry relative="1" as="geometry"/>
        </mxCell>
        <mxCell id="RNC7cV8lwbOpFSMDOjC8-108" value="&lt;font style=&quot;font-size: 14px;&quot;&gt;SW&lt;/font&gt;" style="rounded=0;whiteSpace=wrap;html=1;fontSize=14;" vertex="1" parent="RNC7cV8lwbOpFSMDOjC8-1">
          <mxGeometry x="495.5" y="514" width="80" height="20" as="geometry"/>
        </mxCell>
        <mxCell id="RNC7cV8lwbOpFSMDOjC8-109" style="edgeStyle=orthogonalEdgeStyle;rounded=1;orthogonalLoop=1;jettySize=auto;html=1;endArrow=none;endFill=0;fontSize=14;exitX=0;exitY=0.5;exitDx=0;exitDy=0;entryX=0;entryY=0.25;entryDx=0;entryDy=0;" edge="1" parent="RNC7cV8lwbOpFSMDOjC8-1" source="RNC7cV8lwbOpFSMDOjC8-108" target="RNC7cV8lwbOpFSMDOjC8-102">
          <mxGeometry relative="1" as="geometry">
            <mxPoint x="525.5" y="594" as="sourcePoint"/>
            <Array as="points">
              <mxPoint x="488" y="524"/>
              <mxPoint x="488" y="639"/>
            </Array>
          </mxGeometry>
        </mxCell>
        <mxCell id="RNC7cV8lwbOpFSMDOjC8-110" style="edgeStyle=elbowEdgeStyle;rounded=1;orthogonalLoop=1;jettySize=auto;html=1;entryX=0.5;entryY=1;entryDx=0;entryDy=0;endArrow=none;endFill=0;fontSize=14;elbow=vertical;" edge="1" parent="RNC7cV8lwbOpFSMDOjC8-1" source="RNC7cV8lwbOpFSMDOjC8-106" target="RNC7cV8lwbOpFSMDOjC8-108">
          <mxGeometry relative="1" as="geometry"/>
        </mxCell>
        <mxCell id="RNC7cV8lwbOpFSMDOjC8-111" style="edgeStyle=elbowEdgeStyle;rounded=1;orthogonalLoop=1;jettySize=auto;html=1;exitX=0.75;exitY=1;exitDx=0;exitDy=0;entryX=0.25;entryY=1;entryDx=0;entryDy=0;endArrow=none;endFill=0;fontSize=14;" edge="1" parent="RNC7cV8lwbOpFSMDOjC8-1" source="RNC7cV8lwbOpFSMDOjC8-112" target="RNC7cV8lwbOpFSMDOjC8-102">
          <mxGeometry relative="1" as="geometry">
            <Array as="points">
              <mxPoint x="464" y="696"/>
              <mxPoint x="564" y="666"/>
              <mxPoint x="500" y="678"/>
              <mxPoint x="414" y="722"/>
              <mxPoint x="432" y="722"/>
              <mxPoint x="394" y="694"/>
              <mxPoint x="444" y="678"/>
              <mxPoint x="491" y="756"/>
            </Array>
          </mxGeometry>
        </mxCell>
        <mxCell id="RNC7cV8lwbOpFSMDOjC8-112" value="&lt;font style=&quot;font-size: 14px;&quot;&gt;SW&lt;/font&gt;" style="rounded=0;whiteSpace=wrap;html=1;fontSize=14;" vertex="1" parent="RNC7cV8lwbOpFSMDOjC8-1">
          <mxGeometry x="354" y="634" width="80" height="20" as="geometry"/>
        </mxCell>
        <mxCell id="RNC7cV8lwbOpFSMDOjC8-113" style="edgeStyle=orthogonalEdgeStyle;rounded=1;orthogonalLoop=1;jettySize=auto;html=1;exitX=1;exitY=0.5;exitDx=0;exitDy=0;entryX=1;entryY=0.75;entryDx=0;entryDy=0;endArrow=none;endFill=0;fontSize=14;" edge="1" parent="RNC7cV8lwbOpFSMDOjC8-1" source="RNC7cV8lwbOpFSMDOjC8-56" target="RNC7cV8lwbOpFSMDOjC8-112">
          <mxGeometry relative="1" as="geometry">
            <Array as="points">
              <mxPoint x="460" y="284"/>
              <mxPoint x="460" y="649"/>
            </Array>
          </mxGeometry>
        </mxCell>
        <mxCell id="RNC7cV8lwbOpFSMDOjC8-114" value="&lt;b style=&quot;font-size: 14px;&quot;&gt;&lt;font style=&quot;font-size: 14px;&quot;&gt;PC&lt;/font&gt;&lt;/b&gt;" style="whiteSpace=wrap;html=1;aspect=fixed;rounded=1;fontSize=14;" vertex="1" parent="RNC7cV8lwbOpFSMDOjC8-1">
          <mxGeometry x="272" y="669" width="60" height="60" as="geometry"/>
        </mxCell>
        <mxCell id="RNC7cV8lwbOpFSMDOjC8-115" style="edgeStyle=orthogonalEdgeStyle;rounded=1;orthogonalLoop=1;jettySize=auto;html=1;exitX=0.5;exitY=0;exitDx=0;exitDy=0;entryX=0.25;entryY=1;entryDx=0;entryDy=0;endArrow=none;endFill=0;fontSize=14;" edge="1" parent="RNC7cV8lwbOpFSMDOjC8-1" source="RNC7cV8lwbOpFSMDOjC8-117" target="RNC7cV8lwbOpFSMDOjC8-112">
          <mxGeometry relative="1" as="geometry"/>
        </mxCell>
        <mxCell id="RNC7cV8lwbOpFSMDOjC8-116" style="edgeStyle=elbowEdgeStyle;rounded=1;orthogonalLoop=1;jettySize=auto;html=1;endArrow=none;endFill=0;fontSize=14;exitX=1;exitY=0.5;exitDx=0;exitDy=0;" edge="1" parent="RNC7cV8lwbOpFSMDOjC8-1" source="RNC7cV8lwbOpFSMDOjC8-114" target="RNC7cV8lwbOpFSMDOjC8-117">
          <mxGeometry relative="1" as="geometry">
            <mxPoint x="334.11764705882365" y="661.7941176470588" as="sourcePoint"/>
          </mxGeometry>
        </mxCell>
        <mxCell id="RNC7cV8lwbOpFSMDOjC8-117" value="" style="rounded=0;whiteSpace=wrap;html=1;strokeColor=#000000;strokeWidth=1;fillColor=none;fontSize=14;" vertex="1" parent="RNC7cV8lwbOpFSMDOjC8-1">
          <mxGeometry x="354" y="671.5" width="20" height="20" as="geometry"/>
        </mxCell>
        <mxCell id="RNC7cV8lwbOpFSMDOjC8-118" style="edgeStyle=orthogonalEdgeStyle;rounded=1;orthogonalLoop=1;jettySize=auto;html=1;entryX=1;entryY=0.5;entryDx=0;entryDy=0;endArrow=none;endFill=0;fontSize=14;exitX=1;exitY=0.5;exitDx=0;exitDy=0;" edge="1" parent="RNC7cV8lwbOpFSMDOjC8-1" source="RNC7cV8lwbOpFSMDOjC8-61" target="RNC7cV8lwbOpFSMDOjC8-112">
          <mxGeometry relative="1" as="geometry">
            <Array as="points">
              <mxPoint x="452" y="404"/>
              <mxPoint x="452" y="644"/>
            </Array>
          </mxGeometry>
        </mxCell>
        <mxCell id="RNC7cV8lwbOpFSMDOjC8-119" style="edgeStyle=orthogonalEdgeStyle;rounded=1;orthogonalLoop=1;jettySize=auto;html=1;entryX=1;entryY=0.25;entryDx=0;entryDy=0;endArrow=none;endFill=0;fontSize=14;exitX=1;exitY=0.5;exitDx=0;exitDy=0;" edge="1" parent="RNC7cV8lwbOpFSMDOjC8-1" source="RNC7cV8lwbOpFSMDOjC8-66" target="RNC7cV8lwbOpFSMDOjC8-112">
          <mxGeometry relative="1" as="geometry">
            <Array as="points">
              <mxPoint x="444" y="524"/>
              <mxPoint x="444" y="639"/>
            </Array>
          </mxGeometry>
        </mxCell>
        <mxCell id="RNC7cV8lwbOpFSMDOjC8-120" style="edgeStyle=elbowEdgeStyle;rounded=1;orthogonalLoop=1;jettySize=auto;html=1;entryX=0.5;entryY=1;entryDx=0;entryDy=0;endArrow=none;endFill=0;fontSize=14;exitX=0.75;exitY=1;exitDx=0;exitDy=0;" edge="1" parent="RNC7cV8lwbOpFSMDOjC8-1" source="RNC7cV8lwbOpFSMDOjC8-86" target="RNC7cV8lwbOpFSMDOjC8-112">
          <mxGeometry relative="1" as="geometry">
            <Array as="points">
              <mxPoint x="273" y="756"/>
            </Array>
          </mxGeometry>
        </mxCell>
        <mxCell id="RNC7cV8lwbOpFSMDOjC8-121" value="&lt;font style=&quot;font-size: 15px&quot;&gt;C6/1G&lt;/font&gt;" style="text;html=1;align=center;verticalAlign=middle;resizable=0;points=[];;labelBackgroundColor=none;" vertex="1" connectable="0" parent="RNC7cV8lwbOpFSMDOjC8-120">
          <mxGeometry x="-0.3808" y="14" relative="1" as="geometry">
            <mxPoint x="25" y="4" as="offset"/>
          </mxGeometry>
        </mxCell>
        <mxCell id="RNC7cV8lwbOpFSMDOjC8-122" value="&lt;h1&gt;中埔國中網路架構示意圖&lt;/h1&gt;" style="text;html=1;strokeColor=none;fillColor=none;spacing=5;spacingTop=-20;whiteSpace=wrap;overflow=hidden;rounded=0;" vertex="1" parent="RNC7cV8lwbOpFSMDOjC8-1">
          <mxGeometry x="80" y="160" width="305" height="50" as="geometry"/>
        </mxCell>
        <mxCell id="RNC7cV8lwbOpFSMDOjC8-123" value="&lt;font style=&quot;font-size: 14px;&quot;&gt;SW&lt;/font&gt;" style="rounded=0;whiteSpace=wrap;html=1;fontSize=14;" vertex="1" parent="RNC7cV8lwbOpFSMDOjC8-1">
          <mxGeometry x="892" y="208" width="80" height="20" as="geometry"/>
        </mxCell>
        <mxCell id="RNC7cV8lwbOpFSMDOjC8-124" style="edgeStyle=elbowEdgeStyle;rounded=1;orthogonalLoop=1;jettySize=auto;html=1;exitX=0.22;exitY=0.5;exitDx=0;exitDy=0;exitPerimeter=0;endArrow=none;endFill=0;fontSize=14;elbow=vertical;entryX=0.5;entryY=1;entryDx=0;entryDy=0;" edge="1" parent="RNC7cV8lwbOpFSMDOjC8-1" source="RNC7cV8lwbOpFSMDOjC8-32" target="RNC7cV8lwbOpFSMDOjC8-5">
          <mxGeometry relative="1" as="geometry">
            <mxPoint x="632" y="232" as="targetPoint"/>
            <mxPoint x="1297.2857142857142" y="124.14285714285722" as="sourcePoint"/>
            <Array as="points">
              <mxPoint x="812" y="400"/>
              <mxPoint x="736" y="380"/>
              <mxPoint x="748" y="416"/>
              <mxPoint x="672" y="356"/>
              <mxPoint x="744" y="420"/>
              <mxPoint x="1204" y="200"/>
            </Array>
          </mxGeometry>
        </mxCell>
        <mxCell id="RNC7cV8lwbOpFSMDOjC8-125" style="edgeStyle=orthogonalEdgeStyle;rounded=1;orthogonalLoop=1;jettySize=auto;elbow=vertical;html=1;endArrow=none;endFill=0;fontSize=14;exitX=0;exitY=0.5;exitDx=0;exitDy=0;entryX=0.25;entryY=1;entryDx=0;entryDy=0;" edge="1" parent="RNC7cV8lwbOpFSMDOjC8-1" source="RNC7cV8lwbOpFSMDOjC8-33" target="RNC7cV8lwbOpFSMDOjC8-5">
          <mxGeometry relative="1" as="geometry">
            <mxPoint x="748" y="460" as="sourcePoint"/>
            <mxPoint x="588" y="228" as="targetPoint"/>
            <Array as="points">
              <mxPoint x="696" y="443"/>
              <mxPoint x="696" y="173"/>
            </Array>
          </mxGeometry>
        </mxCell>
        <object label="工作區圖層" id="RNC7cV8lwbOpFSMDOjC8-126">
          <mxCell parent="0"/>
        </object>
        <mxCell id="RNC7cV8lwbOpFSMDOjC8-127" value="" style="rounded=1;whiteSpace=wrap;html=1;fontSize=14;strokeColor=#97D077;fillColor=none;dashed=1;perimeterSpacing=1;strokeWidth=3;" vertex="1" parent="RNC7cV8lwbOpFSMDOjC8-126">
          <mxGeometry x="488" y="212" width="196" height="144" as="geometry"/>
        </mxCell>
        <mxCell id="RNC7cV8lwbOpFSMDOjC8-128" value="" style="rounded=1;whiteSpace=wrap;html=1;fontSize=14;strokeColor=#97D077;fillColor=none;dashed=1;perimeterSpacing=1;strokeWidth=3;" vertex="1" parent="RNC7cV8lwbOpFSMDOjC8-126">
          <mxGeometry x="32" y="655" width="120" height="80" as="geometry"/>
        </mxCell>
        <mxCell id="RNC7cV8lwbOpFSMDOjC8-129" value="" style="rounded=1;whiteSpace=wrap;html=1;fontSize=14;strokeColor=#97D077;fillColor=none;dashed=1;perimeterSpacing=1;strokeWidth=3;" vertex="1" parent="RNC7cV8lwbOpFSMDOjC8-126">
          <mxGeometry x="32" y="535" width="120" height="80" as="geometry"/>
        </mxCell>
        <mxCell id="RNC7cV8lwbOpFSMDOjC8-130" value="" style="rounded=1;whiteSpace=wrap;html=1;fontSize=14;strokeColor=#97D077;fillColor=none;dashed=1;perimeterSpacing=1;strokeWidth=3;" vertex="1" parent="RNC7cV8lwbOpFSMDOjC8-126">
          <mxGeometry x="32" y="415" width="120" height="80" as="geometry"/>
        </mxCell>
        <mxCell id="RNC7cV8lwbOpFSMDOjC8-131" value="" style="rounded=1;whiteSpace=wrap;html=1;fontSize=14;strokeColor=#97D077;fillColor=none;dashed=1;perimeterSpacing=1;strokeWidth=3;" vertex="1" parent="RNC7cV8lwbOpFSMDOjC8-126">
          <mxGeometry x="32" y="296" width="120" height="80" as="geometry"/>
        </mxCell>
        <mxCell id="RNC7cV8lwbOpFSMDOjC8-132" value="" style="rounded=1;whiteSpace=wrap;html=1;fontSize=14;strokeColor=#97D077;fillColor=none;dashed=1;perimeterSpacing=1;strokeWidth=3;" vertex="1" parent="RNC7cV8lwbOpFSMDOjC8-126">
          <mxGeometry x="262" y="299" width="120" height="80" as="geometry"/>
        </mxCell>
        <mxCell id="RNC7cV8lwbOpFSMDOjC8-133" value="" style="rounded=1;whiteSpace=wrap;html=1;fontSize=14;strokeColor=#97D077;fillColor=none;dashed=1;perimeterSpacing=1;strokeWidth=3;" vertex="1" parent="RNC7cV8lwbOpFSMDOjC8-126">
          <mxGeometry x="262" y="419" width="120" height="80" as="geometry"/>
        </mxCell>
        <mxCell id="RNC7cV8lwbOpFSMDOjC8-134" value="" style="rounded=1;whiteSpace=wrap;html=1;fontSize=14;strokeColor=#97D077;fillColor=none;dashed=1;perimeterSpacing=1;strokeWidth=3;" vertex="1" parent="RNC7cV8lwbOpFSMDOjC8-126">
          <mxGeometry x="262" y="539" width="120" height="80" as="geometry"/>
        </mxCell>
        <mxCell id="RNC7cV8lwbOpFSMDOjC8-135" value="" style="rounded=1;whiteSpace=wrap;html=1;fontSize=14;strokeColor=#97D077;fillColor=none;dashed=1;perimeterSpacing=1;strokeWidth=3;" vertex="1" parent="RNC7cV8lwbOpFSMDOjC8-126">
          <mxGeometry x="262" y="659" width="120" height="80" as="geometry"/>
        </mxCell>
        <mxCell id="RNC7cV8lwbOpFSMDOjC8-136" value="" style="rounded=1;whiteSpace=wrap;html=1;fontSize=14;strokeColor=#97D077;fillColor=none;dashed=1;perimeterSpacing=1;strokeWidth=3;" vertex="1" parent="RNC7cV8lwbOpFSMDOjC8-126">
          <mxGeometry x="538" y="424" width="120" height="80" as="geometry"/>
        </mxCell>
        <mxCell id="RNC7cV8lwbOpFSMDOjC8-137" value="" style="rounded=1;whiteSpace=wrap;html=1;fontSize=14;strokeColor=#97D077;fillColor=none;dashed=1;perimeterSpacing=1;strokeWidth=3;" vertex="1" parent="RNC7cV8lwbOpFSMDOjC8-126">
          <mxGeometry x="538" y="544" width="120" height="80" as="geometry"/>
        </mxCell>
        <mxCell id="RNC7cV8lwbOpFSMDOjC8-138" value="" style="rounded=1;whiteSpace=wrap;html=1;fontSize=14;strokeColor=#97D077;fillColor=none;dashed=1;perimeterSpacing=1;strokeWidth=3;" vertex="1" parent="RNC7cV8lwbOpFSMDOjC8-126">
          <mxGeometry x="538" y="664" width="120" height="80" as="geometry"/>
        </mxCell>
        <mxCell id="RNC7cV8lwbOpFSMDOjC8-139" value="" style="rounded=1;whiteSpace=wrap;html=1;fontSize=14;strokeColor=#97D077;fillColor=none;dashed=1;perimeterSpacing=1;strokeWidth=3;" vertex="1" parent="RNC7cV8lwbOpFSMDOjC8-126">
          <mxGeometry x="700" y="413" width="120" height="160" as="geometry"/>
        </mxCell>
        <mxCell id="RNC7cV8lwbOpFSMDOjC8-140" value="" style="rounded=1;whiteSpace=wrap;html=1;fontSize=14;strokeColor=#97D077;fillColor=none;dashed=1;perimeterSpacing=1;strokeWidth=3;" vertex="1" parent="RNC7cV8lwbOpFSMDOjC8-126">
          <mxGeometry x="852" y="609" width="120" height="200" as="geometry"/>
        </mxCell>
        <mxCell id="RNC7cV8lwbOpFSMDOjC8-141" value="" style="rounded=1;whiteSpace=wrap;html=1;fontSize=14;strokeColor=#97D077;fillColor=none;dashed=1;perimeterSpacing=1;strokeWidth=3;" vertex="1" parent="RNC7cV8lwbOpFSMDOjC8-126">
          <mxGeometry x="764" y="240" width="160" height="144" as="geometry"/>
        </mxCell>
        <mxCell id="RNC7cV8lwbOpFSMDOjC8-142" value="" style="rounded=1;whiteSpace=wrap;html=1;fontSize=14;strokeColor=#97D077;fillColor=none;dashed=1;perimeterSpacing=1;strokeWidth=3;" vertex="1" parent="RNC7cV8lwbOpFSMDOjC8-126">
          <mxGeometry x="1027" y="524" width="80" height="100" as="geometry"/>
        </mxCell>
        <mxCell id="RNC7cV8lwbOpFSMDOjC8-143" value="" style="rounded=1;whiteSpace=wrap;html=1;fontSize=14;strokeColor=#97D077;fillColor=none;dashed=1;perimeterSpacing=1;strokeWidth=3;" vertex="1" parent="RNC7cV8lwbOpFSMDOjC8-126">
          <mxGeometry x="564" y="20" width="508" height="164" as="geometry"/>
        </mxCell>
        <object label="文字層" id="RNC7cV8lwbOpFSMDOjC8-144">
          <mxCell parent="0"/>
        </object>
        <mxCell id="RNC7cV8lwbOpFSMDOjC8-145" value="300MBps" style="text;html=1;resizable=0;points=[];autosize=1;align=left;verticalAlign=top;spacingTop=-4;fontSize=14;" vertex="1" parent="RNC7cV8lwbOpFSMDOjC8-144">
          <mxGeometry x="316" y="60" width="70" height="20" as="geometry"/>
        </mxCell>
        <mxCell id="RNC7cV8lwbOpFSMDOjC8-146" value="&lt;font style=&quot;font-size: 14px&quot; color=&quot;#3399ff&quot;&gt;A棟4F&lt;/font&gt;" style="text;html=1;resizable=0;points=[];autosize=1;align=left;verticalAlign=top;spacingTop=-4;" vertex="1" parent="RNC7cV8lwbOpFSMDOjC8-144">
          <mxGeometry x="52" y="266" width="60" height="20" as="geometry"/>
        </mxCell>
        <mxCell id="RNC7cV8lwbOpFSMDOjC8-147" value="&lt;font style=&quot;font-size: 14px&quot; color=&quot;#3399ff&quot;&gt;A棟3F&lt;/font&gt;" style="text;html=1;resizable=0;points=[];autosize=1;align=left;verticalAlign=top;spacingTop=-4;" vertex="1" parent="RNC7cV8lwbOpFSMDOjC8-144">
          <mxGeometry x="52" y="386" width="60" height="20" as="geometry"/>
        </mxCell>
        <mxCell id="RNC7cV8lwbOpFSMDOjC8-148" value="&lt;font style=&quot;font-size: 14px&quot; color=&quot;#3399ff&quot;&gt;A棟2F&lt;/font&gt;" style="text;html=1;resizable=0;points=[];autosize=1;align=left;verticalAlign=top;spacingTop=-4;" vertex="1" parent="RNC7cV8lwbOpFSMDOjC8-144">
          <mxGeometry x="52" y="506" width="60" height="20" as="geometry"/>
        </mxCell>
        <mxCell id="RNC7cV8lwbOpFSMDOjC8-149" value="&lt;font style=&quot;font-size: 14px&quot; color=&quot;#3399ff&quot;&gt;A棟1F&lt;/font&gt;" style="text;html=1;resizable=0;points=[];autosize=1;align=left;verticalAlign=top;spacingTop=-4;" vertex="1" parent="RNC7cV8lwbOpFSMDOjC8-144">
          <mxGeometry x="52" y="626" width="60" height="20" as="geometry"/>
        </mxCell>
        <mxCell id="RNC7cV8lwbOpFSMDOjC8-150" value="&lt;font style=&quot;font-size: 14px&quot; color=&quot;#3399ff&quot;&gt;A棟&lt;/font&gt;" style="text;html=1;resizable=0;points=[];autosize=1;align=left;verticalAlign=top;spacingTop=-4;" vertex="1" parent="RNC7cV8lwbOpFSMDOjC8-144">
          <mxGeometry x="122" y="756" width="40" height="20" as="geometry"/>
        </mxCell>
        <mxCell id="RNC7cV8lwbOpFSMDOjC8-151" value="&lt;font style=&quot;font-size: 14px&quot; color=&quot;#3399ff&quot;&gt;B棟4F&lt;/font&gt;" style="text;html=1;resizable=0;points=[];autosize=1;align=left;verticalAlign=top;spacingTop=-4;" vertex="1" parent="RNC7cV8lwbOpFSMDOjC8-144">
          <mxGeometry x="282" y="270" width="60" height="20" as="geometry"/>
        </mxCell>
        <mxCell id="RNC7cV8lwbOpFSMDOjC8-152" value="&lt;font style=&quot;font-size: 14px&quot; color=&quot;#3399ff&quot;&gt;B棟3F&lt;/font&gt;" style="text;html=1;resizable=0;points=[];autosize=1;align=left;verticalAlign=top;spacingTop=-4;" vertex="1" parent="RNC7cV8lwbOpFSMDOjC8-144">
          <mxGeometry x="282" y="390" width="60" height="20" as="geometry"/>
        </mxCell>
        <mxCell id="RNC7cV8lwbOpFSMDOjC8-153" value="&lt;font style=&quot;font-size: 14px&quot; color=&quot;#3399ff&quot;&gt;B棟2F&lt;/font&gt;" style="text;html=1;resizable=0;points=[];autosize=1;align=left;verticalAlign=top;spacingTop=-4;" vertex="1" parent="RNC7cV8lwbOpFSMDOjC8-144">
          <mxGeometry x="282" y="510" width="60" height="20" as="geometry"/>
        </mxCell>
        <mxCell id="RNC7cV8lwbOpFSMDOjC8-154" value="&lt;font style=&quot;font-size: 14px&quot; color=&quot;#3399ff&quot;&gt;B棟1F&lt;/font&gt;" style="text;html=1;resizable=0;points=[];autosize=1;align=left;verticalAlign=top;spacingTop=-4;" vertex="1" parent="RNC7cV8lwbOpFSMDOjC8-144">
          <mxGeometry x="282" y="630" width="60" height="20" as="geometry"/>
        </mxCell>
        <mxCell id="RNC7cV8lwbOpFSMDOjC8-155" value="&lt;font style=&quot;font-size: 14px&quot; color=&quot;#3399ff&quot;&gt;B棟西側&lt;/font&gt;" style="text;html=1;resizable=0;points=[];autosize=1;align=left;verticalAlign=top;spacingTop=-4;" vertex="1" parent="RNC7cV8lwbOpFSMDOjC8-144">
          <mxGeometry x="342" y="760" width="70" height="20" as="geometry"/>
        </mxCell>
        <mxCell id="RNC7cV8lwbOpFSMDOjC8-156" value="&lt;font style=&quot;font-size: 14px&quot; color=&quot;#3399ff&quot;&gt;B棟1F&lt;/font&gt;" style="text;html=1;resizable=0;points=[];autosize=1;align=left;verticalAlign=top;spacingTop=-4;" vertex="1" parent="RNC7cV8lwbOpFSMDOjC8-144">
          <mxGeometry x="598" y="630" width="60" height="20" as="geometry"/>
        </mxCell>
        <mxCell id="RNC7cV8lwbOpFSMDOjC8-157" value="&lt;font style=&quot;font-size: 14px&quot; color=&quot;#3399ff&quot;&gt;B棟2F&lt;/font&gt;" style="text;html=1;resizable=0;points=[];autosize=1;align=left;verticalAlign=top;spacingTop=-4;" vertex="1" parent="RNC7cV8lwbOpFSMDOjC8-144">
          <mxGeometry x="598" y="510" width="60" height="20" as="geometry"/>
        </mxCell>
        <mxCell id="RNC7cV8lwbOpFSMDOjC8-158" value="&lt;font style=&quot;font-size: 14px&quot; color=&quot;#3399ff&quot;&gt;B棟3F&lt;/font&gt;" style="text;html=1;resizable=0;points=[];autosize=1;align=left;verticalAlign=top;spacingTop=-4;" vertex="1" parent="RNC7cV8lwbOpFSMDOjC8-144">
          <mxGeometry x="598" y="390" width="60" height="20" as="geometry"/>
        </mxCell>
        <mxCell id="RNC7cV8lwbOpFSMDOjC8-159" value="&lt;font style=&quot;font-size: 14px&quot; color=&quot;#3399ff&quot;&gt;B棟東側&lt;/font&gt;" style="text;html=1;resizable=0;points=[];autosize=1;align=left;verticalAlign=top;spacingTop=-4;" vertex="1" parent="RNC7cV8lwbOpFSMDOjC8-144">
          <mxGeometry x="548" y="754" width="70" height="20" as="geometry"/>
        </mxCell>
        <mxCell id="RNC7cV8lwbOpFSMDOjC8-160" value="&lt;font style=&quot;font-size: 24px&quot; color=&quot;#3399ff&quot;&gt;C202&lt;br&gt;機房&lt;/font&gt;" style="text;html=1;resizable=0;points=[];autosize=1;align=left;verticalAlign=top;spacingTop=-4;" vertex="1" parent="RNC7cV8lwbOpFSMDOjC8-144">
          <mxGeometry x="572" y="68" width="70" height="40" as="geometry"/>
        </mxCell>
        <mxCell id="RNC7cV8lwbOpFSMDOjC8-161" value="&lt;font style=&quot;font-size: 14px&quot; color=&quot;#3399ff&quot;&gt;C204圖書室&lt;/font&gt;" style="text;html=1;resizable=0;points=[];autosize=1;align=left;verticalAlign=top;spacingTop=-4;" vertex="1" parent="RNC7cV8lwbOpFSMDOjC8-144">
          <mxGeometry x="728" y="544" width="90" height="20" as="geometry"/>
        </mxCell>
        <mxCell id="RNC7cV8lwbOpFSMDOjC8-162" value="&lt;font style=&quot;font-size: 24px&quot; color=&quot;#3399ff&quot;&gt;禮堂&lt;/font&gt;" style="text;html=1;resizable=0;points=[];autosize=1;align=left;verticalAlign=top;spacingTop=-4;" vertex="1" parent="RNC7cV8lwbOpFSMDOjC8-144">
          <mxGeometry x="887" y="709" width="60" height="20" as="geometry"/>
        </mxCell>
        <mxCell id="RNC7cV8lwbOpFSMDOjC8-163" value="&lt;font style=&quot;font-size: 14px&quot; color=&quot;#3399ff&quot;&gt;D棟&lt;/font&gt;" style="text;html=1;resizable=0;points=[];autosize=1;align=left;verticalAlign=top;spacingTop=-4;" vertex="1" parent="RNC7cV8lwbOpFSMDOjC8-144">
          <mxGeometry x="1057" y="634" width="40" height="20" as="geometry"/>
        </mxCell>
        <mxCell id="RNC7cV8lwbOpFSMDOjC8-164" value="&lt;font style=&quot;font-size: 14px&quot; color=&quot;#3399ff&quot;&gt;C201電腦教室&lt;/font&gt;" style="text;html=1;resizable=0;points=[];autosize=1;align=left;verticalAlign=top;spacingTop=-4;" vertex="1" parent="RNC7cV8lwbOpFSMDOjC8-144">
          <mxGeometry x="820" y="360" width="110" height="20" as="geometry"/>
        </mxCell>
        <mxCell id="RNC7cV8lwbOpFSMDOjC8-165" value="&lt;font style=&quot;font-size: 14px&quot; color=&quot;#3399ff&quot;&gt;B401電腦教室&lt;/font&gt;" style="text;html=1;resizable=0;points=[];autosize=1;align=left;verticalAlign=top;spacingTop=-4;" vertex="1" parent="RNC7cV8lwbOpFSMDOjC8-144">
          <mxGeometry x="588" y="328" width="100" height="20" as="geometry"/>
        </mxCell>
      </root>
    </mxGraphModel>
  </diagram>
  <diagram name="校園平面圖" id="eK9UtsrOLd-mhuVtBH5O">
    <mxGraphModel dx="1536" dy="928" grid="1" gridSize="5" guides="1" tooltips="1" connect="1" arrows="1" fold="1" page="1" pageScale="1" pageWidth="1169" pageHeight="827" math="0" shadow="0">
      <root>
        <mxCell id="4dQ_Ar_KYTVlsJJxF_Cd-0"/>
        <mxCell id="4dQ_Ar_KYTVlsJJxF_Cd-1" style="locked=1;" parent="4dQ_Ar_KYTVlsJJxF_Cd-0"/>
        <mxCell id="4dQ_Ar_KYTVlsJJxF_Cd-83" value="" style="group" parent="4dQ_Ar_KYTVlsJJxF_Cd-1" vertex="1" connectable="0">
          <mxGeometry x="374.99999999999994" y="360" width="640" height="318.7105263157895" as="geometry"/>
        </mxCell>
        <mxCell id="4dQ_Ar_KYTVlsJJxF_Cd-51" value="&lt;font style=&quot;font-size: 16px;&quot;&gt;廁所&lt;/font&gt;" style="rounded=0;whiteSpace=wrap;html=1;fontSize=16;" parent="4dQ_Ar_KYTVlsJJxF_Cd-83" vertex="1">
          <mxGeometry x="40.00000000000006" y="132.63157894736844" width="49.99999999999999" height="44.21052631578948" as="geometry"/>
        </mxCell>
        <mxCell id="4dQ_Ar_KYTVlsJJxF_Cd-52" value="&lt;font style=&quot;font-size: 16px;&quot;&gt;廁所&lt;/font&gt;" style="rounded=0;whiteSpace=wrap;html=1;fontSize=16;" parent="4dQ_Ar_KYTVlsJJxF_Cd-83" vertex="1">
          <mxGeometry x="40.00000000000006" y="88.42105263157896" width="49.99999999999999" height="44.21052631578948" as="geometry"/>
        </mxCell>
        <mxCell id="4dQ_Ar_KYTVlsJJxF_Cd-53" value="&lt;font style=&quot;font-size: 16px;&quot;&gt;廁所&lt;/font&gt;" style="rounded=0;whiteSpace=wrap;html=1;fontSize=16;" parent="4dQ_Ar_KYTVlsJJxF_Cd-83" vertex="1">
          <mxGeometry x="40.00000000000006" y="44.21052631578948" width="49.99999999999999" height="44.21052631578948" as="geometry"/>
        </mxCell>
        <mxCell id="4dQ_Ar_KYTVlsJJxF_Cd-54" value="&lt;font style=&quot;font-size: 16px;&quot;&gt;廁所&lt;/font&gt;" style="rounded=0;whiteSpace=wrap;html=1;fontSize=16;" parent="4dQ_Ar_KYTVlsJJxF_Cd-83" vertex="1">
          <mxGeometry x="40.00000000000006" width="49.99999999999999" height="44.21052631578948" as="geometry"/>
        </mxCell>
        <mxCell id="4dQ_Ar_KYTVlsJJxF_Cd-55" value="&lt;font style=&quot;font-size: 16px&quot;&gt;舞蹈教室&lt;br&gt;B105&lt;br&gt;&lt;/font&gt;" style="rounded=0;whiteSpace=wrap;html=1;fontSize=16;" parent="4dQ_Ar_KYTVlsJJxF_Cd-83" vertex="1">
          <mxGeometry x="90.00000000000006" y="133.5" width="240" height="44" as="geometry"/>
        </mxCell>
        <mxCell id="4dQ_Ar_KYTVlsJJxF_Cd-57" value="&lt;font style=&quot;font-size: 16px&quot;&gt;教室&lt;br&gt;B204&lt;br&gt;&lt;/font&gt;" style="rounded=0;whiteSpace=wrap;html=1;fontSize=16;" parent="4dQ_Ar_KYTVlsJJxF_Cd-83" vertex="1">
          <mxGeometry x="90.00000000000006" y="89.13157894736844" width="159.99999999999997" height="44.21052631578948" as="geometry"/>
        </mxCell>
        <mxCell id="4dQ_Ar_KYTVlsJJxF_Cd-58" value="&lt;font style=&quot;font-size: 16px&quot;&gt;教室&lt;br&gt;B203&lt;br&gt;&lt;/font&gt;" style="rounded=0;whiteSpace=wrap;html=1;fontSize=16;" parent="4dQ_Ar_KYTVlsJJxF_Cd-83" vertex="1">
          <mxGeometry x="250.00000000000006" y="89.13157894736844" width="79.99999999999999" height="44.21052631578948" as="geometry"/>
        </mxCell>
        <mxCell id="4dQ_Ar_KYTVlsJJxF_Cd-59" value="&lt;font style=&quot;font-size: 16px&quot;&gt;教室&lt;br&gt;B305&lt;br&gt;&lt;/font&gt;" style="rounded=0;whiteSpace=wrap;html=1;fontSize=16;" parent="4dQ_Ar_KYTVlsJJxF_Cd-83" vertex="1">
          <mxGeometry x="90.00000000000006" y="45.13157894736844" width="159.99999999999997" height="44.21052631578948" as="geometry"/>
        </mxCell>
        <mxCell id="4dQ_Ar_KYTVlsJJxF_Cd-60" value="&lt;font style=&quot;font-size: 16px&quot;&gt;教室&lt;br&gt;B304&lt;br&gt;&lt;/font&gt;" style="rounded=0;whiteSpace=wrap;html=1;fontSize=16;" parent="4dQ_Ar_KYTVlsJJxF_Cd-83" vertex="1">
          <mxGeometry x="250.00000000000006" y="45.13157894736844" width="79.99999999999999" height="44.21052631578948" as="geometry"/>
        </mxCell>
        <mxCell id="4dQ_Ar_KYTVlsJJxF_Cd-61" value="&lt;font style=&quot;font-size: 16px&quot;&gt;理化實驗教室&lt;br&gt;B404&lt;br&gt;&lt;/font&gt;" style="rounded=0;whiteSpace=wrap;html=1;fontSize=16;" parent="4dQ_Ar_KYTVlsJJxF_Cd-83" vertex="1">
          <mxGeometry x="90.00000000000006" y="0.5" width="240" height="44" as="geometry"/>
        </mxCell>
        <mxCell id="4dQ_Ar_KYTVlsJJxF_Cd-65" value="" style="verticalLabelPosition=bottom;html=1;verticalAlign=top;align=center;shape=mxgraph.floorplan.stairs;direction=south;fontSize=16;" parent="4dQ_Ar_KYTVlsJJxF_Cd-83" vertex="1">
          <mxGeometry x="330.00000000000006" y="0.5" width="40" height="204" as="geometry"/>
        </mxCell>
        <mxCell id="4dQ_Ar_KYTVlsJJxF_Cd-66" value="教室&lt;br&gt;B104" style="rounded=0;whiteSpace=wrap;html=1;fontSize=16;" parent="4dQ_Ar_KYTVlsJJxF_Cd-83" vertex="1">
          <mxGeometry x="370.00000000000006" y="132.63157894736844" width="79.99999999999999" height="44.21052631578948" as="geometry"/>
        </mxCell>
        <mxCell id="4dQ_Ar_KYTVlsJJxF_Cd-67" value="教室&lt;br&gt;B103" style="rounded=0;whiteSpace=wrap;html=1;fontSize=16;" parent="4dQ_Ar_KYTVlsJJxF_Cd-83" vertex="1">
          <mxGeometry x="450.00000000000006" y="132.63157894736844" width="79.99999999999999" height="44.21052631578948" as="geometry"/>
        </mxCell>
        <mxCell id="4dQ_Ar_KYTVlsJJxF_Cd-68" value="輔導室&lt;br&gt;B202" style="rounded=0;whiteSpace=wrap;html=1;fontSize=16;" parent="4dQ_Ar_KYTVlsJJxF_Cd-83" vertex="1">
          <mxGeometry x="370.00000000000006" y="88.5" width="160" height="44" as="geometry"/>
        </mxCell>
        <mxCell id="4dQ_Ar_KYTVlsJJxF_Cd-70" value="教室&lt;br&gt;B303" style="rounded=0;whiteSpace=wrap;html=1;fontSize=16;" parent="4dQ_Ar_KYTVlsJJxF_Cd-83" vertex="1">
          <mxGeometry x="370.00000000000006" y="44.21052631578948" width="79.99999999999999" height="44.21052631578948" as="geometry"/>
        </mxCell>
        <mxCell id="4dQ_Ar_KYTVlsJJxF_Cd-71" value="教室&lt;br&gt;B302" style="rounded=0;whiteSpace=wrap;html=1;fontSize=16;" parent="4dQ_Ar_KYTVlsJJxF_Cd-83" vertex="1">
          <mxGeometry x="450.00000000000006" y="44.21052631578948" width="79.99999999999999" height="44.21052631578948" as="geometry"/>
        </mxCell>
        <mxCell id="4dQ_Ar_KYTVlsJJxF_Cd-72" value="教室&lt;br&gt;B403" style="rounded=0;whiteSpace=wrap;html=1;fontSize=16;" parent="4dQ_Ar_KYTVlsJJxF_Cd-83" vertex="1">
          <mxGeometry x="370.00000000000006" width="79.99999999999999" height="44.21052631578948" as="geometry"/>
        </mxCell>
        <mxCell id="4dQ_Ar_KYTVlsJJxF_Cd-73" value="教室&lt;br&gt;B402" style="rounded=0;whiteSpace=wrap;html=1;fontSize=16;" parent="4dQ_Ar_KYTVlsJJxF_Cd-83" vertex="1">
          <mxGeometry x="450.00000000000006" width="79.99999999999999" height="44.21052631578948" as="geometry"/>
        </mxCell>
        <mxCell id="4dQ_Ar_KYTVlsJJxF_Cd-74" value="" style="verticalLabelPosition=bottom;html=1;verticalAlign=top;align=center;shape=mxgraph.floorplan.stairs;direction=south;fontSize=16;" parent="4dQ_Ar_KYTVlsJJxF_Cd-83" vertex="1">
          <mxGeometry x="530" width="40" height="204" as="geometry"/>
        </mxCell>
        <mxCell id="4dQ_Ar_KYTVlsJJxF_Cd-75" value="學習中心&lt;br&gt;B102" style="rounded=0;whiteSpace=wrap;html=1;fontSize=16;" parent="4dQ_Ar_KYTVlsJJxF_Cd-83" vertex="1">
          <mxGeometry x="550" y="198.5" width="45" height="88" as="geometry"/>
        </mxCell>
        <mxCell id="4dQ_Ar_KYTVlsJJxF_Cd-76" value="教室&lt;br&gt;B201" style="rounded=0;whiteSpace=wrap;html=1;fontSize=16;" parent="4dQ_Ar_KYTVlsJJxF_Cd-83" vertex="1">
          <mxGeometry x="550" y="154.5" width="90" height="44" as="geometry"/>
        </mxCell>
        <mxCell id="4dQ_Ar_KYTVlsJJxF_Cd-77" value="教室&lt;br&gt;B301" style="rounded=0;whiteSpace=wrap;html=1;fontSize=16;" parent="4dQ_Ar_KYTVlsJJxF_Cd-83" vertex="1">
          <mxGeometry x="550" y="110.5" width="90" height="44" as="geometry"/>
        </mxCell>
        <mxCell id="4dQ_Ar_KYTVlsJJxF_Cd-78" value="資訊教室&lt;br&gt;B401" style="rounded=0;whiteSpace=wrap;html=1;fontSize=16;" parent="4dQ_Ar_KYTVlsJJxF_Cd-83" vertex="1">
          <mxGeometry x="550" y="66.5" width="90" height="44" as="geometry"/>
        </mxCell>
        <mxCell id="4dQ_Ar_KYTVlsJJxF_Cd-79" value="學習中心&lt;br&gt;B101" style="rounded=0;whiteSpace=wrap;html=1;fontSize=16;" parent="4dQ_Ar_KYTVlsJJxF_Cd-83" vertex="1">
          <mxGeometry x="595" y="198.5" width="45" height="88" as="geometry"/>
        </mxCell>
        <mxCell id="0z2dit9m4dIWVE-Us7l9-68" value="&lt;font style=&quot;font-size: 18px&quot;&gt;1F&lt;/font&gt;" style="text;html=1;strokeColor=none;fillColor=none;align=center;verticalAlign=middle;whiteSpace=wrap;rounded=0;" parent="4dQ_Ar_KYTVlsJJxF_Cd-83" vertex="1">
          <mxGeometry x="5.684341886080802e-14" y="145" width="40" height="22" as="geometry"/>
        </mxCell>
        <mxCell id="0z2dit9m4dIWVE-Us7l9-69" value="&lt;font style=&quot;font-size: 18px&quot;&gt;2F&lt;/font&gt;" style="text;html=1;strokeColor=none;fillColor=none;align=center;verticalAlign=middle;whiteSpace=wrap;rounded=0;" parent="4dQ_Ar_KYTVlsJJxF_Cd-83" vertex="1">
          <mxGeometry x="5.684341886080802e-14" y="100" width="40" height="22" as="geometry"/>
        </mxCell>
        <mxCell id="0z2dit9m4dIWVE-Us7l9-70" value="&lt;font style=&quot;font-size: 18px&quot;&gt;3F&lt;/font&gt;" style="text;html=1;strokeColor=none;fillColor=none;align=center;verticalAlign=middle;whiteSpace=wrap;rounded=0;" parent="4dQ_Ar_KYTVlsJJxF_Cd-83" vertex="1">
          <mxGeometry x="5.684341886080802e-14" y="55" width="40" height="22" as="geometry"/>
        </mxCell>
        <mxCell id="0z2dit9m4dIWVE-Us7l9-71" value="&lt;font style=&quot;font-size: 18px&quot;&gt;4F&lt;/font&gt;" style="text;html=1;strokeColor=none;fillColor=none;align=center;verticalAlign=middle;whiteSpace=wrap;rounded=0;" parent="4dQ_Ar_KYTVlsJJxF_Cd-83" vertex="1">
          <mxGeometry x="5.684341886080802e-14" y="10" width="40" height="22" as="geometry"/>
        </mxCell>
        <mxCell id="4dQ_Ar_KYTVlsJJxF_Cd-85" value="" style="group" parent="4dQ_Ar_KYTVlsJJxF_Cd-1" vertex="1" connectable="0">
          <mxGeometry x="150" y="590" width="749.9999999999999" height="210" as="geometry"/>
        </mxCell>
        <mxCell id="4dQ_Ar_KYTVlsJJxF_Cd-84" value="" style="group" parent="4dQ_Ar_KYTVlsJJxF_Cd-85" vertex="1" connectable="0">
          <mxGeometry width="749.9999999999999" height="210" as="geometry"/>
        </mxCell>
        <mxCell id="4dQ_Ar_KYTVlsJJxF_Cd-2" value="&lt;font style=&quot;font-size: 16px&quot;&gt;視聽教室&lt;br&gt;A105&lt;br&gt;&lt;/font&gt;" style="rounded=0;whiteSpace=wrap;html=1;fontSize=16;" parent="4dQ_Ar_KYTVlsJJxF_Cd-84" vertex="1">
          <mxGeometry x="90" y="132.63157894736844" width="159.99999999999997" height="44.21052631578948" as="geometry"/>
        </mxCell>
        <mxCell id="4dQ_Ar_KYTVlsJJxF_Cd-4" value="&lt;font style=&quot;font-size: 16px&quot;&gt;檔案室&lt;br&gt;A104&lt;br&gt;&lt;/font&gt;" style="rounded=0;whiteSpace=wrap;html=1;fontSize=16;" parent="4dQ_Ar_KYTVlsJJxF_Cd-84" vertex="1">
          <mxGeometry x="250" y="132.63157894736844" width="79.99999999999999" height="44.21052631578948" as="geometry"/>
        </mxCell>
        <mxCell id="4dQ_Ar_KYTVlsJJxF_Cd-6" value="教務處&lt;br&gt;A103" style="rounded=0;whiteSpace=wrap;html=1;fontSize=16;" parent="4dQ_Ar_KYTVlsJJxF_Cd-84" vertex="1">
          <mxGeometry x="419.99999999999994" y="132.63157894736844" width="79.99999999999999" height="44.21052631578948" as="geometry"/>
        </mxCell>
        <mxCell id="4dQ_Ar_KYTVlsJJxF_Cd-7" value="學務處&lt;br&gt;A101" style="rounded=0;whiteSpace=wrap;html=1;fontSize=16;" parent="4dQ_Ar_KYTVlsJJxF_Cd-84" vertex="1">
          <mxGeometry x="579.9999999999999" y="132.63157894736844" width="79.99999999999999" height="44.21052631578948" as="geometry"/>
        </mxCell>
        <mxCell id="4dQ_Ar_KYTVlsJJxF_Cd-8" value="保健室&lt;br&gt;A102" style="rounded=0;whiteSpace=wrap;html=1;fontSize=16;" parent="4dQ_Ar_KYTVlsJJxF_Cd-84" vertex="1">
          <mxGeometry x="500" y="132.63157894736844" width="79.99999999999999" height="44.21052631578948" as="geometry"/>
        </mxCell>
        <mxCell id="4dQ_Ar_KYTVlsJJxF_Cd-9" value="&lt;font style=&quot;font-size: 16px;&quot;&gt;廁所&lt;/font&gt;" style="rounded=0;whiteSpace=wrap;html=1;fontSize=16;" parent="4dQ_Ar_KYTVlsJJxF_Cd-84" vertex="1">
          <mxGeometry y="132.63157894736844" width="49.99999999999999" height="44.21052631578948" as="geometry"/>
        </mxCell>
        <mxCell id="4dQ_Ar_KYTVlsJJxF_Cd-10" value="&lt;font style=&quot;font-size: 16px;&quot;&gt;廁所&lt;/font&gt;" style="rounded=0;whiteSpace=wrap;html=1;fontSize=16;" parent="4dQ_Ar_KYTVlsJJxF_Cd-84" vertex="1">
          <mxGeometry x="699.9999999999999" y="132.63157894736844" width="49.99999999999999" height="44.21052631578948" as="geometry"/>
        </mxCell>
        <mxCell id="4dQ_Ar_KYTVlsJJxF_Cd-11" value="教室&lt;br&gt;A207" style="rounded=0;whiteSpace=wrap;html=1;fontSize=16;" parent="4dQ_Ar_KYTVlsJJxF_Cd-84" vertex="1">
          <mxGeometry x="90" y="88.42105263157896" width="79.99999999999999" height="44.21052631578948" as="geometry"/>
        </mxCell>
        <mxCell id="4dQ_Ar_KYTVlsJJxF_Cd-12" value="教室&lt;br&gt;A206" style="rounded=0;whiteSpace=wrap;html=1;fontSize=16;" parent="4dQ_Ar_KYTVlsJJxF_Cd-84" vertex="1">
          <mxGeometry x="170" y="88.42105263157896" width="79.99999999999999" height="44.21052631578948" as="geometry"/>
        </mxCell>
        <mxCell id="4dQ_Ar_KYTVlsJJxF_Cd-13" value="教室&lt;br&gt;A205" style="rounded=0;whiteSpace=wrap;html=1;fontSize=16;" parent="4dQ_Ar_KYTVlsJJxF_Cd-84" vertex="1">
          <mxGeometry x="250" y="88.42105263157896" width="79.99999999999999" height="44.21052631578948" as="geometry"/>
        </mxCell>
        <mxCell id="4dQ_Ar_KYTVlsJJxF_Cd-14" value="辦公室&lt;br&gt;A204" style="rounded=0;whiteSpace=wrap;html=1;fontSize=16;" parent="4dQ_Ar_KYTVlsJJxF_Cd-84" vertex="1">
          <mxGeometry x="329.99999999999994" y="88.42105263157896" width="89.99999999999999" height="44.21052631578948" as="geometry"/>
        </mxCell>
        <mxCell id="4dQ_Ar_KYTVlsJJxF_Cd-15" value="教室&lt;br&gt;A203" style="rounded=0;whiteSpace=wrap;html=1;fontSize=16;" parent="4dQ_Ar_KYTVlsJJxF_Cd-84" vertex="1">
          <mxGeometry x="419.99999999999994" y="88.42105263157896" width="79.99999999999999" height="44.21052631578948" as="geometry"/>
        </mxCell>
        <mxCell id="4dQ_Ar_KYTVlsJJxF_Cd-16" value="教室&lt;br&gt;A201" style="rounded=0;whiteSpace=wrap;html=1;fontSize=16;" parent="4dQ_Ar_KYTVlsJJxF_Cd-84" vertex="1">
          <mxGeometry x="579.9999999999999" y="88.42105263157896" width="79.99999999999999" height="44.21052631578948" as="geometry"/>
        </mxCell>
        <mxCell id="4dQ_Ar_KYTVlsJJxF_Cd-17" value="教室&lt;br&gt;A202" style="rounded=0;whiteSpace=wrap;html=1;fontSize=16;" parent="4dQ_Ar_KYTVlsJJxF_Cd-84" vertex="1">
          <mxGeometry x="500" y="88.42105263157896" width="79.99999999999999" height="44.21052631578948" as="geometry"/>
        </mxCell>
        <mxCell id="4dQ_Ar_KYTVlsJJxF_Cd-18" value="&lt;font style=&quot;font-size: 16px;&quot;&gt;廁所&lt;/font&gt;" style="rounded=0;whiteSpace=wrap;html=1;fontSize=16;" parent="4dQ_Ar_KYTVlsJJxF_Cd-84" vertex="1">
          <mxGeometry y="88.42105263157896" width="49.99999999999999" height="44.21052631578948" as="geometry"/>
        </mxCell>
        <mxCell id="4dQ_Ar_KYTVlsJJxF_Cd-19" value="&lt;font style=&quot;font-size: 16px;&quot;&gt;廁所&lt;/font&gt;" style="rounded=0;whiteSpace=wrap;html=1;fontSize=16;" parent="4dQ_Ar_KYTVlsJJxF_Cd-84" vertex="1">
          <mxGeometry x="699.9999999999999" y="88.42105263157896" width="49.99999999999999" height="44.21052631578948" as="geometry"/>
        </mxCell>
        <mxCell id="4dQ_Ar_KYTVlsJJxF_Cd-21" value="教室&lt;br&gt;A307" style="rounded=0;whiteSpace=wrap;html=1;fontSize=16;" parent="4dQ_Ar_KYTVlsJJxF_Cd-84" vertex="1">
          <mxGeometry x="90" y="44.21052631578948" width="79.99999999999999" height="44.21052631578948" as="geometry"/>
        </mxCell>
        <mxCell id="4dQ_Ar_KYTVlsJJxF_Cd-22" value="教室&lt;br&gt;A306" style="rounded=0;whiteSpace=wrap;html=1;fontSize=16;" parent="4dQ_Ar_KYTVlsJJxF_Cd-84" vertex="1">
          <mxGeometry x="170" y="44.21052631578948" width="79.99999999999999" height="44.21052631578948" as="geometry"/>
        </mxCell>
        <mxCell id="4dQ_Ar_KYTVlsJJxF_Cd-23" value="教室&lt;br&gt;A305" style="rounded=0;whiteSpace=wrap;html=1;fontSize=16;" parent="4dQ_Ar_KYTVlsJJxF_Cd-84" vertex="1">
          <mxGeometry x="249.68354430379748" y="44.21052631578948" width="79.74683544303797" height="44.21052631578948" as="geometry"/>
        </mxCell>
        <mxCell id="4dQ_Ar_KYTVlsJJxF_Cd-24" value="辦公室&lt;br&gt;A304" style="rounded=0;whiteSpace=wrap;html=1;fontSize=16;" parent="4dQ_Ar_KYTVlsJJxF_Cd-84" vertex="1">
          <mxGeometry x="329.99999999999994" y="44.21052631578948" width="89.99999999999999" height="44.21052631578948" as="geometry"/>
        </mxCell>
        <mxCell id="4dQ_Ar_KYTVlsJJxF_Cd-25" value="教室&lt;br&gt;A303" style="rounded=0;whiteSpace=wrap;html=1;fontSize=16;" parent="4dQ_Ar_KYTVlsJJxF_Cd-84" vertex="1">
          <mxGeometry x="419.99999999999994" y="44.21052631578948" width="79.99999999999999" height="44.21052631578948" as="geometry"/>
        </mxCell>
        <mxCell id="4dQ_Ar_KYTVlsJJxF_Cd-26" value="教室&lt;br&gt;A301" style="rounded=0;whiteSpace=wrap;html=1;fontSize=16;" parent="4dQ_Ar_KYTVlsJJxF_Cd-84" vertex="1">
          <mxGeometry x="579.9999999999999" y="44.21052631578948" width="79.99999999999999" height="44.21052631578948" as="geometry"/>
        </mxCell>
        <mxCell id="4dQ_Ar_KYTVlsJJxF_Cd-27" value="教室&lt;br&gt;A302" style="rounded=0;whiteSpace=wrap;html=1;fontSize=16;" parent="4dQ_Ar_KYTVlsJJxF_Cd-84" vertex="1">
          <mxGeometry x="500" y="44.21052631578948" width="79.99999999999999" height="44.21052631578948" as="geometry"/>
        </mxCell>
        <mxCell id="4dQ_Ar_KYTVlsJJxF_Cd-28" value="&lt;font style=&quot;font-size: 16px;&quot;&gt;廁所&lt;/font&gt;" style="rounded=0;whiteSpace=wrap;html=1;fontSize=16;" parent="4dQ_Ar_KYTVlsJJxF_Cd-84" vertex="1">
          <mxGeometry y="44.21052631578948" width="49.99999999999999" height="44.21052631578948" as="geometry"/>
        </mxCell>
        <mxCell id="4dQ_Ar_KYTVlsJJxF_Cd-29" value="&lt;font style=&quot;font-size: 16px;&quot;&gt;廁所&lt;/font&gt;" style="rounded=0;whiteSpace=wrap;html=1;fontSize=16;" parent="4dQ_Ar_KYTVlsJJxF_Cd-84" vertex="1">
          <mxGeometry x="699.9999999999999" y="44.21052631578948" width="49.99999999999999" height="44.21052631578948" as="geometry"/>
        </mxCell>
        <mxCell id="4dQ_Ar_KYTVlsJJxF_Cd-37" value="&lt;font style=&quot;font-size: 16px;&quot;&gt;廁所&lt;/font&gt;" style="rounded=0;whiteSpace=wrap;html=1;fontSize=16;" parent="4dQ_Ar_KYTVlsJJxF_Cd-84" vertex="1">
          <mxGeometry width="49.99999999999999" height="44.21052631578948" as="geometry"/>
        </mxCell>
        <mxCell id="4dQ_Ar_KYTVlsJJxF_Cd-39" value="" style="verticalLabelPosition=bottom;html=1;verticalAlign=top;align=center;shape=mxgraph.floorplan.stairs;direction=south;fontSize=16;" parent="4dQ_Ar_KYTVlsJJxF_Cd-84" vertex="1">
          <mxGeometry x="50" width="39.99999999999999" height="210.00000000000003" as="geometry"/>
        </mxCell>
        <mxCell id="4dQ_Ar_KYTVlsJJxF_Cd-40" value="" style="verticalLabelPosition=bottom;html=1;verticalAlign=top;align=center;shape=mxgraph.floorplan.stairs;direction=south;fontSize=16;" parent="4dQ_Ar_KYTVlsJJxF_Cd-84" vertex="1">
          <mxGeometry x="659.9999999999999" width="39.99999999999999" height="210.00000000000003" as="geometry"/>
        </mxCell>
        <mxCell id="4dQ_Ar_KYTVlsJJxF_Cd-41" value="川堂" style="text;html=1;align=center;verticalAlign=middle;resizable=0;points=[];;autosize=1;fontSize=16;" parent="4dQ_Ar_KYTVlsJJxF_Cd-84" vertex="1">
          <mxGeometry x="349.99999999999994" y="154.73684210526312" width="50" height="20" as="geometry"/>
        </mxCell>
        <mxCell id="4dQ_Ar_KYTVlsJJxF_Cd-43" value="教室&lt;br&gt;A407" style="rounded=0;whiteSpace=wrap;html=1;fontSize=16;" parent="4dQ_Ar_KYTVlsJJxF_Cd-84" vertex="1">
          <mxGeometry x="90" width="79.99999999999999" height="44.21052631578948" as="geometry"/>
        </mxCell>
        <mxCell id="4dQ_Ar_KYTVlsJJxF_Cd-44" value="教室&lt;br&gt;A406" style="rounded=0;whiteSpace=wrap;html=1;fontSize=16;" parent="4dQ_Ar_KYTVlsJJxF_Cd-84" vertex="1">
          <mxGeometry x="170" width="79.99999999999999" height="44.21052631578948" as="geometry"/>
        </mxCell>
        <mxCell id="4dQ_Ar_KYTVlsJJxF_Cd-45" value="教室&lt;br&gt;A405" style="rounded=0;whiteSpace=wrap;html=1;fontSize=16;" parent="4dQ_Ar_KYTVlsJJxF_Cd-84" vertex="1">
          <mxGeometry x="250" width="79.99999999999999" height="44.21052631578948" as="geometry"/>
        </mxCell>
        <mxCell id="4dQ_Ar_KYTVlsJJxF_Cd-38" value="&lt;font style=&quot;font-size: 16px;&quot;&gt;廁所&lt;/font&gt;" style="rounded=0;whiteSpace=wrap;html=1;fontSize=16;" parent="4dQ_Ar_KYTVlsJJxF_Cd-84" vertex="1">
          <mxGeometry x="699.9999999999999" width="49.99999999999999" height="44.21052631578948" as="geometry"/>
        </mxCell>
        <mxCell id="4dQ_Ar_KYTVlsJJxF_Cd-46" value="辦公室&lt;br&gt;A404" style="rounded=0;whiteSpace=wrap;html=1;fontSize=16;" parent="4dQ_Ar_KYTVlsJJxF_Cd-84" vertex="1">
          <mxGeometry x="329.99999999999994" width="89.99999999999999" height="44.21052631578948" as="geometry"/>
        </mxCell>
        <mxCell id="4dQ_Ar_KYTVlsJJxF_Cd-47" value="教室&lt;br&gt;A403" style="rounded=0;whiteSpace=wrap;html=1;fontSize=16;" parent="4dQ_Ar_KYTVlsJJxF_Cd-84" vertex="1">
          <mxGeometry x="419.99999999999994" width="79.99999999999999" height="44.21052631578948" as="geometry"/>
        </mxCell>
        <mxCell id="4dQ_Ar_KYTVlsJJxF_Cd-48" value="教室&lt;br&gt;A401" style="rounded=0;whiteSpace=wrap;html=1;fontSize=16;" parent="4dQ_Ar_KYTVlsJJxF_Cd-84" vertex="1">
          <mxGeometry x="579.9999999999999" width="79.99999999999999" height="44.21052631578948" as="geometry"/>
        </mxCell>
        <mxCell id="4dQ_Ar_KYTVlsJJxF_Cd-49" value="教室&lt;br&gt;A402" style="rounded=0;whiteSpace=wrap;html=1;fontSize=16;" parent="4dQ_Ar_KYTVlsJJxF_Cd-84" vertex="1">
          <mxGeometry x="500" width="79.99999999999999" height="44.21052631578948" as="geometry"/>
        </mxCell>
        <mxCell id="0z2dit9m4dIWVE-Us7l9-28" value="" style="group" parent="4dQ_Ar_KYTVlsJJxF_Cd-1" vertex="1" connectable="0">
          <mxGeometry x="400" y="195" width="570" height="130" as="geometry"/>
        </mxCell>
        <mxCell id="0z2dit9m4dIWVE-Us7l9-0" value="&lt;font style=&quot;font-size: 16px&quot;&gt;體適能教室&lt;br&gt;C103&lt;br&gt;&lt;/font&gt;" style="rounded=0;whiteSpace=wrap;html=1;fontSize=16;" parent="0z2dit9m4dIWVE-Us7l9-28" vertex="1">
          <mxGeometry x="93.27272727272728" y="81.92294719484316" width="145.0909090909091" height="40.915189446464055" as="geometry"/>
        </mxCell>
        <mxCell id="0z2dit9m4dIWVE-Us7l9-1" value="&lt;font style=&quot;font-size: 16px&quot;&gt;烘焙教室&lt;br&gt;C102&lt;br&gt;&lt;/font&gt;" style="rounded=0;whiteSpace=wrap;html=1;fontSize=16;" parent="0z2dit9m4dIWVE-Us7l9-28" vertex="1">
          <mxGeometry x="238.36363636363637" y="81.92294719484316" width="82.9090909090909" height="40.915189446464055" as="geometry"/>
        </mxCell>
        <mxCell id="0z2dit9m4dIWVE-Us7l9-2" value="&lt;font style=&quot;font-size: 16px;&quot;&gt;廁所&lt;/font&gt;" style="rounded=0;whiteSpace=wrap;html=1;fontSize=16;" parent="0z2dit9m4dIWVE-Us7l9-28" vertex="1">
          <mxGeometry y="82.04474759209988" width="51.81818181818181" height="40.9249334782446" as="geometry"/>
        </mxCell>
        <mxCell id="0z2dit9m4dIWVE-Us7l9-3" value="圖書室&lt;br&gt;C204" style="rounded=0;whiteSpace=wrap;html=1;fontSize=16;" parent="0z2dit9m4dIWVE-Us7l9-28" vertex="1">
          <mxGeometry x="93.27272727272728" y="41.65573586178463" width="145.0909090909091" height="40.915189446464055" as="geometry"/>
        </mxCell>
        <mxCell id="0z2dit9m4dIWVE-Us7l9-7" value="&lt;font style=&quot;font-size: 16px;&quot;&gt;廁所&lt;/font&gt;" style="rounded=0;whiteSpace=wrap;html=1;fontSize=16;" parent="0z2dit9m4dIWVE-Us7l9-28" vertex="1">
          <mxGeometry y="41.11981411385529" width="51.81818181818181" height="40.9249334782446" as="geometry"/>
        </mxCell>
        <mxCell id="0z2dit9m4dIWVE-Us7l9-8" value="生活科技教室&lt;br&gt;C303" style="rounded=0;whiteSpace=wrap;html=1;fontSize=16;" parent="0z2dit9m4dIWVE-Us7l9-28" vertex="1">
          <mxGeometry x="93.27272727272728" width="145.0909090909091" height="40.915189446464055" as="geometry"/>
        </mxCell>
        <mxCell id="0z2dit9m4dIWVE-Us7l9-12" value="&lt;font style=&quot;font-size: 16px;&quot;&gt;廁所&lt;/font&gt;" style="rounded=0;whiteSpace=wrap;html=1;fontSize=16;" parent="0z2dit9m4dIWVE-Us7l9-28" vertex="1">
          <mxGeometry y="0.19488063561069405" width="51.81818181818181" height="40.9249334782446" as="geometry"/>
        </mxCell>
        <mxCell id="0z2dit9m4dIWVE-Us7l9-14" value="" style="verticalLabelPosition=bottom;html=1;verticalAlign=top;align=center;shape=mxgraph.floorplan.stairs;direction=south;fontSize=16;" parent="0z2dit9m4dIWVE-Us7l9-28" vertex="1">
          <mxGeometry x="51.81818181818182" width="41.45454545454545" height="124.96720758535402" as="geometry"/>
        </mxCell>
        <mxCell id="0z2dit9m4dIWVE-Us7l9-15" value="川堂" style="text;html=1;align=center;verticalAlign=middle;resizable=0;points=[];;autosize=1;fontSize=16;" parent="0z2dit9m4dIWVE-Us7l9-28" vertex="1">
          <mxGeometry x="326.4545454545454" y="89.08481055353596" width="50" height="44.2" as="geometry"/>
        </mxCell>
        <mxCell id="0z2dit9m4dIWVE-Us7l9-20" value="會議室&lt;br&gt;C203" style="rounded=0;whiteSpace=wrap;html=1;fontSize=16;" parent="0z2dit9m4dIWVE-Us7l9-28" vertex="1">
          <mxGeometry x="238.36363636363637" y="41.6557358617847" width="82.9090909090909" height="40.915189446464055" as="geometry"/>
        </mxCell>
        <mxCell id="0z2dit9m4dIWVE-Us7l9-21" value="舞蹈教室&lt;br&gt;C302" style="rounded=0;whiteSpace=wrap;html=1;fontSize=16;" parent="0z2dit9m4dIWVE-Us7l9-28" vertex="1">
          <mxGeometry x="238.36363636363637" width="145.0909090909091" height="40.915189446464055" as="geometry"/>
        </mxCell>
        <mxCell id="0z2dit9m4dIWVE-Us7l9-22" value="教室&lt;br&gt;C301" style="rounded=0;whiteSpace=wrap;html=1;fontSize=16;" parent="0z2dit9m4dIWVE-Us7l9-28" vertex="1">
          <mxGeometry x="383.45454545454544" width="145.0909090909091" height="40.915189446464055" as="geometry"/>
        </mxCell>
        <mxCell id="0z2dit9m4dIWVE-Us7l9-23" value="設備室&lt;br&gt;C202" style="rounded=0;whiteSpace=wrap;html=1;fontSize=16;" parent="0z2dit9m4dIWVE-Us7l9-28" vertex="1">
          <mxGeometry x="321.27272727272725" y="41.65573586178459" width="62.18181818181818" height="40.915189446464055" as="geometry"/>
        </mxCell>
        <mxCell id="0z2dit9m4dIWVE-Us7l9-24" value="機房&lt;br&gt;C202" style="rounded=0;whiteSpace=wrap;html=1;fontSize=16;" parent="0z2dit9m4dIWVE-Us7l9-28" vertex="1">
          <mxGeometry x="383.45454545454544" y="41.65573586178459" width="62.18181818181818" height="40.915189446464055" as="geometry"/>
        </mxCell>
        <mxCell id="0z2dit9m4dIWVE-Us7l9-25" value="資訊教室&lt;br&gt;C201" style="rounded=0;whiteSpace=wrap;html=1;fontSize=16;" parent="0z2dit9m4dIWVE-Us7l9-28" vertex="1">
          <mxGeometry x="445.6363636363636" y="41.65573586178459" width="82.9090909090909" height="40.915189446464055" as="geometry"/>
        </mxCell>
        <mxCell id="0z2dit9m4dIWVE-Us7l9-26" value="&lt;font style=&quot;font-size: 16px&quot;&gt;生物教室&lt;br&gt;C101&lt;br&gt;&lt;/font&gt;" style="rounded=0;whiteSpace=wrap;html=1;fontSize=16;" parent="0z2dit9m4dIWVE-Us7l9-28" vertex="1">
          <mxGeometry x="383.45454545454544" y="81.92294719484305" width="145.0909090909091" height="40.915189446464055" as="geometry"/>
        </mxCell>
        <mxCell id="0z2dit9m4dIWVE-Us7l9-27" value="" style="verticalLabelPosition=bottom;html=1;verticalAlign=top;align=center;shape=mxgraph.floorplan.stairs;direction=south;fontSize=16;" parent="0z2dit9m4dIWVE-Us7l9-28" vertex="1">
          <mxGeometry x="528.5454545454545" width="41.45454545454545" height="124.96720758535402" as="geometry"/>
        </mxCell>
        <mxCell id="0z2dit9m4dIWVE-Us7l9-57" value="" style="group" parent="4dQ_Ar_KYTVlsJJxF_Cd-1" vertex="1" connectable="0">
          <mxGeometry x="250" y="65" width="803" height="96.78481055353598" as="geometry"/>
        </mxCell>
        <mxCell id="0z2dit9m4dIWVE-Us7l9-29" value="D106" style="rounded=0;whiteSpace=wrap;html=1;fontSize=16;" parent="0z2dit9m4dIWVE-Us7l9-57" vertex="1">
          <mxGeometry x="202" y="44.21052631578948" width="79.99999999999999" height="44.21052631578948" as="geometry"/>
        </mxCell>
        <mxCell id="0z2dit9m4dIWVE-Us7l9-30" value="D105" style="rounded=0;whiteSpace=wrap;html=1;fontSize=16;" parent="0z2dit9m4dIWVE-Us7l9-57" vertex="1">
          <mxGeometry x="282" y="44.21052631578948" width="79.99999999999999" height="44.21052631578948" as="geometry"/>
        </mxCell>
        <mxCell id="0z2dit9m4dIWVE-Us7l9-32" value="D104" style="rounded=0;whiteSpace=wrap;html=1;fontSize=16;" parent="0z2dit9m4dIWVE-Us7l9-57" vertex="1">
          <mxGeometry x="442" y="44.21052631578948" width="79.99999999999999" height="44.21052631578948" as="geometry"/>
        </mxCell>
        <mxCell id="0z2dit9m4dIWVE-Us7l9-33" value="D103" style="rounded=0;whiteSpace=wrap;html=1;fontSize=16;" parent="0z2dit9m4dIWVE-Us7l9-57" vertex="1">
          <mxGeometry x="522" y="44.21052631578948" width="79.99999999999999" height="44.21052631578948" as="geometry"/>
        </mxCell>
        <mxCell id="0z2dit9m4dIWVE-Us7l9-34" value="D101" style="rounded=0;whiteSpace=wrap;html=1;fontSize=16;" parent="0z2dit9m4dIWVE-Us7l9-57" vertex="1">
          <mxGeometry x="681.9999999999999" y="44.21052631578948" width="79.99999999999999" height="44.21052631578948" as="geometry"/>
        </mxCell>
        <mxCell id="0z2dit9m4dIWVE-Us7l9-35" value="D102" style="rounded=0;whiteSpace=wrap;html=1;fontSize=16;" parent="0z2dit9m4dIWVE-Us7l9-57" vertex="1">
          <mxGeometry x="602" y="44.21052631578948" width="79.99999999999999" height="44.21052631578948" as="geometry"/>
        </mxCell>
        <mxCell id="0z2dit9m4dIWVE-Us7l9-39" value="D207" style="rounded=0;whiteSpace=wrap;html=1;fontSize=16;" parent="0z2dit9m4dIWVE-Us7l9-57" vertex="1">
          <mxGeometry x="202" width="79.99999999999999" height="44.21052631578948" as="geometry"/>
        </mxCell>
        <mxCell id="0z2dit9m4dIWVE-Us7l9-40" value="D206" style="rounded=0;whiteSpace=wrap;html=1;fontSize=16;" parent="0z2dit9m4dIWVE-Us7l9-57" vertex="1">
          <mxGeometry x="282" width="79.99999999999999" height="44.21052631578948" as="geometry"/>
        </mxCell>
        <mxCell id="0z2dit9m4dIWVE-Us7l9-41" value="D205" style="rounded=0;whiteSpace=wrap;html=1;fontSize=16;" parent="0z2dit9m4dIWVE-Us7l9-57" vertex="1">
          <mxGeometry x="362" width="79.99999999999999" height="44.21052631578948" as="geometry"/>
        </mxCell>
        <mxCell id="0z2dit9m4dIWVE-Us7l9-43" value="D204" style="rounded=0;whiteSpace=wrap;html=1;fontSize=16;" parent="0z2dit9m4dIWVE-Us7l9-57" vertex="1">
          <mxGeometry x="442" width="79.99999999999999" height="44.21052631578948" as="geometry"/>
        </mxCell>
        <mxCell id="0z2dit9m4dIWVE-Us7l9-44" value="D203" style="rounded=0;whiteSpace=wrap;html=1;fontSize=16;" parent="0z2dit9m4dIWVE-Us7l9-57" vertex="1">
          <mxGeometry x="522" width="79.99999999999999" height="44.21052631578948" as="geometry"/>
        </mxCell>
        <mxCell id="0z2dit9m4dIWVE-Us7l9-45" value="D201" style="rounded=0;whiteSpace=wrap;html=1;fontSize=16;" parent="0z2dit9m4dIWVE-Us7l9-57" vertex="1">
          <mxGeometry x="681.9999999999999" width="79.99999999999999" height="44.21052631578948" as="geometry"/>
        </mxCell>
        <mxCell id="0z2dit9m4dIWVE-Us7l9-46" value="D202" style="rounded=0;whiteSpace=wrap;html=1;fontSize=16;" parent="0z2dit9m4dIWVE-Us7l9-57" vertex="1">
          <mxGeometry x="602" width="79.99999999999999" height="44.21052631578948" as="geometry"/>
        </mxCell>
        <mxCell id="0z2dit9m4dIWVE-Us7l9-47" value="D107" style="rounded=0;whiteSpace=wrap;html=1;fontSize=16;" parent="0z2dit9m4dIWVE-Us7l9-57" vertex="1">
          <mxGeometry x="121" y="44" width="81" height="44" as="geometry"/>
        </mxCell>
        <mxCell id="0z2dit9m4dIWVE-Us7l9-48" value="D208" style="rounded=0;whiteSpace=wrap;html=1;fontSize=16;" parent="0z2dit9m4dIWVE-Us7l9-57" vertex="1">
          <mxGeometry x="122" width="79.99999999999999" height="44.21052631578948" as="geometry"/>
        </mxCell>
        <mxCell id="0z2dit9m4dIWVE-Us7l9-49" value="D108" style="rounded=0;whiteSpace=wrap;html=1;fontSize=16;" parent="0z2dit9m4dIWVE-Us7l9-57" vertex="1">
          <mxGeometry x="42" y="44.21052631578948" width="79.99999999999999" height="44.21052631578948" as="geometry"/>
        </mxCell>
        <mxCell id="0z2dit9m4dIWVE-Us7l9-50" value="D209" style="rounded=0;whiteSpace=wrap;html=1;fontSize=16;" parent="0z2dit9m4dIWVE-Us7l9-57" vertex="1">
          <mxGeometry x="42" width="79" height="44" as="geometry"/>
        </mxCell>
        <mxCell id="0z2dit9m4dIWVE-Us7l9-53" value="" style="verticalLabelPosition=bottom;html=1;verticalAlign=top;align=center;shape=mxgraph.floorplan.stairs;direction=south;rotation=0;" parent="0z2dit9m4dIWVE-Us7l9-57" vertex="1">
          <mxGeometry x="411" y="44" width="31" height="41" as="geometry"/>
        </mxCell>
        <mxCell id="0z2dit9m4dIWVE-Us7l9-54" value="川堂" style="text;html=1;align=center;verticalAlign=middle;resizable=0;points=[];;autosize=1;fontSize=16;" parent="0z2dit9m4dIWVE-Us7l9-57" vertex="1">
          <mxGeometry x="360.9545454545454" y="52.58481055353596" width="50" height="44.2" as="geometry"/>
        </mxCell>
        <mxCell id="0z2dit9m4dIWVE-Us7l9-55" value="" style="verticalLabelPosition=bottom;html=1;verticalAlign=top;align=center;shape=mxgraph.floorplan.stairs;direction=south;fontSize=16;" parent="0z2dit9m4dIWVE-Us7l9-57" vertex="1">
          <mxGeometry width="41" height="90" as="geometry"/>
        </mxCell>
        <mxCell id="0z2dit9m4dIWVE-Us7l9-56" value="" style="verticalLabelPosition=bottom;html=1;verticalAlign=top;align=center;shape=mxgraph.floorplan.stairs;direction=south;fontSize=16;" parent="0z2dit9m4dIWVE-Us7l9-57" vertex="1">
          <mxGeometry x="762" width="41" height="90" as="geometry"/>
        </mxCell>
        <mxCell id="0z2dit9m4dIWVE-Us7l9-58" value="&lt;font style=&quot;font-size: 22px&quot;&gt;活動中心&lt;/font&gt;" style="ellipse;whiteSpace=wrap;html=1;" parent="4dQ_Ar_KYTVlsJJxF_Cd-1" vertex="1">
          <mxGeometry x="32" y="62" width="120" height="148" as="geometry"/>
        </mxCell>
        <mxCell id="0z2dit9m4dIWVE-Us7l9-59" value="&lt;font style=&quot;font-size: 20px&quot;&gt;社&lt;br&gt;區&lt;br&gt;大&lt;br&gt;學&lt;/font&gt;" style="rounded=0;whiteSpace=wrap;html=1;" parent="4dQ_Ar_KYTVlsJJxF_Cd-1" vertex="1">
          <mxGeometry x="1033" y="200" width="40" height="280" as="geometry"/>
        </mxCell>
        <mxCell id="0z2dit9m4dIWVE-Us7l9-60" value="&lt;font style=&quot;font-size: 20px&quot;&gt;社區大學&lt;/font&gt;" style="rounded=0;whiteSpace=wrap;html=1;" parent="4dQ_Ar_KYTVlsJJxF_Cd-1" vertex="1">
          <mxGeometry x="1073" y="200" width="40" height="280" as="geometry"/>
        </mxCell>
        <mxCell id="0z2dit9m4dIWVE-Us7l9-63" value="&lt;font style=&quot;font-size: 18px&quot;&gt;1F&lt;/font&gt;" style="text;html=1;strokeColor=none;fillColor=none;align=center;verticalAlign=middle;whiteSpace=wrap;rounded=0;" parent="4dQ_Ar_KYTVlsJJxF_Cd-1" vertex="1">
          <mxGeometry x="112" y="735" width="40" height="22" as="geometry"/>
        </mxCell>
        <mxCell id="0z2dit9m4dIWVE-Us7l9-64" value="&lt;font style=&quot;font-size: 18px&quot;&gt;2F&lt;/font&gt;" style="text;html=1;strokeColor=none;fillColor=none;align=center;verticalAlign=middle;whiteSpace=wrap;rounded=0;" parent="4dQ_Ar_KYTVlsJJxF_Cd-1" vertex="1">
          <mxGeometry x="112" y="690" width="40" height="22" as="geometry"/>
        </mxCell>
        <mxCell id="0z2dit9m4dIWVE-Us7l9-65" value="&lt;font style=&quot;font-size: 18px&quot;&gt;3F&lt;/font&gt;" style="text;html=1;strokeColor=none;fillColor=none;align=center;verticalAlign=middle;whiteSpace=wrap;rounded=0;" parent="4dQ_Ar_KYTVlsJJxF_Cd-1" vertex="1">
          <mxGeometry x="112" y="645" width="40" height="22" as="geometry"/>
        </mxCell>
        <mxCell id="0z2dit9m4dIWVE-Us7l9-67" value="&lt;font style=&quot;font-size: 18px&quot;&gt;4F&lt;/font&gt;" style="text;html=1;strokeColor=none;fillColor=none;align=center;verticalAlign=middle;whiteSpace=wrap;rounded=0;" parent="4dQ_Ar_KYTVlsJJxF_Cd-1" vertex="1">
          <mxGeometry x="112" y="600" width="40" height="22" as="geometry"/>
        </mxCell>
        <mxCell id="0z2dit9m4dIWVE-Us7l9-72" value="&lt;font style=&quot;font-size: 18px&quot;&gt;1F&lt;/font&gt;" style="text;html=1;strokeColor=none;fillColor=none;align=center;verticalAlign=middle;whiteSpace=wrap;rounded=0;" parent="4dQ_Ar_KYTVlsJJxF_Cd-1" vertex="1">
          <mxGeometry x="364" y="291" width="40" height="22" as="geometry"/>
        </mxCell>
        <mxCell id="0z2dit9m4dIWVE-Us7l9-73" value="&lt;font style=&quot;font-size: 18px&quot;&gt;2F&lt;/font&gt;" style="text;html=1;strokeColor=none;fillColor=none;align=center;verticalAlign=middle;whiteSpace=wrap;rounded=0;" parent="4dQ_Ar_KYTVlsJJxF_Cd-1" vertex="1">
          <mxGeometry x="364" y="246" width="40" height="22" as="geometry"/>
        </mxCell>
        <mxCell id="0z2dit9m4dIWVE-Us7l9-74" value="&lt;font style=&quot;font-size: 18px&quot;&gt;3F&lt;/font&gt;" style="text;html=1;strokeColor=none;fillColor=none;align=center;verticalAlign=middle;whiteSpace=wrap;rounded=0;" parent="4dQ_Ar_KYTVlsJJxF_Cd-1" vertex="1">
          <mxGeometry x="364" y="201" width="40" height="22" as="geometry"/>
        </mxCell>
        <mxCell id="0z2dit9m4dIWVE-Us7l9-78" value="&lt;font style=&quot;font-size: 18px&quot;&gt;1F&lt;/font&gt;" style="text;html=1;strokeColor=none;fillColor=none;align=center;verticalAlign=middle;whiteSpace=wrap;rounded=0;" parent="4dQ_Ar_KYTVlsJJxF_Cd-1" vertex="1">
          <mxGeometry x="215" y="125" width="40" height="22" as="geometry"/>
        </mxCell>
        <mxCell id="0z2dit9m4dIWVE-Us7l9-79" value="&lt;font style=&quot;font-size: 18px&quot;&gt;2F&lt;/font&gt;" style="text;html=1;strokeColor=none;fillColor=none;align=center;verticalAlign=middle;whiteSpace=wrap;rounded=0;" parent="4dQ_Ar_KYTVlsJJxF_Cd-1" vertex="1">
          <mxGeometry x="215" y="80" width="40" height="22" as="geometry"/>
        </mxCell>
        <mxCell id="0z2dit9m4dIWVE-Us7l9-80" value="&lt;font style=&quot;font-size: 18px&quot;&gt;1F&lt;/font&gt;" style="text;html=1;strokeColor=none;fillColor=none;align=center;verticalAlign=middle;whiteSpace=wrap;rounded=0;" parent="4dQ_Ar_KYTVlsJJxF_Cd-1" vertex="1">
          <mxGeometry x="1037" y="480" width="40" height="22" as="geometry"/>
        </mxCell>
        <mxCell id="0z2dit9m4dIWVE-Us7l9-81" value="&lt;font style=&quot;font-size: 18px&quot;&gt;2F&lt;/font&gt;" style="text;html=1;strokeColor=none;fillColor=none;align=center;verticalAlign=middle;whiteSpace=wrap;rounded=0;" parent="4dQ_Ar_KYTVlsJJxF_Cd-1" vertex="1">
          <mxGeometry x="1074" y="480" width="40" height="22" as="geometry"/>
        </mxCell>
      </root>
    </mxGraphModel>
  </diagram>
  <diagram name="網路設備配置圖" id="gNHJTG4GOpoI6AXBkxyY">
    <mxGraphModel dx="768" dy="464" grid="1" gridSize="5" guides="1" tooltips="1" connect="1" arrows="1" fold="1" page="1" pageScale="1" pageWidth="1169" pageHeight="827" math="0" shadow="0">
      <root>
        <mxCell id="yQfu56UTnZcEHh2kDQVF-0"/>
        <mxCell id="yQfu56UTnZcEHh2kDQVF-1" style="locked=1;" parent="yQfu56UTnZcEHh2kDQVF-0"/>
        <mxCell id="CIz18G-nKb8FOfD-lGbZ-0" value="" style="group" parent="yQfu56UTnZcEHh2kDQVF-1" vertex="1" connectable="0">
          <mxGeometry x="374.99999999999994" y="360" width="640" height="318.7105263157895" as="geometry"/>
        </mxCell>
        <mxCell id="CIz18G-nKb8FOfD-lGbZ-1" value="&lt;font style=&quot;font-size: 16px;&quot;&gt;廁所&lt;/font&gt;" style="rounded=0;whiteSpace=wrap;html=1;fontSize=16;" parent="CIz18G-nKb8FOfD-lGbZ-0" vertex="1">
          <mxGeometry x="40.00000000000006" y="132.63157894736844" width="49.99999999999999" height="44.21052631578948" as="geometry"/>
        </mxCell>
        <mxCell id="CIz18G-nKb8FOfD-lGbZ-2" value="&lt;font style=&quot;font-size: 16px;&quot;&gt;廁所&lt;/font&gt;" style="rounded=0;whiteSpace=wrap;html=1;fontSize=16;" parent="CIz18G-nKb8FOfD-lGbZ-0" vertex="1">
          <mxGeometry x="40.00000000000006" y="88.42105263157896" width="49.99999999999999" height="44.21052631578948" as="geometry"/>
        </mxCell>
        <mxCell id="CIz18G-nKb8FOfD-lGbZ-3" value="&lt;font style=&quot;font-size: 16px;&quot;&gt;廁所&lt;/font&gt;" style="rounded=0;whiteSpace=wrap;html=1;fontSize=16;" parent="CIz18G-nKb8FOfD-lGbZ-0" vertex="1">
          <mxGeometry x="40.00000000000006" y="44.21052631578948" width="49.99999999999999" height="44.21052631578948" as="geometry"/>
        </mxCell>
        <mxCell id="CIz18G-nKb8FOfD-lGbZ-4" value="&lt;font style=&quot;font-size: 16px;&quot;&gt;廁所&lt;/font&gt;" style="rounded=0;whiteSpace=wrap;html=1;fontSize=16;" parent="CIz18G-nKb8FOfD-lGbZ-0" vertex="1">
          <mxGeometry x="40.00000000000006" width="49.99999999999999" height="44.21052631578948" as="geometry"/>
        </mxCell>
        <mxCell id="CIz18G-nKb8FOfD-lGbZ-5" value="&lt;font style=&quot;font-size: 16px&quot;&gt;舞蹈教室&lt;br&gt;B105&lt;br&gt;&lt;/font&gt;" style="rounded=0;whiteSpace=wrap;html=1;fontSize=16;" parent="CIz18G-nKb8FOfD-lGbZ-0" vertex="1">
          <mxGeometry x="90.00000000000006" y="133.5" width="240" height="44" as="geometry"/>
        </mxCell>
        <mxCell id="CIz18G-nKb8FOfD-lGbZ-6" value="&lt;font style=&quot;font-size: 16px&quot;&gt;教室&lt;br&gt;B204&lt;br&gt;&lt;/font&gt;" style="rounded=0;whiteSpace=wrap;html=1;fontSize=16;" parent="CIz18G-nKb8FOfD-lGbZ-0" vertex="1">
          <mxGeometry x="90.00000000000006" y="89.13157894736844" width="159.99999999999997" height="44.21052631578948" as="geometry"/>
        </mxCell>
        <mxCell id="CIz18G-nKb8FOfD-lGbZ-7" value="&lt;font style=&quot;font-size: 16px&quot;&gt;教室&lt;br&gt;B203&lt;br&gt;&lt;/font&gt;" style="rounded=0;whiteSpace=wrap;html=1;fontSize=16;" parent="CIz18G-nKb8FOfD-lGbZ-0" vertex="1">
          <mxGeometry x="250.00000000000006" y="89.13157894736844" width="79.99999999999999" height="44.21052631578948" as="geometry"/>
        </mxCell>
        <mxCell id="CIz18G-nKb8FOfD-lGbZ-8" value="&lt;font style=&quot;font-size: 16px&quot;&gt;教室&lt;br&gt;B305&lt;br&gt;&lt;/font&gt;" style="rounded=0;whiteSpace=wrap;html=1;fontSize=16;" parent="CIz18G-nKb8FOfD-lGbZ-0" vertex="1">
          <mxGeometry x="90.00000000000006" y="45.13157894736844" width="159.99999999999997" height="44.21052631578948" as="geometry"/>
        </mxCell>
        <mxCell id="CIz18G-nKb8FOfD-lGbZ-9" value="&lt;font style=&quot;font-size: 16px&quot;&gt;教室&lt;br&gt;B304&lt;br&gt;&lt;/font&gt;" style="rounded=0;whiteSpace=wrap;html=1;fontSize=16;" parent="CIz18G-nKb8FOfD-lGbZ-0" vertex="1">
          <mxGeometry x="250.00000000000006" y="45.13157894736844" width="79.99999999999999" height="44.21052631578948" as="geometry"/>
        </mxCell>
        <mxCell id="CIz18G-nKb8FOfD-lGbZ-10" value="&lt;font style=&quot;font-size: 16px&quot;&gt;理化實驗教室&lt;br&gt;B404&lt;br&gt;&lt;/font&gt;" style="rounded=0;whiteSpace=wrap;html=1;fontSize=16;" parent="CIz18G-nKb8FOfD-lGbZ-0" vertex="1">
          <mxGeometry x="90.00000000000006" y="0.5" width="240" height="44" as="geometry"/>
        </mxCell>
        <mxCell id="CIz18G-nKb8FOfD-lGbZ-11" value="" style="verticalLabelPosition=bottom;html=1;verticalAlign=top;align=center;shape=mxgraph.floorplan.stairs;direction=south;fontSize=16;" parent="CIz18G-nKb8FOfD-lGbZ-0" vertex="1">
          <mxGeometry x="330.00000000000006" y="0.5" width="40" height="204" as="geometry"/>
        </mxCell>
        <mxCell id="CIz18G-nKb8FOfD-lGbZ-12" value="教室&lt;br&gt;B104" style="rounded=0;whiteSpace=wrap;html=1;fontSize=16;" parent="CIz18G-nKb8FOfD-lGbZ-0" vertex="1">
          <mxGeometry x="370.00000000000006" y="132.63157894736844" width="79.99999999999999" height="44.21052631578948" as="geometry"/>
        </mxCell>
        <mxCell id="CIz18G-nKb8FOfD-lGbZ-13" value="教室&lt;br&gt;B103" style="rounded=0;whiteSpace=wrap;html=1;fontSize=16;" parent="CIz18G-nKb8FOfD-lGbZ-0" vertex="1">
          <mxGeometry x="450.00000000000006" y="132.63157894736844" width="79.99999999999999" height="44.21052631578948" as="geometry"/>
        </mxCell>
        <mxCell id="CIz18G-nKb8FOfD-lGbZ-14" value="輔導室&lt;br&gt;B202" style="rounded=0;whiteSpace=wrap;html=1;fontSize=16;" parent="CIz18G-nKb8FOfD-lGbZ-0" vertex="1">
          <mxGeometry x="370.00000000000006" y="88.5" width="160" height="44" as="geometry"/>
        </mxCell>
        <mxCell id="CIz18G-nKb8FOfD-lGbZ-15" value="教室&lt;br&gt;B303" style="rounded=0;whiteSpace=wrap;html=1;fontSize=16;" parent="CIz18G-nKb8FOfD-lGbZ-0" vertex="1">
          <mxGeometry x="370.00000000000006" y="44.21052631578948" width="79.99999999999999" height="44.21052631578948" as="geometry"/>
        </mxCell>
        <mxCell id="CIz18G-nKb8FOfD-lGbZ-16" value="教室&lt;br&gt;B302" style="rounded=0;whiteSpace=wrap;html=1;fontSize=16;" parent="CIz18G-nKb8FOfD-lGbZ-0" vertex="1">
          <mxGeometry x="450.00000000000006" y="44.21052631578948" width="79.99999999999999" height="44.21052631578948" as="geometry"/>
        </mxCell>
        <mxCell id="CIz18G-nKb8FOfD-lGbZ-17" value="教室&lt;br&gt;B403" style="rounded=0;whiteSpace=wrap;html=1;fontSize=16;" parent="CIz18G-nKb8FOfD-lGbZ-0" vertex="1">
          <mxGeometry x="370.00000000000006" width="79.99999999999999" height="44.21052631578948" as="geometry"/>
        </mxCell>
        <mxCell id="CIz18G-nKb8FOfD-lGbZ-18" value="教室&lt;br&gt;B402" style="rounded=0;whiteSpace=wrap;html=1;fontSize=16;" parent="CIz18G-nKb8FOfD-lGbZ-0" vertex="1">
          <mxGeometry x="450.00000000000006" width="79.99999999999999" height="44.21052631578948" as="geometry"/>
        </mxCell>
        <mxCell id="CIz18G-nKb8FOfD-lGbZ-19" value="" style="verticalLabelPosition=bottom;html=1;verticalAlign=top;align=center;shape=mxgraph.floorplan.stairs;direction=south;fontSize=16;" parent="CIz18G-nKb8FOfD-lGbZ-0" vertex="1">
          <mxGeometry x="530" width="40" height="204" as="geometry"/>
        </mxCell>
        <mxCell id="CIz18G-nKb8FOfD-lGbZ-20" value="學習中心&lt;br&gt;B102" style="rounded=0;whiteSpace=wrap;html=1;fontSize=16;" parent="CIz18G-nKb8FOfD-lGbZ-0" vertex="1">
          <mxGeometry x="550" y="198.5" width="45" height="88" as="geometry"/>
        </mxCell>
        <mxCell id="CIz18G-nKb8FOfD-lGbZ-21" value="教室&lt;br&gt;B201" style="rounded=0;whiteSpace=wrap;html=1;fontSize=16;" parent="CIz18G-nKb8FOfD-lGbZ-0" vertex="1">
          <mxGeometry x="550" y="154.5" width="90" height="44" as="geometry"/>
        </mxCell>
        <mxCell id="CIz18G-nKb8FOfD-lGbZ-22" value="教室&lt;br&gt;B301" style="rounded=0;whiteSpace=wrap;html=1;fontSize=16;" parent="CIz18G-nKb8FOfD-lGbZ-0" vertex="1">
          <mxGeometry x="550" y="110.5" width="90" height="44" as="geometry"/>
        </mxCell>
        <mxCell id="CIz18G-nKb8FOfD-lGbZ-23" value="資訊教室&lt;br&gt;B401" style="rounded=0;whiteSpace=wrap;html=1;fontSize=16;" parent="CIz18G-nKb8FOfD-lGbZ-0" vertex="1">
          <mxGeometry x="550" y="66.5" width="90" height="44" as="geometry"/>
        </mxCell>
        <mxCell id="CIz18G-nKb8FOfD-lGbZ-24" value="學習中心&lt;br&gt;B101" style="rounded=0;whiteSpace=wrap;html=1;fontSize=16;" parent="CIz18G-nKb8FOfD-lGbZ-0" vertex="1">
          <mxGeometry x="595" y="198.5" width="45" height="88" as="geometry"/>
        </mxCell>
        <mxCell id="CIz18G-nKb8FOfD-lGbZ-25" value="&lt;font style=&quot;font-size: 18px&quot;&gt;1F&lt;/font&gt;" style="text;html=1;strokeColor=none;fillColor=none;align=center;verticalAlign=middle;whiteSpace=wrap;rounded=0;" parent="CIz18G-nKb8FOfD-lGbZ-0" vertex="1">
          <mxGeometry x="5.684341886080802e-14" y="145" width="40" height="22" as="geometry"/>
        </mxCell>
        <mxCell id="CIz18G-nKb8FOfD-lGbZ-26" value="&lt;font style=&quot;font-size: 18px&quot;&gt;2F&lt;/font&gt;" style="text;html=1;strokeColor=none;fillColor=none;align=center;verticalAlign=middle;whiteSpace=wrap;rounded=0;" parent="CIz18G-nKb8FOfD-lGbZ-0" vertex="1">
          <mxGeometry x="5.684341886080802e-14" y="100" width="40" height="22" as="geometry"/>
        </mxCell>
        <mxCell id="CIz18G-nKb8FOfD-lGbZ-27" value="&lt;font style=&quot;font-size: 18px&quot;&gt;3F&lt;/font&gt;" style="text;html=1;strokeColor=none;fillColor=none;align=center;verticalAlign=middle;whiteSpace=wrap;rounded=0;" parent="CIz18G-nKb8FOfD-lGbZ-0" vertex="1">
          <mxGeometry x="5.684341886080802e-14" y="55" width="40" height="22" as="geometry"/>
        </mxCell>
        <mxCell id="CIz18G-nKb8FOfD-lGbZ-28" value="&lt;font style=&quot;font-size: 18px&quot;&gt;4F&lt;/font&gt;" style="text;html=1;strokeColor=none;fillColor=none;align=center;verticalAlign=middle;whiteSpace=wrap;rounded=0;" parent="CIz18G-nKb8FOfD-lGbZ-0" vertex="1">
          <mxGeometry x="5.684341886080802e-14" y="10" width="40" height="22" as="geometry"/>
        </mxCell>
        <mxCell id="CIz18G-nKb8FOfD-lGbZ-29" value="" style="group" parent="yQfu56UTnZcEHh2kDQVF-1" vertex="1" connectable="0">
          <mxGeometry x="150" y="590" width="749.9999999999999" height="210" as="geometry"/>
        </mxCell>
        <mxCell id="CIz18G-nKb8FOfD-lGbZ-30" value="" style="group" parent="CIz18G-nKb8FOfD-lGbZ-29" vertex="1" connectable="0">
          <mxGeometry width="749.9999999999999" height="210" as="geometry"/>
        </mxCell>
        <mxCell id="CIz18G-nKb8FOfD-lGbZ-31" value="&lt;font style=&quot;font-size: 16px&quot;&gt;視聽教室&lt;br&gt;A105&lt;br&gt;&lt;/font&gt;" style="rounded=0;whiteSpace=wrap;html=1;fontSize=16;" parent="CIz18G-nKb8FOfD-lGbZ-30" vertex="1">
          <mxGeometry x="90" y="132.63157894736844" width="159.99999999999997" height="44.21052631578948" as="geometry"/>
        </mxCell>
        <mxCell id="CIz18G-nKb8FOfD-lGbZ-32" value="&lt;font style=&quot;font-size: 16px&quot;&gt;檔案室&lt;br&gt;A104&lt;br&gt;&lt;/font&gt;" style="rounded=0;whiteSpace=wrap;html=1;fontSize=16;" parent="CIz18G-nKb8FOfD-lGbZ-30" vertex="1">
          <mxGeometry x="250" y="132.63157894736844" width="79.99999999999999" height="44.21052631578948" as="geometry"/>
        </mxCell>
        <mxCell id="CIz18G-nKb8FOfD-lGbZ-33" value="教務處&lt;br&gt;A103" style="rounded=0;whiteSpace=wrap;html=1;fontSize=16;" parent="CIz18G-nKb8FOfD-lGbZ-30" vertex="1">
          <mxGeometry x="419.99999999999994" y="132.63157894736844" width="79.99999999999999" height="44.21052631578948" as="geometry"/>
        </mxCell>
        <mxCell id="CIz18G-nKb8FOfD-lGbZ-34" value="學務處&lt;br&gt;A101" style="rounded=0;whiteSpace=wrap;html=1;fontSize=16;" parent="CIz18G-nKb8FOfD-lGbZ-30" vertex="1">
          <mxGeometry x="579.9999999999999" y="132.63157894736844" width="79.99999999999999" height="44.21052631578948" as="geometry"/>
        </mxCell>
        <mxCell id="CIz18G-nKb8FOfD-lGbZ-35" value="保健室&lt;br&gt;A102" style="rounded=0;whiteSpace=wrap;html=1;fontSize=16;" parent="CIz18G-nKb8FOfD-lGbZ-30" vertex="1">
          <mxGeometry x="500" y="132.63157894736844" width="79.99999999999999" height="44.21052631578948" as="geometry"/>
        </mxCell>
        <mxCell id="CIz18G-nKb8FOfD-lGbZ-36" value="&lt;font style=&quot;font-size: 16px;&quot;&gt;廁所&lt;/font&gt;" style="rounded=0;whiteSpace=wrap;html=1;fontSize=16;" parent="CIz18G-nKb8FOfD-lGbZ-30" vertex="1">
          <mxGeometry y="132.63157894736844" width="49.99999999999999" height="44.21052631578948" as="geometry"/>
        </mxCell>
        <mxCell id="CIz18G-nKb8FOfD-lGbZ-37" value="&lt;font style=&quot;font-size: 16px;&quot;&gt;廁所&lt;/font&gt;" style="rounded=0;whiteSpace=wrap;html=1;fontSize=16;" parent="CIz18G-nKb8FOfD-lGbZ-30" vertex="1">
          <mxGeometry x="699.9999999999999" y="132.63157894736844" width="49.99999999999999" height="44.21052631578948" as="geometry"/>
        </mxCell>
        <mxCell id="CIz18G-nKb8FOfD-lGbZ-38" value="教室&lt;br&gt;A207" style="rounded=0;whiteSpace=wrap;html=1;fontSize=16;" parent="CIz18G-nKb8FOfD-lGbZ-30" vertex="1">
          <mxGeometry x="90" y="88.42105263157896" width="79.99999999999999" height="44.21052631578948" as="geometry"/>
        </mxCell>
        <mxCell id="CIz18G-nKb8FOfD-lGbZ-39" value="教室&lt;br&gt;A206" style="rounded=0;whiteSpace=wrap;html=1;fontSize=16;" parent="CIz18G-nKb8FOfD-lGbZ-30" vertex="1">
          <mxGeometry x="170" y="88.42105263157896" width="79.99999999999999" height="44.21052631578948" as="geometry"/>
        </mxCell>
        <mxCell id="CIz18G-nKb8FOfD-lGbZ-40" value="教室&lt;br&gt;A205" style="rounded=0;whiteSpace=wrap;html=1;fontSize=16;" parent="CIz18G-nKb8FOfD-lGbZ-30" vertex="1">
          <mxGeometry x="250" y="88.42105263157896" width="79.99999999999999" height="44.21052631578948" as="geometry"/>
        </mxCell>
        <mxCell id="CIz18G-nKb8FOfD-lGbZ-41" value="辦公室&lt;br&gt;A204" style="rounded=0;whiteSpace=wrap;html=1;fontSize=16;" parent="CIz18G-nKb8FOfD-lGbZ-30" vertex="1">
          <mxGeometry x="329.99999999999994" y="88.42105263157896" width="89.99999999999999" height="44.21052631578948" as="geometry"/>
        </mxCell>
        <mxCell id="CIz18G-nKb8FOfD-lGbZ-42" value="教室&lt;br&gt;A203" style="rounded=0;whiteSpace=wrap;html=1;fontSize=16;" parent="CIz18G-nKb8FOfD-lGbZ-30" vertex="1">
          <mxGeometry x="419.99999999999994" y="88.42105263157896" width="79.99999999999999" height="44.21052631578948" as="geometry"/>
        </mxCell>
        <mxCell id="CIz18G-nKb8FOfD-lGbZ-43" value="教室&lt;br&gt;A201" style="rounded=0;whiteSpace=wrap;html=1;fontSize=16;" parent="CIz18G-nKb8FOfD-lGbZ-30" vertex="1">
          <mxGeometry x="579.9999999999999" y="88.42105263157896" width="79.99999999999999" height="44.21052631578948" as="geometry"/>
        </mxCell>
        <mxCell id="CIz18G-nKb8FOfD-lGbZ-44" value="教室&lt;br&gt;A202" style="rounded=0;whiteSpace=wrap;html=1;fontSize=16;" parent="CIz18G-nKb8FOfD-lGbZ-30" vertex="1">
          <mxGeometry x="500" y="88.42105263157896" width="79.99999999999999" height="44.21052631578948" as="geometry"/>
        </mxCell>
        <mxCell id="CIz18G-nKb8FOfD-lGbZ-45" value="&lt;font style=&quot;font-size: 16px;&quot;&gt;廁所&lt;/font&gt;" style="rounded=0;whiteSpace=wrap;html=1;fontSize=16;" parent="CIz18G-nKb8FOfD-lGbZ-30" vertex="1">
          <mxGeometry y="88.42105263157896" width="49.99999999999999" height="44.21052631578948" as="geometry"/>
        </mxCell>
        <mxCell id="CIz18G-nKb8FOfD-lGbZ-46" value="&lt;font style=&quot;font-size: 16px;&quot;&gt;廁所&lt;/font&gt;" style="rounded=0;whiteSpace=wrap;html=1;fontSize=16;" parent="CIz18G-nKb8FOfD-lGbZ-30" vertex="1">
          <mxGeometry x="699.9999999999999" y="88.42105263157896" width="49.99999999999999" height="44.21052631578948" as="geometry"/>
        </mxCell>
        <mxCell id="CIz18G-nKb8FOfD-lGbZ-47" value="教室&lt;br&gt;A307" style="rounded=0;whiteSpace=wrap;html=1;fontSize=16;" parent="CIz18G-nKb8FOfD-lGbZ-30" vertex="1">
          <mxGeometry x="90" y="44.21052631578948" width="79.99999999999999" height="44.21052631578948" as="geometry"/>
        </mxCell>
        <mxCell id="CIz18G-nKb8FOfD-lGbZ-48" value="教室&lt;br&gt;A306" style="rounded=0;whiteSpace=wrap;html=1;fontSize=16;" parent="CIz18G-nKb8FOfD-lGbZ-30" vertex="1">
          <mxGeometry x="170" y="44.21052631578948" width="79.99999999999999" height="44.21052631578948" as="geometry"/>
        </mxCell>
        <mxCell id="CIz18G-nKb8FOfD-lGbZ-49" value="教室&lt;br&gt;A305" style="rounded=0;whiteSpace=wrap;html=1;fontSize=16;" parent="CIz18G-nKb8FOfD-lGbZ-30" vertex="1">
          <mxGeometry x="249.68354430379748" y="44.21052631578948" width="79.74683544303797" height="44.21052631578948" as="geometry"/>
        </mxCell>
        <mxCell id="CIz18G-nKb8FOfD-lGbZ-50" value="辦公室&lt;br&gt;A304" style="rounded=0;whiteSpace=wrap;html=1;fontSize=16;" parent="CIz18G-nKb8FOfD-lGbZ-30" vertex="1">
          <mxGeometry x="329.99999999999994" y="44.21052631578948" width="89.99999999999999" height="44.21052631578948" as="geometry"/>
        </mxCell>
        <mxCell id="CIz18G-nKb8FOfD-lGbZ-51" value="教室&lt;br&gt;A303" style="rounded=0;whiteSpace=wrap;html=1;fontSize=16;" parent="CIz18G-nKb8FOfD-lGbZ-30" vertex="1">
          <mxGeometry x="419.99999999999994" y="44.21052631578948" width="79.99999999999999" height="44.21052631578948" as="geometry"/>
        </mxCell>
        <mxCell id="CIz18G-nKb8FOfD-lGbZ-52" value="教室&lt;br&gt;A301" style="rounded=0;whiteSpace=wrap;html=1;fontSize=16;" parent="CIz18G-nKb8FOfD-lGbZ-30" vertex="1">
          <mxGeometry x="579.9999999999999" y="44.21052631578948" width="79.99999999999999" height="44.21052631578948" as="geometry"/>
        </mxCell>
        <mxCell id="CIz18G-nKb8FOfD-lGbZ-53" value="教室&lt;br&gt;A302" style="rounded=0;whiteSpace=wrap;html=1;fontSize=16;" parent="CIz18G-nKb8FOfD-lGbZ-30" vertex="1">
          <mxGeometry x="500" y="44.21052631578948" width="79.99999999999999" height="44.21052631578948" as="geometry"/>
        </mxCell>
        <mxCell id="CIz18G-nKb8FOfD-lGbZ-54" value="&lt;font style=&quot;font-size: 16px;&quot;&gt;廁所&lt;/font&gt;" style="rounded=0;whiteSpace=wrap;html=1;fontSize=16;" parent="CIz18G-nKb8FOfD-lGbZ-30" vertex="1">
          <mxGeometry y="44.21052631578948" width="49.99999999999999" height="44.21052631578948" as="geometry"/>
        </mxCell>
        <mxCell id="CIz18G-nKb8FOfD-lGbZ-55" value="&lt;font style=&quot;font-size: 16px;&quot;&gt;廁所&lt;/font&gt;" style="rounded=0;whiteSpace=wrap;html=1;fontSize=16;" parent="CIz18G-nKb8FOfD-lGbZ-30" vertex="1">
          <mxGeometry x="699.9999999999999" y="44.21052631578948" width="49.99999999999999" height="44.21052631578948" as="geometry"/>
        </mxCell>
        <mxCell id="CIz18G-nKb8FOfD-lGbZ-56" value="&lt;font style=&quot;font-size: 16px;&quot;&gt;廁所&lt;/font&gt;" style="rounded=0;whiteSpace=wrap;html=1;fontSize=16;" parent="CIz18G-nKb8FOfD-lGbZ-30" vertex="1">
          <mxGeometry width="49.99999999999999" height="44.21052631578948" as="geometry"/>
        </mxCell>
        <mxCell id="CIz18G-nKb8FOfD-lGbZ-57" value="" style="verticalLabelPosition=bottom;html=1;verticalAlign=top;align=center;shape=mxgraph.floorplan.stairs;direction=south;fontSize=16;" parent="CIz18G-nKb8FOfD-lGbZ-30" vertex="1">
          <mxGeometry x="50" width="39.99999999999999" height="210.00000000000003" as="geometry"/>
        </mxCell>
        <mxCell id="CIz18G-nKb8FOfD-lGbZ-58" value="" style="verticalLabelPosition=bottom;html=1;verticalAlign=top;align=center;shape=mxgraph.floorplan.stairs;direction=south;fontSize=16;" parent="CIz18G-nKb8FOfD-lGbZ-30" vertex="1">
          <mxGeometry x="659.9999999999999" width="39.99999999999999" height="210.00000000000003" as="geometry"/>
        </mxCell>
        <mxCell id="CIz18G-nKb8FOfD-lGbZ-59" value="川堂" style="text;html=1;align=center;verticalAlign=middle;resizable=0;points=[];;autosize=1;fontSize=16;" parent="CIz18G-nKb8FOfD-lGbZ-30" vertex="1">
          <mxGeometry x="349.99999999999994" y="154.73684210526312" width="50" height="20" as="geometry"/>
        </mxCell>
        <mxCell id="CIz18G-nKb8FOfD-lGbZ-60" value="教室&lt;br&gt;A407" style="rounded=0;whiteSpace=wrap;html=1;fontSize=16;" parent="CIz18G-nKb8FOfD-lGbZ-30" vertex="1">
          <mxGeometry x="90" width="79.99999999999999" height="44.21052631578948" as="geometry"/>
        </mxCell>
        <mxCell id="CIz18G-nKb8FOfD-lGbZ-61" value="教室&lt;br&gt;A406" style="rounded=0;whiteSpace=wrap;html=1;fontSize=16;" parent="CIz18G-nKb8FOfD-lGbZ-30" vertex="1">
          <mxGeometry x="170" width="79.99999999999999" height="44.21052631578948" as="geometry"/>
        </mxCell>
        <mxCell id="CIz18G-nKb8FOfD-lGbZ-62" value="教室&lt;br&gt;A405" style="rounded=0;whiteSpace=wrap;html=1;fontSize=16;" parent="CIz18G-nKb8FOfD-lGbZ-30" vertex="1">
          <mxGeometry x="250" width="79.99999999999999" height="44.21052631578948" as="geometry"/>
        </mxCell>
        <mxCell id="CIz18G-nKb8FOfD-lGbZ-63" value="&lt;font style=&quot;font-size: 16px;&quot;&gt;廁所&lt;/font&gt;" style="rounded=0;whiteSpace=wrap;html=1;fontSize=16;" parent="CIz18G-nKb8FOfD-lGbZ-30" vertex="1">
          <mxGeometry x="699.9999999999999" width="49.99999999999999" height="44.21052631578948" as="geometry"/>
        </mxCell>
        <mxCell id="CIz18G-nKb8FOfD-lGbZ-64" value="辦公室&lt;br&gt;A404" style="rounded=0;whiteSpace=wrap;html=1;fontSize=16;" parent="CIz18G-nKb8FOfD-lGbZ-30" vertex="1">
          <mxGeometry x="329.99999999999994" width="89.99999999999999" height="44.21052631578948" as="geometry"/>
        </mxCell>
        <mxCell id="CIz18G-nKb8FOfD-lGbZ-65" value="教室&lt;br&gt;A403" style="rounded=0;whiteSpace=wrap;html=1;fontSize=16;" parent="CIz18G-nKb8FOfD-lGbZ-30" vertex="1">
          <mxGeometry x="419.99999999999994" width="79.99999999999999" height="44.21052631578948" as="geometry"/>
        </mxCell>
        <mxCell id="CIz18G-nKb8FOfD-lGbZ-66" value="教室&lt;br&gt;A401" style="rounded=0;whiteSpace=wrap;html=1;fontSize=16;" parent="CIz18G-nKb8FOfD-lGbZ-30" vertex="1">
          <mxGeometry x="579.9999999999999" width="79.99999999999999" height="44.21052631578948" as="geometry"/>
        </mxCell>
        <mxCell id="CIz18G-nKb8FOfD-lGbZ-67" value="教室&lt;br&gt;A402" style="rounded=0;whiteSpace=wrap;html=1;fontSize=16;" parent="CIz18G-nKb8FOfD-lGbZ-30" vertex="1">
          <mxGeometry x="500" width="79.99999999999999" height="44.21052631578948" as="geometry"/>
        </mxCell>
        <mxCell id="CIz18G-nKb8FOfD-lGbZ-68" value="" style="group" parent="yQfu56UTnZcEHh2kDQVF-1" vertex="1" connectable="0">
          <mxGeometry x="400" y="195" width="570" height="130" as="geometry"/>
        </mxCell>
        <mxCell id="CIz18G-nKb8FOfD-lGbZ-69" value="&lt;font style=&quot;font-size: 16px&quot;&gt;體適能教室&lt;br&gt;C103&lt;br&gt;&lt;/font&gt;" style="rounded=0;whiteSpace=wrap;html=1;fontSize=16;" parent="CIz18G-nKb8FOfD-lGbZ-68" vertex="1">
          <mxGeometry x="93.27272727272728" y="81.92294719484316" width="145.0909090909091" height="40.915189446464055" as="geometry"/>
        </mxCell>
        <mxCell id="CIz18G-nKb8FOfD-lGbZ-70" value="&lt;font style=&quot;font-size: 16px&quot;&gt;烘焙教室&lt;br&gt;C102&lt;br&gt;&lt;/font&gt;" style="rounded=0;whiteSpace=wrap;html=1;fontSize=16;" parent="CIz18G-nKb8FOfD-lGbZ-68" vertex="1">
          <mxGeometry x="238.36363636363637" y="81.92294719484316" width="82.9090909090909" height="40.915189446464055" as="geometry"/>
        </mxCell>
        <mxCell id="CIz18G-nKb8FOfD-lGbZ-71" value="&lt;font style=&quot;font-size: 16px;&quot;&gt;廁所&lt;/font&gt;" style="rounded=0;whiteSpace=wrap;html=1;fontSize=16;" parent="CIz18G-nKb8FOfD-lGbZ-68" vertex="1">
          <mxGeometry y="82.04474759209988" width="51.81818181818181" height="40.9249334782446" as="geometry"/>
        </mxCell>
        <mxCell id="CIz18G-nKb8FOfD-lGbZ-72" value="圖書室&lt;br&gt;C204" style="rounded=0;whiteSpace=wrap;html=1;fontSize=16;" parent="CIz18G-nKb8FOfD-lGbZ-68" vertex="1">
          <mxGeometry x="93.27272727272728" y="41.65573586178463" width="145.0909090909091" height="40.915189446464055" as="geometry"/>
        </mxCell>
        <mxCell id="CIz18G-nKb8FOfD-lGbZ-73" value="&lt;font style=&quot;font-size: 16px;&quot;&gt;廁所&lt;/font&gt;" style="rounded=0;whiteSpace=wrap;html=1;fontSize=16;" parent="CIz18G-nKb8FOfD-lGbZ-68" vertex="1">
          <mxGeometry y="41.11981411385529" width="51.81818181818181" height="40.9249334782446" as="geometry"/>
        </mxCell>
        <mxCell id="CIz18G-nKb8FOfD-lGbZ-74" value="生活科技教室&lt;br&gt;C303" style="rounded=0;whiteSpace=wrap;html=1;fontSize=16;" parent="CIz18G-nKb8FOfD-lGbZ-68" vertex="1">
          <mxGeometry x="93.27272727272728" width="145.0909090909091" height="40.915189446464055" as="geometry"/>
        </mxCell>
        <mxCell id="CIz18G-nKb8FOfD-lGbZ-75" value="&lt;font style=&quot;font-size: 16px;&quot;&gt;廁所&lt;/font&gt;" style="rounded=0;whiteSpace=wrap;html=1;fontSize=16;" parent="CIz18G-nKb8FOfD-lGbZ-68" vertex="1">
          <mxGeometry y="0.19488063561069405" width="51.81818181818181" height="40.9249334782446" as="geometry"/>
        </mxCell>
        <mxCell id="CIz18G-nKb8FOfD-lGbZ-76" value="" style="verticalLabelPosition=bottom;html=1;verticalAlign=top;align=center;shape=mxgraph.floorplan.stairs;direction=south;fontSize=16;" parent="CIz18G-nKb8FOfD-lGbZ-68" vertex="1">
          <mxGeometry x="51.81818181818182" width="41.45454545454545" height="124.96720758535402" as="geometry"/>
        </mxCell>
        <mxCell id="CIz18G-nKb8FOfD-lGbZ-77" value="川堂" style="text;html=1;align=center;verticalAlign=middle;resizable=0;points=[];;autosize=1;fontSize=16;" parent="CIz18G-nKb8FOfD-lGbZ-68" vertex="1">
          <mxGeometry x="326.4545454545454" y="89.08481055353596" width="50" height="44.2" as="geometry"/>
        </mxCell>
        <mxCell id="CIz18G-nKb8FOfD-lGbZ-78" value="會議室&lt;br&gt;C203" style="rounded=0;whiteSpace=wrap;html=1;fontSize=16;" parent="CIz18G-nKb8FOfD-lGbZ-68" vertex="1">
          <mxGeometry x="238.36363636363637" y="41.6557358617847" width="82.9090909090909" height="40.915189446464055" as="geometry"/>
        </mxCell>
        <mxCell id="CIz18G-nKb8FOfD-lGbZ-79" value="舞蹈教室&lt;br&gt;C302" style="rounded=0;whiteSpace=wrap;html=1;fontSize=16;" parent="CIz18G-nKb8FOfD-lGbZ-68" vertex="1">
          <mxGeometry x="238.36363636363637" width="145.0909090909091" height="40.915189446464055" as="geometry"/>
        </mxCell>
        <mxCell id="CIz18G-nKb8FOfD-lGbZ-80" value="教室&lt;br&gt;C301" style="rounded=0;whiteSpace=wrap;html=1;fontSize=16;" parent="CIz18G-nKb8FOfD-lGbZ-68" vertex="1">
          <mxGeometry x="383.45454545454544" width="145.0909090909091" height="40.915189446464055" as="geometry"/>
        </mxCell>
        <mxCell id="CIz18G-nKb8FOfD-lGbZ-81" value="設備室&lt;br&gt;C202" style="rounded=0;whiteSpace=wrap;html=1;fontSize=16;" parent="CIz18G-nKb8FOfD-lGbZ-68" vertex="1">
          <mxGeometry x="321.27272727272725" y="41.65573586178459" width="62.18181818181818" height="40.915189446464055" as="geometry"/>
        </mxCell>
        <mxCell id="CIz18G-nKb8FOfD-lGbZ-82" value="機房&lt;br&gt;C202" style="rounded=0;whiteSpace=wrap;html=1;fontSize=16;" parent="CIz18G-nKb8FOfD-lGbZ-68" vertex="1">
          <mxGeometry x="383.45454545454544" y="41.65573586178459" width="62.18181818181818" height="40.915189446464055" as="geometry"/>
        </mxCell>
        <mxCell id="CIz18G-nKb8FOfD-lGbZ-83" value="資訊教室&lt;br&gt;C201" style="rounded=0;whiteSpace=wrap;html=1;fontSize=16;" parent="CIz18G-nKb8FOfD-lGbZ-68" vertex="1">
          <mxGeometry x="445.6363636363636" y="41.65573586178459" width="82.9090909090909" height="40.915189446464055" as="geometry"/>
        </mxCell>
        <mxCell id="CIz18G-nKb8FOfD-lGbZ-84" value="&lt;font style=&quot;font-size: 16px&quot;&gt;生物教室&lt;br&gt;C101&lt;br&gt;&lt;/font&gt;" style="rounded=0;whiteSpace=wrap;html=1;fontSize=16;" parent="CIz18G-nKb8FOfD-lGbZ-68" vertex="1">
          <mxGeometry x="383.45454545454544" y="81.92294719484305" width="145.0909090909091" height="40.915189446464055" as="geometry"/>
        </mxCell>
        <mxCell id="CIz18G-nKb8FOfD-lGbZ-85" value="" style="verticalLabelPosition=bottom;html=1;verticalAlign=top;align=center;shape=mxgraph.floorplan.stairs;direction=south;fontSize=16;" parent="CIz18G-nKb8FOfD-lGbZ-68" vertex="1">
          <mxGeometry x="528.5454545454545" width="41.45454545454545" height="124.96720758535402" as="geometry"/>
        </mxCell>
        <mxCell id="CIz18G-nKb8FOfD-lGbZ-86" value="" style="group" parent="yQfu56UTnZcEHh2kDQVF-1" vertex="1" connectable="0">
          <mxGeometry x="250" y="65" width="803" height="96.78481055353598" as="geometry"/>
        </mxCell>
        <mxCell id="CIz18G-nKb8FOfD-lGbZ-87" value="D106" style="rounded=0;whiteSpace=wrap;html=1;fontSize=16;" parent="CIz18G-nKb8FOfD-lGbZ-86" vertex="1">
          <mxGeometry x="202" y="44.21052631578948" width="79.99999999999999" height="44.21052631578948" as="geometry"/>
        </mxCell>
        <mxCell id="CIz18G-nKb8FOfD-lGbZ-88" value="D105" style="rounded=0;whiteSpace=wrap;html=1;fontSize=16;" parent="CIz18G-nKb8FOfD-lGbZ-86" vertex="1">
          <mxGeometry x="282" y="44.21052631578948" width="79.99999999999999" height="44.21052631578948" as="geometry"/>
        </mxCell>
        <mxCell id="CIz18G-nKb8FOfD-lGbZ-89" value="D104" style="rounded=0;whiteSpace=wrap;html=1;fontSize=16;" parent="CIz18G-nKb8FOfD-lGbZ-86" vertex="1">
          <mxGeometry x="442" y="44.21052631578948" width="79.99999999999999" height="44.21052631578948" as="geometry"/>
        </mxCell>
        <mxCell id="CIz18G-nKb8FOfD-lGbZ-90" value="D103" style="rounded=0;whiteSpace=wrap;html=1;fontSize=16;" parent="CIz18G-nKb8FOfD-lGbZ-86" vertex="1">
          <mxGeometry x="522" y="44.21052631578948" width="79.99999999999999" height="44.21052631578948" as="geometry"/>
        </mxCell>
        <mxCell id="CIz18G-nKb8FOfD-lGbZ-91" value="D101" style="rounded=0;whiteSpace=wrap;html=1;fontSize=16;" parent="CIz18G-nKb8FOfD-lGbZ-86" vertex="1">
          <mxGeometry x="681.9999999999999" y="44.21052631578948" width="79.99999999999999" height="44.21052631578948" as="geometry"/>
        </mxCell>
        <mxCell id="CIz18G-nKb8FOfD-lGbZ-92" value="D102" style="rounded=0;whiteSpace=wrap;html=1;fontSize=16;" parent="CIz18G-nKb8FOfD-lGbZ-86" vertex="1">
          <mxGeometry x="602" y="44.21052631578948" width="79.99999999999999" height="44.21052631578948" as="geometry"/>
        </mxCell>
        <mxCell id="CIz18G-nKb8FOfD-lGbZ-93" value="D207" style="rounded=0;whiteSpace=wrap;html=1;fontSize=16;" parent="CIz18G-nKb8FOfD-lGbZ-86" vertex="1">
          <mxGeometry x="202" width="79.99999999999999" height="44.21052631578948" as="geometry"/>
        </mxCell>
        <mxCell id="CIz18G-nKb8FOfD-lGbZ-94" value="D206" style="rounded=0;whiteSpace=wrap;html=1;fontSize=16;" parent="CIz18G-nKb8FOfD-lGbZ-86" vertex="1">
          <mxGeometry x="282" width="79.99999999999999" height="44.21052631578948" as="geometry"/>
        </mxCell>
        <mxCell id="CIz18G-nKb8FOfD-lGbZ-95" value="D205" style="rounded=0;whiteSpace=wrap;html=1;fontSize=16;" parent="CIz18G-nKb8FOfD-lGbZ-86" vertex="1">
          <mxGeometry x="362" width="79.99999999999999" height="44.21052631578948" as="geometry"/>
        </mxCell>
        <mxCell id="CIz18G-nKb8FOfD-lGbZ-96" value="D204" style="rounded=0;whiteSpace=wrap;html=1;fontSize=16;" parent="CIz18G-nKb8FOfD-lGbZ-86" vertex="1">
          <mxGeometry x="442" width="79.99999999999999" height="44.21052631578948" as="geometry"/>
        </mxCell>
        <mxCell id="CIz18G-nKb8FOfD-lGbZ-97" value="D203" style="rounded=0;whiteSpace=wrap;html=1;fontSize=16;" parent="CIz18G-nKb8FOfD-lGbZ-86" vertex="1">
          <mxGeometry x="522" width="79.99999999999999" height="44.21052631578948" as="geometry"/>
        </mxCell>
        <mxCell id="CIz18G-nKb8FOfD-lGbZ-98" value="D201" style="rounded=0;whiteSpace=wrap;html=1;fontSize=16;" parent="CIz18G-nKb8FOfD-lGbZ-86" vertex="1">
          <mxGeometry x="681.9999999999999" width="79.99999999999999" height="44.21052631578948" as="geometry"/>
        </mxCell>
        <mxCell id="CIz18G-nKb8FOfD-lGbZ-99" value="D202" style="rounded=0;whiteSpace=wrap;html=1;fontSize=16;" parent="CIz18G-nKb8FOfD-lGbZ-86" vertex="1">
          <mxGeometry x="602" width="79.99999999999999" height="44.21052631578948" as="geometry"/>
        </mxCell>
        <mxCell id="CIz18G-nKb8FOfD-lGbZ-100" value="D107" style="rounded=0;whiteSpace=wrap;html=1;fontSize=16;" parent="CIz18G-nKb8FOfD-lGbZ-86" vertex="1">
          <mxGeometry x="121" y="44" width="81" height="44" as="geometry"/>
        </mxCell>
        <mxCell id="CIz18G-nKb8FOfD-lGbZ-101" value="D208" style="rounded=0;whiteSpace=wrap;html=1;fontSize=16;" parent="CIz18G-nKb8FOfD-lGbZ-86" vertex="1">
          <mxGeometry x="122" width="79.99999999999999" height="44.21052631578948" as="geometry"/>
        </mxCell>
        <mxCell id="CIz18G-nKb8FOfD-lGbZ-102" value="D108" style="rounded=0;whiteSpace=wrap;html=1;fontSize=16;" parent="CIz18G-nKb8FOfD-lGbZ-86" vertex="1">
          <mxGeometry x="42" y="44.21052631578948" width="79.99999999999999" height="44.21052631578948" as="geometry"/>
        </mxCell>
        <mxCell id="CIz18G-nKb8FOfD-lGbZ-103" value="D209" style="rounded=0;whiteSpace=wrap;html=1;fontSize=16;" parent="CIz18G-nKb8FOfD-lGbZ-86" vertex="1">
          <mxGeometry x="42" width="79" height="44" as="geometry"/>
        </mxCell>
        <mxCell id="CIz18G-nKb8FOfD-lGbZ-104" value="" style="verticalLabelPosition=bottom;html=1;verticalAlign=top;align=center;shape=mxgraph.floorplan.stairs;direction=south;rotation=0;" parent="CIz18G-nKb8FOfD-lGbZ-86" vertex="1">
          <mxGeometry x="411" y="44" width="31" height="41" as="geometry"/>
        </mxCell>
        <mxCell id="CIz18G-nKb8FOfD-lGbZ-105" value="川堂" style="text;html=1;align=center;verticalAlign=middle;resizable=0;points=[];;autosize=1;fontSize=16;" parent="CIz18G-nKb8FOfD-lGbZ-86" vertex="1">
          <mxGeometry x="360.9545454545454" y="52.58481055353596" width="50" height="44.2" as="geometry"/>
        </mxCell>
        <mxCell id="CIz18G-nKb8FOfD-lGbZ-106" value="" style="verticalLabelPosition=bottom;html=1;verticalAlign=top;align=center;shape=mxgraph.floorplan.stairs;direction=south;fontSize=16;" parent="CIz18G-nKb8FOfD-lGbZ-86" vertex="1">
          <mxGeometry width="41" height="90" as="geometry"/>
        </mxCell>
        <mxCell id="CIz18G-nKb8FOfD-lGbZ-107" value="" style="verticalLabelPosition=bottom;html=1;verticalAlign=top;align=center;shape=mxgraph.floorplan.stairs;direction=south;fontSize=16;" parent="CIz18G-nKb8FOfD-lGbZ-86" vertex="1">
          <mxGeometry x="762" width="41" height="90" as="geometry"/>
        </mxCell>
        <mxCell id="CIz18G-nKb8FOfD-lGbZ-108" value="&lt;font style=&quot;font-size: 22px&quot;&gt;活動中心&lt;/font&gt;" style="ellipse;whiteSpace=wrap;html=1;" parent="yQfu56UTnZcEHh2kDQVF-1" vertex="1">
          <mxGeometry x="32" y="62" width="120" height="148" as="geometry"/>
        </mxCell>
        <mxCell id="CIz18G-nKb8FOfD-lGbZ-109" value="&lt;font style=&quot;font-size: 20px&quot;&gt;社&lt;br&gt;區&lt;br&gt;大&lt;br&gt;學&lt;/font&gt;" style="rounded=0;whiteSpace=wrap;html=1;" parent="yQfu56UTnZcEHh2kDQVF-1" vertex="1">
          <mxGeometry x="1033" y="200" width="40" height="280" as="geometry"/>
        </mxCell>
        <mxCell id="CIz18G-nKb8FOfD-lGbZ-110" value="&lt;font style=&quot;font-size: 20px&quot;&gt;社區大學&lt;/font&gt;" style="rounded=0;whiteSpace=wrap;html=1;" parent="yQfu56UTnZcEHh2kDQVF-1" vertex="1">
          <mxGeometry x="1073" y="200" width="40" height="280" as="geometry"/>
        </mxCell>
        <mxCell id="CIz18G-nKb8FOfD-lGbZ-111" value="&lt;font style=&quot;font-size: 18px&quot;&gt;1F&lt;/font&gt;" style="text;html=1;strokeColor=none;fillColor=none;align=center;verticalAlign=middle;whiteSpace=wrap;rounded=0;" parent="yQfu56UTnZcEHh2kDQVF-1" vertex="1">
          <mxGeometry x="112" y="735" width="40" height="22" as="geometry"/>
        </mxCell>
        <mxCell id="CIz18G-nKb8FOfD-lGbZ-112" value="&lt;font style=&quot;font-size: 18px&quot;&gt;2F&lt;/font&gt;" style="text;html=1;strokeColor=none;fillColor=none;align=center;verticalAlign=middle;whiteSpace=wrap;rounded=0;" parent="yQfu56UTnZcEHh2kDQVF-1" vertex="1">
          <mxGeometry x="112" y="690" width="40" height="22" as="geometry"/>
        </mxCell>
        <mxCell id="CIz18G-nKb8FOfD-lGbZ-113" value="&lt;font style=&quot;font-size: 18px&quot;&gt;3F&lt;/font&gt;" style="text;html=1;strokeColor=none;fillColor=none;align=center;verticalAlign=middle;whiteSpace=wrap;rounded=0;" parent="yQfu56UTnZcEHh2kDQVF-1" vertex="1">
          <mxGeometry x="112" y="645" width="40" height="22" as="geometry"/>
        </mxCell>
        <mxCell id="CIz18G-nKb8FOfD-lGbZ-114" value="&lt;font style=&quot;font-size: 18px&quot;&gt;4F&lt;/font&gt;" style="text;html=1;strokeColor=none;fillColor=none;align=center;verticalAlign=middle;whiteSpace=wrap;rounded=0;" parent="yQfu56UTnZcEHh2kDQVF-1" vertex="1">
          <mxGeometry x="112" y="600" width="40" height="22" as="geometry"/>
        </mxCell>
        <mxCell id="CIz18G-nKb8FOfD-lGbZ-115" value="&lt;font style=&quot;font-size: 18px&quot;&gt;1F&lt;/font&gt;" style="text;html=1;strokeColor=none;fillColor=none;align=center;verticalAlign=middle;whiteSpace=wrap;rounded=0;" parent="yQfu56UTnZcEHh2kDQVF-1" vertex="1">
          <mxGeometry x="364" y="291" width="40" height="22" as="geometry"/>
        </mxCell>
        <mxCell id="CIz18G-nKb8FOfD-lGbZ-116" value="&lt;font style=&quot;font-size: 18px&quot;&gt;2F&lt;/font&gt;" style="text;html=1;strokeColor=none;fillColor=none;align=center;verticalAlign=middle;whiteSpace=wrap;rounded=0;" parent="yQfu56UTnZcEHh2kDQVF-1" vertex="1">
          <mxGeometry x="364" y="246" width="40" height="22" as="geometry"/>
        </mxCell>
        <mxCell id="CIz18G-nKb8FOfD-lGbZ-117" value="&lt;font style=&quot;font-size: 18px&quot;&gt;3F&lt;/font&gt;" style="text;html=1;strokeColor=none;fillColor=none;align=center;verticalAlign=middle;whiteSpace=wrap;rounded=0;" parent="yQfu56UTnZcEHh2kDQVF-1" vertex="1">
          <mxGeometry x="364" y="201" width="40" height="22" as="geometry"/>
        </mxCell>
        <mxCell id="CIz18G-nKb8FOfD-lGbZ-118" value="&lt;font style=&quot;font-size: 18px&quot;&gt;1F&lt;/font&gt;" style="text;html=1;strokeColor=none;fillColor=none;align=center;verticalAlign=middle;whiteSpace=wrap;rounded=0;" parent="yQfu56UTnZcEHh2kDQVF-1" vertex="1">
          <mxGeometry x="215" y="125" width="40" height="22" as="geometry"/>
        </mxCell>
        <mxCell id="CIz18G-nKb8FOfD-lGbZ-119" value="&lt;font style=&quot;font-size: 18px&quot;&gt;2F&lt;/font&gt;" style="text;html=1;strokeColor=none;fillColor=none;align=center;verticalAlign=middle;whiteSpace=wrap;rounded=0;" parent="yQfu56UTnZcEHh2kDQVF-1" vertex="1">
          <mxGeometry x="215" y="80" width="40" height="22" as="geometry"/>
        </mxCell>
        <mxCell id="CIz18G-nKb8FOfD-lGbZ-120" value="&lt;font style=&quot;font-size: 18px&quot;&gt;1F&lt;/font&gt;" style="text;html=1;strokeColor=none;fillColor=none;align=center;verticalAlign=middle;whiteSpace=wrap;rounded=0;" parent="yQfu56UTnZcEHh2kDQVF-1" vertex="1">
          <mxGeometry x="1037" y="480" width="40" height="22" as="geometry"/>
        </mxCell>
        <mxCell id="CIz18G-nKb8FOfD-lGbZ-121" value="&lt;font style=&quot;font-size: 18px&quot;&gt;2F&lt;/font&gt;" style="text;html=1;strokeColor=none;fillColor=none;align=center;verticalAlign=middle;whiteSpace=wrap;rounded=0;" parent="yQfu56UTnZcEHh2kDQVF-1" vertex="1">
          <mxGeometry x="1074" y="480" width="40" height="22" as="geometry"/>
        </mxCell>
        <mxCell id="yQfu56UTnZcEHh2kDQVF-159" value="設備配置" style="" parent="yQfu56UTnZcEHh2kDQVF-0"/>
        <object label="&lt;font style=&quot;font-size: 16px&quot;&gt;SW&lt;/font&gt;" device="" location="" IPAddress="" id="yQfu56UTnZcEHh2kDQVF-84">
          <mxCell style="rounded=0;whiteSpace=wrap;html=1;strokeColor=#FF0000;strokeWidth=3;fillColor=none;fontSize=24;fontColor=#000000;align=center;" parent="yQfu56UTnZcEHh2kDQVF-159" vertex="1">
            <mxGeometry x="800" y="730" width="36" height="20" as="geometry"/>
          </mxCell>
        </object>
        <mxCell id="yQfu56UTnZcEHh2kDQVF-85" style="edgeStyle=elbowEdgeStyle;rounded=1;orthogonalLoop=1;jettySize=auto;html=1;exitX=1;exitY=0.5;exitDx=0;exitDy=0;entryX=1;entryY=0.25;entryDx=0;entryDy=0;endArrow=none;endFill=0;strokeColor=#000000;strokeWidth=3;" parent="yQfu56UTnZcEHh2kDQVF-159" source="yQfu56UTnZcEHh2kDQVF-86" target="yQfu56UTnZcEHh2kDQVF-84" edge="1">
          <mxGeometry relative="1" as="geometry">
            <Array as="points">
              <mxPoint x="840" y="720"/>
            </Array>
          </mxGeometry>
        </mxCell>
        <object label="&lt;font style=&quot;font-size: 16px&quot;&gt;SW&lt;/font&gt;" device="" location="" IPAddress="" id="yQfu56UTnZcEHh2kDQVF-86">
          <mxCell style="rounded=0;whiteSpace=wrap;html=1;strokeColor=#FF0000;strokeWidth=3;fillColor=none;fontSize=24;fontColor=#000000;align=center;" parent="yQfu56UTnZcEHh2kDQVF-159" vertex="1">
            <mxGeometry x="800" y="685" width="36" height="20" as="geometry"/>
          </mxCell>
        </object>
        <mxCell id="yQfu56UTnZcEHh2kDQVF-87" style="edgeStyle=elbowEdgeStyle;rounded=1;orthogonalLoop=1;jettySize=auto;html=1;exitX=1;exitY=0.5;exitDx=0;exitDy=0;entryX=1;entryY=0.5;entryDx=0;entryDy=0;endArrow=none;endFill=0;strokeColor=#000000;strokeWidth=3;" parent="yQfu56UTnZcEHh2kDQVF-159" source="yQfu56UTnZcEHh2kDQVF-88" target="yQfu56UTnZcEHh2kDQVF-84" edge="1">
          <mxGeometry relative="1" as="geometry">
            <Array as="points">
              <mxPoint x="845" y="680"/>
            </Array>
          </mxGeometry>
        </mxCell>
        <object label="&lt;font style=&quot;font-size: 16px&quot;&gt;SW&lt;/font&gt;" device="" location="" IPAddress="" id="yQfu56UTnZcEHh2kDQVF-88">
          <mxCell style="rounded=0;whiteSpace=wrap;html=1;strokeColor=#FF0000;strokeWidth=3;fillColor=none;fontSize=24;fontColor=#000000;align=center;" parent="yQfu56UTnZcEHh2kDQVF-159" vertex="1">
            <mxGeometry x="800" y="645" width="36" height="20" as="geometry"/>
          </mxCell>
        </object>
        <mxCell id="yQfu56UTnZcEHh2kDQVF-89" style="edgeStyle=elbowEdgeStyle;rounded=1;orthogonalLoop=1;jettySize=auto;html=1;exitX=1;exitY=0.5;exitDx=0;exitDy=0;entryX=1;entryY=0.75;entryDx=0;entryDy=0;endArrow=none;endFill=0;strokeColor=#000000;strokeWidth=3;" parent="yQfu56UTnZcEHh2kDQVF-159" source="yQfu56UTnZcEHh2kDQVF-90" target="yQfu56UTnZcEHh2kDQVF-84" edge="1">
          <mxGeometry relative="1" as="geometry">
            <Array as="points">
              <mxPoint x="855" y="650"/>
            </Array>
          </mxGeometry>
        </mxCell>
        <object label="&lt;font style=&quot;font-size: 16px&quot;&gt;SW&lt;/font&gt;" device="" location="" IPAddress="" id="yQfu56UTnZcEHh2kDQVF-90">
          <mxCell style="rounded=0;whiteSpace=wrap;html=1;strokeColor=#FF0000;strokeWidth=3;fillColor=none;fontSize=24;fontColor=#000000;align=center;" parent="yQfu56UTnZcEHh2kDQVF-159" vertex="1">
            <mxGeometry x="800" y="600" width="36" height="20" as="geometry"/>
          </mxCell>
        </object>
        <object label="&lt;font style=&quot;font-size: 16px&quot;&gt;SW&lt;/font&gt;" device="" location="" IPAddress="" id="yQfu56UTnZcEHh2kDQVF-31">
          <mxCell style="rounded=0;whiteSpace=wrap;html=1;strokeColor=#FF0000;strokeWidth=3;fillColor=none;fontSize=24;fontColor=#000000;align=center;" parent="yQfu56UTnZcEHh2kDQVF-159" vertex="1">
            <mxGeometry x="890" y="560" width="36" height="20" as="geometry"/>
          </mxCell>
        </object>
        <mxCell id="yQfu56UTnZcEHh2kDQVF-32" style="edgeStyle=orthogonalEdgeStyle;rounded=1;orthogonalLoop=1;jettySize=auto;html=1;exitX=1;exitY=0.75;exitDx=0;exitDy=0;entryX=0;entryY=0.25;entryDx=0;entryDy=0;endArrow=none;endFill=0;strokeWidth=3;" parent="yQfu56UTnZcEHh2kDQVF-159" source="yQfu56UTnZcEHh2kDQVF-33" target="yQfu56UTnZcEHh2kDQVF-31" edge="1">
          <mxGeometry relative="1" as="geometry">
            <Array as="points">
              <mxPoint x="760" y="530"/>
              <mxPoint x="760" y="565"/>
            </Array>
          </mxGeometry>
        </mxCell>
        <object label="&lt;font style=&quot;font-size: 16px&quot;&gt;SW&lt;/font&gt;" device="" location="" IPAddress="" id="yQfu56UTnZcEHh2kDQVF-33">
          <mxCell style="rounded=0;whiteSpace=wrap;html=1;strokeColor=#FF0000;strokeWidth=3;fillColor=none;fontSize=24;fontColor=#000000;align=center;" parent="yQfu56UTnZcEHh2kDQVF-159" vertex="1">
            <mxGeometry x="695" y="515" width="36" height="20" as="geometry"/>
          </mxCell>
        </object>
        <object label="&lt;font style=&quot;font-size: 12px&quot;&gt;SW&lt;/font&gt;" device="" location="" IPAddress="" id="yQfu56UTnZcEHh2kDQVF-34">
          <mxCell style="rounded=0;whiteSpace=wrap;html=1;strokeColor=#FF0000;strokeWidth=3;fillColor=none;fontSize=24;fontColor=#000000;align=center;" parent="yQfu56UTnZcEHh2kDQVF-159" vertex="1">
            <mxGeometry x="985" y="425" width="25" height="20" as="geometry"/>
          </mxCell>
        </object>
        <mxCell id="yQfu56UTnZcEHh2kDQVF-35" style="edgeStyle=elbowEdgeStyle;rounded=1;orthogonalLoop=1;jettySize=auto;elbow=vertical;html=1;exitX=0.5;exitY=1;exitDx=0;exitDy=0;entryX=0.75;entryY=0;entryDx=0;entryDy=0;endArrow=none;endFill=0;strokeColor=#000000;strokeWidth=3;" parent="yQfu56UTnZcEHh2kDQVF-159" source="yQfu56UTnZcEHh2kDQVF-36" target="yQfu56UTnZcEHh2kDQVF-31" edge="1">
          <mxGeometry relative="1" as="geometry"/>
        </mxCell>
        <object label="&lt;font style=&quot;font-size: 16px&quot;&gt;SW&lt;/font&gt;" device="" location="" IPAddress="" id="yQfu56UTnZcEHh2kDQVF-36">
          <mxCell style="rounded=0;whiteSpace=wrap;html=1;strokeColor=#FF0000;strokeWidth=3;fillColor=none;fontSize=24;fontColor=#000000;align=center;" parent="yQfu56UTnZcEHh2kDQVF-159" vertex="1">
            <mxGeometry x="920" y="520" width="36" height="20" as="geometry"/>
          </mxCell>
        </object>
        <mxCell id="yQfu56UTnZcEHh2kDQVF-37" style="edgeStyle=elbowEdgeStyle;rounded=1;orthogonalLoop=1;jettySize=auto;html=1;exitX=0;exitY=0.5;exitDx=0;exitDy=0;entryX=0.5;entryY=0;entryDx=0;entryDy=0;endArrow=none;endFill=0;strokeColor=#000000;strokeWidth=3;elbow=vertical;" parent="yQfu56UTnZcEHh2kDQVF-159" source="yQfu56UTnZcEHh2kDQVF-38" target="yQfu56UTnZcEHh2kDQVF-31" edge="1">
          <mxGeometry relative="1" as="geometry">
            <mxPoint x="917.344827586207" y="484.8275862068966" as="sourcePoint"/>
            <mxPoint x="904.9310344827586" y="560" as="targetPoint"/>
            <Array as="points">
              <mxPoint x="908" y="485"/>
            </Array>
          </mxGeometry>
        </mxCell>
        <object label="&lt;font style=&quot;font-size: 16px&quot;&gt;SW&lt;/font&gt;" device="" location="" IPAddress="" id="yQfu56UTnZcEHh2kDQVF-38">
          <mxCell style="rounded=0;whiteSpace=wrap;html=1;strokeColor=#FF0000;strokeWidth=3;fillColor=none;fontSize=24;fontColor=#000000;align=center;" parent="yQfu56UTnZcEHh2kDQVF-159" vertex="1">
            <mxGeometry x="920" y="475" width="36" height="20" as="geometry"/>
          </mxCell>
        </object>
        <mxCell id="yQfu56UTnZcEHh2kDQVF-39" style="edgeStyle=elbowEdgeStyle;rounded=1;orthogonalLoop=1;jettySize=auto;elbow=vertical;html=1;exitX=0.5;exitY=1;exitDx=0;exitDy=0;endArrow=none;endFill=0;strokeColor=#000000;strokeWidth=3;" parent="yQfu56UTnZcEHh2kDQVF-159" source="yQfu56UTnZcEHh2kDQVF-40" target="yQfu56UTnZcEHh2kDQVF-33" edge="1">
          <mxGeometry relative="1" as="geometry"/>
        </mxCell>
        <object label="&lt;font style=&quot;font-size: 16px&quot;&gt;SW&lt;/font&gt;" device="" location="" IPAddress="" id="yQfu56UTnZcEHh2kDQVF-40">
          <mxCell style="rounded=0;whiteSpace=wrap;html=1;strokeColor=#FF0000;strokeWidth=3;fillColor=none;fontSize=24;fontColor=#000000;align=center;" parent="yQfu56UTnZcEHh2kDQVF-159" vertex="1">
            <mxGeometry x="695" y="455" width="36" height="20" as="geometry"/>
          </mxCell>
        </object>
        <mxCell id="yQfu56UTnZcEHh2kDQVF-41" style="edgeStyle=elbowEdgeStyle;rounded=1;orthogonalLoop=1;jettySize=auto;html=1;exitX=1;exitY=0.75;exitDx=0;exitDy=0;entryX=1;entryY=0.25;entryDx=0;entryDy=0;endArrow=none;endFill=0;strokeColor=#000000;strokeWidth=3;" parent="yQfu56UTnZcEHh2kDQVF-159" source="yQfu56UTnZcEHh2kDQVF-42" target="yQfu56UTnZcEHh2kDQVF-33" edge="1">
          <mxGeometry relative="1" as="geometry">
            <Array as="points">
              <mxPoint x="740" y="455"/>
            </Array>
          </mxGeometry>
        </mxCell>
        <object label="&lt;font style=&quot;font-size: 16px&quot;&gt;SW&lt;/font&gt;" device="" location="" IPAddress="" id="yQfu56UTnZcEHh2kDQVF-42">
          <mxCell style="rounded=0;whiteSpace=wrap;html=1;strokeColor=#FF0000;strokeWidth=3;fillColor=none;fontSize=24;fontColor=#000000;align=center;" parent="yQfu56UTnZcEHh2kDQVF-159" vertex="1">
            <mxGeometry x="695" y="410" width="36" height="20" as="geometry"/>
          </mxCell>
        </object>
        <mxCell id="yQfu56UTnZcEHh2kDQVF-43" style="edgeStyle=elbowEdgeStyle;rounded=1;orthogonalLoop=1;jettySize=auto;html=1;exitX=1;exitY=0.5;exitDx=0;exitDy=0;entryX=1;entryY=0.5;entryDx=0;entryDy=0;endArrow=none;endFill=0;strokeColor=#000000;strokeWidth=3;" parent="yQfu56UTnZcEHh2kDQVF-159" source="yQfu56UTnZcEHh2kDQVF-44" target="yQfu56UTnZcEHh2kDQVF-33" edge="1">
          <mxGeometry relative="1" as="geometry">
            <Array as="points">
              <mxPoint x="750" y="410"/>
            </Array>
          </mxGeometry>
        </mxCell>
        <object label="&lt;font style=&quot;font-size: 16px&quot;&gt;SW&lt;/font&gt;" device="" location="" IPAddress="" id="yQfu56UTnZcEHh2kDQVF-44">
          <mxCell style="rounded=0;whiteSpace=wrap;html=1;strokeColor=#FF0000;strokeWidth=3;fillColor=none;fontSize=24;fontColor=#000000;align=center;" parent="yQfu56UTnZcEHh2kDQVF-159" vertex="1">
            <mxGeometry x="695" y="366" width="36" height="20" as="geometry"/>
          </mxCell>
        </object>
        <mxCell id="yQfu56UTnZcEHh2kDQVF-143" value="" style="group;fillColor=none;verticalAlign=bottom;labelPosition=center;verticalLabelPosition=top;align=center;" parent="yQfu56UTnZcEHh2kDQVF-159" vertex="1" connectable="0">
          <mxGeometry x="595" y="105" width="29" height="25" as="geometry"/>
        </mxCell>
        <mxCell id="yQfu56UTnZcEHh2kDQVF-144" style="rounded=1;orthogonalLoop=1;jettySize=auto;html=1;exitX=0.75;exitY=0;exitDx=0;exitDy=0;entryX=0;entryY=0.5;entryDx=0;entryDy=0;endArrow=none;endFill=0;strokeWidth=3;" parent="yQfu56UTnZcEHh2kDQVF-159" target="yQfu56UTnZcEHh2kDQVF-175" edge="1">
          <mxGeometry relative="1" as="geometry">
            <mxPoint x="617.3000000000002" y="115" as="sourcePoint"/>
          </mxGeometry>
        </mxCell>
        <mxCell id="yQfu56UTnZcEHh2kDQVF-109" value="&lt;font style=&quot;font-size: 15px&quot;&gt;GW&lt;/font&gt;" style="rounded=0;whiteSpace=wrap;html=1;strokeColor=#FF0000;strokeWidth=3;" parent="yQfu56UTnZcEHh2kDQVF-159" vertex="1">
          <mxGeometry x="835" y="229" width="30" height="22" as="geometry"/>
        </mxCell>
        <mxCell id="yQfu56UTnZcEHh2kDQVF-110" style="edgeStyle=elbowEdgeStyle;rounded=1;orthogonalLoop=1;jettySize=auto;html=1;exitX=0;exitY=0.75;exitDx=0;exitDy=0;entryX=0.75;entryY=0;entryDx=0;entryDy=0;endArrow=none;endFill=0;strokeWidth=3;elbow=vertical;" parent="yQfu56UTnZcEHh2kDQVF-159" source="yQfu56UTnZcEHh2kDQVF-111" target="yQfu56UTnZcEHh2kDQVF-115" edge="1">
          <mxGeometry relative="1" as="geometry"/>
        </mxCell>
        <object label="&lt;font style=&quot;font-size: 16px&quot;&gt;SW&lt;/font&gt;" device="" location="" IPAddress="" id="yQfu56UTnZcEHh2kDQVF-111">
          <mxCell style="rounded=0;whiteSpace=wrap;html=1;strokeColor=#FF0000;strokeWidth=3;fillColor=none;fontSize=24;fontColor=#000000;align=center;" parent="yQfu56UTnZcEHh2kDQVF-159" vertex="1">
            <mxGeometry x="915" y="230" width="36" height="20" as="geometry"/>
          </mxCell>
        </object>
        <mxCell id="yQfu56UTnZcEHh2kDQVF-112" style="edgeStyle=elbowEdgeStyle;rounded=1;orthogonalLoop=1;jettySize=auto;elbow=vertical;html=1;exitX=0.75;exitY=0;exitDx=0;exitDy=0;entryX=0.25;entryY=0;entryDx=0;entryDy=0;endArrow=none;endFill=0;strokeWidth=3;" parent="yQfu56UTnZcEHh2kDQVF-159" source="yQfu56UTnZcEHh2kDQVF-109" target="yQfu56UTnZcEHh2kDQVF-111" edge="1">
          <mxGeometry relative="1" as="geometry">
            <Array as="points">
              <mxPoint x="890" y="220"/>
            </Array>
          </mxGeometry>
        </mxCell>
        <mxCell id="yQfu56UTnZcEHh2kDQVF-113" style="edgeStyle=elbowEdgeStyle;rounded=1;orthogonalLoop=1;jettySize=auto;elbow=vertical;html=1;exitX=0.75;exitY=0;exitDx=0;exitDy=0;entryX=0.25;entryY=1;entryDx=0;entryDy=0;endArrow=none;endFill=0;strokeWidth=3;" parent="yQfu56UTnZcEHh2kDQVF-159" source="yQfu56UTnZcEHh2kDQVF-114" target="yQfu56UTnZcEHh2kDQVF-111" edge="1">
          <mxGeometry relative="1" as="geometry"/>
        </mxCell>
        <object label="&lt;font style=&quot;font-size: 12px&quot;&gt;SW&lt;/font&gt;" device="" location="" IPAddress="" id="yQfu56UTnZcEHh2kDQVF-114">
          <mxCell style="rounded=0;whiteSpace=wrap;html=1;strokeColor=#FF0000;strokeWidth=3;fillColor=none;fontSize=24;fontColor=#000000;align=center;" parent="yQfu56UTnZcEHh2kDQVF-159" vertex="1">
            <mxGeometry x="900" y="265" width="25" height="20" as="geometry"/>
          </mxCell>
        </object>
        <object label="&lt;font style=&quot;font-size: 16px&quot;&gt;SW&lt;/font&gt;" device="" location="" IPAddress="" id="yQfu56UTnZcEHh2kDQVF-115">
          <mxCell style="rounded=0;whiteSpace=wrap;html=1;strokeColor=#FF0000;strokeWidth=3;fillColor=none;fontSize=24;fontColor=#000000;align=center;" parent="yQfu56UTnZcEHh2kDQVF-159" vertex="1">
            <mxGeometry x="790" y="270" width="36" height="20" as="geometry"/>
          </mxCell>
        </object>
        <mxCell id="yQfu56UTnZcEHh2kDQVF-116" value="&lt;font style=&quot;font-size: 15px&quot;&gt;FW&lt;/font&gt;" style="rounded=0;whiteSpace=wrap;html=1;strokeColor=#FF0000;strokeWidth=3;" parent="yQfu56UTnZcEHh2kDQVF-159" vertex="1">
          <mxGeometry x="760" y="230" width="30" height="22" as="geometry"/>
        </mxCell>
        <mxCell id="yQfu56UTnZcEHh2kDQVF-117" style="edgeStyle=elbowEdgeStyle;rounded=1;orthogonalLoop=1;jettySize=auto;elbow=vertical;html=1;exitX=0.75;exitY=1;exitDx=0;exitDy=0;entryX=0.5;entryY=0;entryDx=0;entryDy=0;endArrow=none;endFill=0;strokeWidth=3;" parent="yQfu56UTnZcEHh2kDQVF-159" source="yQfu56UTnZcEHh2kDQVF-116" target="yQfu56UTnZcEHh2kDQVF-115" edge="1">
          <mxGeometry relative="1" as="geometry"/>
        </mxCell>
        <mxCell id="yQfu56UTnZcEHh2kDQVF-118" value="" style="group;fillColor=none;verticalAlign=bottom;labelPosition=center;verticalLabelPosition=top;align=center;" parent="yQfu56UTnZcEHh2kDQVF-159" vertex="1" connectable="0">
          <mxGeometry x="630" y="195" width="29" height="25" as="geometry"/>
        </mxCell>
        <mxCell id="yQfu56UTnZcEHh2kDQVF-119" value="&lt;font style=&quot;font-size: 12px&quot;&gt;AP&lt;/font&gt;" style="triangle;whiteSpace=wrap;html=1;shadow=0;strokeColor=#000000;strokeWidth=3;fillColor=none;fontSize=24;rotation=-90;rounded=0;verticalAlign=bottom;" parent="yQfu56UTnZcEHh2kDQVF-118" vertex="1">
          <mxGeometry width="28.999999999999996" height="25" as="geometry"/>
        </mxCell>
        <mxCell id="yQfu56UTnZcEHh2kDQVF-120" style="edgeStyle=orthogonalEdgeStyle;rounded=1;orthogonalLoop=1;jettySize=auto;elbow=vertical;html=1;exitX=0;exitY=0.75;exitDx=0;exitDy=0;entryX=0.25;entryY=0;entryDx=0;entryDy=0;endArrow=none;endFill=0;strokeWidth=3;" parent="yQfu56UTnZcEHh2kDQVF-159" source="yQfu56UTnZcEHh2kDQVF-119" target="yQfu56UTnZcEHh2kDQVF-115" edge="1">
          <mxGeometry relative="1" as="geometry">
            <Array as="points">
              <mxPoint x="650" y="222"/>
              <mxPoint x="650" y="265"/>
              <mxPoint x="799" y="265"/>
            </Array>
          </mxGeometry>
        </mxCell>
        <mxCell id="yQfu56UTnZcEHh2kDQVF-160" value="&lt;font style=&quot;font-size: 24px&quot;&gt;R&lt;/font&gt;" style="ellipse;whiteSpace=wrap;html=1;aspect=fixed;strokeColor=#FF0000;strokeWidth=3;" parent="yQfu56UTnZcEHh2kDQVF-159" vertex="1">
          <mxGeometry x="797" y="226" width="27" height="27" as="geometry"/>
        </mxCell>
        <mxCell id="yQfu56UTnZcEHh2kDQVF-161" style="edgeStyle=orthogonalEdgeStyle;rounded=1;orthogonalLoop=1;jettySize=auto;html=1;exitX=1;exitY=0.75;exitDx=0;exitDy=0;entryX=0.25;entryY=1;entryDx=0;entryDy=0;endArrow=none;endFill=0;strokeWidth=3;" parent="yQfu56UTnZcEHh2kDQVF-159" source="yQfu56UTnZcEHh2kDQVF-163" target="yQfu56UTnZcEHh2kDQVF-167" edge="1">
          <mxGeometry relative="1" as="geometry">
            <Array as="points">
              <mxPoint x="210" y="110"/>
              <mxPoint x="210" y="330"/>
              <mxPoint x="504" y="330"/>
            </Array>
          </mxGeometry>
        </mxCell>
        <mxCell id="yQfu56UTnZcEHh2kDQVF-162" value="&lt;font style=&quot;font-size: 16px&quot;&gt;Cat.6 UTP&lt;br&gt;&lt;/font&gt;" style="text;html=1;align=center;verticalAlign=middle;resizable=0;points=[];;labelBackgroundColor=none;" parent="yQfu56UTnZcEHh2kDQVF-161" vertex="1" connectable="0">
          <mxGeometry x="-0.433" relative="1" as="geometry">
            <mxPoint x="180" y="77" as="offset"/>
          </mxGeometry>
        </mxCell>
        <object label="&lt;font style=&quot;font-size: 16px&quot;&gt;SW&lt;/font&gt;" device="" location="" IPAddress="" id="yQfu56UTnZcEHh2kDQVF-163">
          <mxCell style="rounded=0;whiteSpace=wrap;html=1;strokeColor=#FF0000;strokeWidth=3;fillColor=none;fontSize=24;fontColor=#000000;align=center;" parent="yQfu56UTnZcEHh2kDQVF-159" vertex="1">
            <mxGeometry x="155" y="95" width="36" height="20" as="geometry"/>
          </mxCell>
        </object>
        <mxCell id="yQfu56UTnZcEHh2kDQVF-164" style="edgeStyle=elbowEdgeStyle;rounded=1;orthogonalLoop=1;jettySize=auto;html=1;exitX=0.236;exitY=0.812;exitDx=0;exitDy=0;entryX=0.25;entryY=1;entryDx=0;entryDy=0;strokeWidth=3;endArrow=none;endFill=0;exitPerimeter=0;" parent="yQfu56UTnZcEHh2kDQVF-159" source="yQfu56UTnZcEHh2kDQVF-181" target="yQfu56UTnZcEHh2kDQVF-163" edge="1">
          <mxGeometry relative="1" as="geometry">
            <mxPoint x="141.57142857142867" y="165.57142857142867" as="sourcePoint"/>
          </mxGeometry>
        </mxCell>
        <mxCell id="yQfu56UTnZcEHh2kDQVF-165" style="edgeStyle=orthogonalEdgeStyle;rounded=1;orthogonalLoop=1;jettySize=auto;html=1;exitX=0.5;exitY=0;exitDx=0;exitDy=0;entryX=0.5;entryY=0;entryDx=0;entryDy=0;endArrow=none;endFill=0;strokeWidth=3;strokeColor=#FF0000;" parent="yQfu56UTnZcEHh2kDQVF-159" source="yQfu56UTnZcEHh2kDQVF-178" target="yQfu56UTnZcEHh2kDQVF-160" edge="1">
          <mxGeometry relative="1" as="geometry">
            <Array as="points">
              <mxPoint x="94" y="66"/>
              <mxPoint x="94" y="40"/>
              <mxPoint x="220" y="40"/>
              <mxPoint x="220" y="316"/>
              <mxPoint x="364" y="316"/>
              <mxPoint x="364" y="186"/>
              <mxPoint x="810" y="186"/>
            </Array>
          </mxGeometry>
        </mxCell>
        <mxCell id="yQfu56UTnZcEHh2kDQVF-166" value="&lt;font style=&quot;font-size: 16px&quot;&gt;G.657光纖&lt;/font&gt;" style="text;html=1;align=center;verticalAlign=middle;resizable=0;points=[];;labelBackgroundColor=none;" parent="yQfu56UTnZcEHh2kDQVF-165" vertex="1" connectable="0">
          <mxGeometry x="-0.1363" y="-2" relative="1" as="geometry">
            <mxPoint x="111" y="-142" as="offset"/>
          </mxGeometry>
        </mxCell>
        <object label="&lt;font style=&quot;font-size: 16px&quot;&gt;SW&lt;/font&gt;" device="" location="" IPAddress="" id="yQfu56UTnZcEHh2kDQVF-167">
          <mxCell style="rounded=0;whiteSpace=wrap;html=1;strokeColor=#FF0000;strokeWidth=3;fillColor=none;fontSize=24;fontColor=#000000;align=center;" parent="yQfu56UTnZcEHh2kDQVF-159" vertex="1">
            <mxGeometry x="495" y="238" width="36" height="20" as="geometry"/>
          </mxCell>
        </object>
        <object label="&lt;font style=&quot;font-size: 16px&quot;&gt;SW&lt;/font&gt;" device="" location="" IPAddress="" id="yQfu56UTnZcEHh2kDQVF-168">
          <mxCell style="rounded=0;whiteSpace=wrap;html=1;strokeColor=#FF0000;strokeWidth=3;fillColor=none;fontSize=24;fontColor=#000000;align=center;" parent="yQfu56UTnZcEHh2kDQVF-159" vertex="1">
            <mxGeometry x="600" y="240" width="36" height="20" as="geometry"/>
          </mxCell>
        </object>
        <mxCell id="yQfu56UTnZcEHh2kDQVF-169" style="edgeStyle=orthogonalEdgeStyle;rounded=1;orthogonalLoop=1;jettySize=auto;html=1;exitX=0.75;exitY=1;exitDx=0;exitDy=0;entryX=0.25;entryY=1;entryDx=0;entryDy=0;endArrow=none;endFill=0;strokeWidth=3;" parent="yQfu56UTnZcEHh2kDQVF-159" source="yQfu56UTnZcEHh2kDQVF-167" target="yQfu56UTnZcEHh2kDQVF-168" edge="1">
          <mxGeometry relative="1" as="geometry">
            <Array as="points">
              <mxPoint x="522" y="275"/>
              <mxPoint x="609" y="275"/>
            </Array>
          </mxGeometry>
        </mxCell>
        <mxCell id="yQfu56UTnZcEHh2kDQVF-170" style="rounded=1;orthogonalLoop=1;jettySize=auto;html=1;exitX=0.25;exitY=0;exitDx=0;exitDy=0;entryX=1;entryY=0;entryDx=0;entryDy=0;endArrow=none;endFill=0;strokeWidth=3;edgeStyle=elbowEdgeStyle;" parent="yQfu56UTnZcEHh2kDQVF-159" source="yQfu56UTnZcEHh2kDQVF-109" target="yQfu56UTnZcEHh2kDQVF-160" edge="1">
          <mxGeometry relative="1" as="geometry">
            <Array as="points">
              <mxPoint x="815" y="220"/>
              <mxPoint x="815" y="225"/>
            </Array>
          </mxGeometry>
        </mxCell>
        <mxCell id="yQfu56UTnZcEHh2kDQVF-171" style="edgeStyle=orthogonalEdgeStyle;rounded=1;orthogonalLoop=1;jettySize=auto;html=1;exitX=0.75;exitY=0;exitDx=0;exitDy=0;entryX=0.75;entryY=1;entryDx=0;entryDy=0;endArrow=none;endFill=0;strokeWidth=3;" parent="yQfu56UTnZcEHh2kDQVF-159" source="yQfu56UTnZcEHh2kDQVF-34" target="yQfu56UTnZcEHh2kDQVF-111" edge="1">
          <mxGeometry relative="1" as="geometry">
            <Array as="points">
              <mxPoint x="1004" y="335"/>
              <mxPoint x="942" y="335"/>
            </Array>
          </mxGeometry>
        </mxCell>
        <mxCell id="yQfu56UTnZcEHh2kDQVF-172" style="edgeStyle=orthogonalEdgeStyle;rounded=1;orthogonalLoop=1;jettySize=auto;html=1;exitX=0.75;exitY=1;exitDx=0;exitDy=0;endArrow=none;endFill=0;strokeWidth=3;entryX=0;entryY=0.25;entryDx=0;entryDy=0;" parent="yQfu56UTnZcEHh2kDQVF-159" source="yQfu56UTnZcEHh2kDQVF-168" target="yQfu56UTnZcEHh2kDQVF-115" edge="1">
          <mxGeometry relative="1" as="geometry">
            <mxPoint x="780" y="255" as="targetPoint"/>
            <Array as="points">
              <mxPoint x="627" y="275"/>
            </Array>
            <mxPoint x="627" y="260" as="sourcePoint"/>
          </mxGeometry>
        </mxCell>
        <mxCell id="yQfu56UTnZcEHh2kDQVF-173" style="edgeStyle=elbowEdgeStyle;rounded=1;orthogonalLoop=1;jettySize=auto;html=1;exitX=0.75;exitY=0;exitDx=0;exitDy=0;endArrow=none;endFill=0;strokeWidth=3;elbow=vertical;entryX=0;entryY=0;entryDx=0;entryDy=0;" parent="yQfu56UTnZcEHh2kDQVF-159" source="yQfu56UTnZcEHh2kDQVF-116" target="yQfu56UTnZcEHh2kDQVF-160" edge="1">
          <mxGeometry relative="1" as="geometry">
            <mxPoint x="783" y="250" as="targetPoint"/>
            <Array as="points">
              <mxPoint x="790" y="220"/>
            </Array>
          </mxGeometry>
        </mxCell>
        <mxCell id="yQfu56UTnZcEHh2kDQVF-174" style="edgeStyle=elbowEdgeStyle;rounded=1;orthogonalLoop=1;jettySize=auto;elbow=vertical;html=1;exitX=0.25;exitY=0;exitDx=0;exitDy=0;entryX=0.75;entryY=1;entryDx=0;entryDy=0;endArrow=none;endFill=0;strokeWidth=3;" parent="yQfu56UTnZcEHh2kDQVF-159" source="yQfu56UTnZcEHh2kDQVF-31" target="yQfu56UTnZcEHh2kDQVF-115" edge="1">
          <mxGeometry relative="1" as="geometry">
            <Array as="points">
              <mxPoint x="880" y="325"/>
              <mxPoint x="900" y="550"/>
              <mxPoint x="895" y="425"/>
              <mxPoint x="840" y="300"/>
              <mxPoint x="905" y="290"/>
            </Array>
          </mxGeometry>
        </mxCell>
        <object label="&lt;font style=&quot;font-size: 16px&quot;&gt;SW&lt;/font&gt;" device="" location="" IPAddress="" id="yQfu56UTnZcEHh2kDQVF-175">
          <mxCell style="rounded=0;whiteSpace=wrap;html=1;strokeColor=#FF0000;strokeWidth=3;fillColor=none;fontSize=24;fontColor=#000000;align=center;" parent="yQfu56UTnZcEHh2kDQVF-159" vertex="1">
            <mxGeometry x="625" y="60" width="36" height="20" as="geometry"/>
          </mxCell>
        </object>
        <mxCell id="yQfu56UTnZcEHh2kDQVF-176" style="edgeStyle=none;rounded=1;orthogonalLoop=1;jettySize=auto;html=1;exitX=0;exitY=0.75;exitDx=0;exitDy=0;entryX=1;entryY=0.5;entryDx=0;entryDy=0;endArrow=none;endFill=0;strokeWidth=2;dashed=1;strokeColor=#FF9933;" parent="yQfu56UTnZcEHh2kDQVF-159" source="yQfu56UTnZcEHh2kDQVF-182" target="yQfu56UTnZcEHh2kDQVF-119" edge="1">
          <mxGeometry relative="1" as="geometry"/>
        </mxCell>
        <mxCell id="yQfu56UTnZcEHh2kDQVF-177" style="edgeStyle=orthogonalEdgeStyle;rounded=1;orthogonalLoop=1;jettySize=auto;html=1;exitX=0.5;exitY=1;exitDx=0;exitDy=0;entryX=0.5;entryY=1;entryDx=0;entryDy=0;endArrow=none;endFill=0;strokeColor=#000000;strokeWidth=3;elbow=vertical;" parent="yQfu56UTnZcEHh2kDQVF-159" source="yQfu56UTnZcEHh2kDQVF-84" target="yQfu56UTnZcEHh2kDQVF-33" edge="1">
          <mxGeometry relative="1" as="geometry">
            <Array as="points">
              <mxPoint x="818" y="790"/>
              <mxPoint x="790" y="790"/>
              <mxPoint x="790" y="575"/>
              <mxPoint x="713" y="575"/>
            </Array>
          </mxGeometry>
        </mxCell>
        <mxCell id="yQfu56UTnZcEHh2kDQVF-178" value="&lt;font style=&quot;font-size: 15px&quot;&gt;GW&lt;/font&gt;" style="rounded=0;whiteSpace=wrap;html=1;strokeColor=#FF0000;strokeWidth=3;" parent="yQfu56UTnZcEHh2kDQVF-159" vertex="1">
          <mxGeometry x="75" y="65" width="30" height="22" as="geometry"/>
        </mxCell>
        <mxCell id="yQfu56UTnZcEHh2kDQVF-179" style="edgeStyle=elbowEdgeStyle;rounded=1;orthogonalLoop=1;jettySize=auto;html=1;exitX=0.5;exitY=1;exitDx=0;exitDy=0;entryX=0.5;entryY=1;entryDx=0;entryDy=0;endArrow=none;endFill=0;strokeColor=#000000;strokeWidth=3;elbow=vertical;" parent="yQfu56UTnZcEHh2kDQVF-159" source="yQfu56UTnZcEHh2kDQVF-180" target="yQfu56UTnZcEHh2kDQVF-178" edge="1">
          <mxGeometry relative="1" as="geometry"/>
        </mxCell>
        <mxCell id="yQfu56UTnZcEHh2kDQVF-180" value="&lt;font style=&quot;font-size: 14px&quot;&gt;AP&lt;/font&gt;" style="triangle;whiteSpace=wrap;html=1;shadow=0;strokeColor=#000000;strokeWidth=3;fillColor=none;fontSize=24;rotation=-90;rounded=0;horizontal=1;" parent="yQfu56UTnZcEHh2kDQVF-159" vertex="1">
          <mxGeometry x="35" y="76.00000000000011" width="40" height="50" as="geometry"/>
        </mxCell>
        <mxCell id="yQfu56UTnZcEHh2kDQVF-181" value="&lt;font style=&quot;font-size: 14px&quot;&gt;AP&lt;/font&gt;" style="triangle;whiteSpace=wrap;html=1;shadow=0;strokeColor=#000000;strokeWidth=3;fillColor=none;fontSize=24;rotation=-90;rounded=0;horizontal=1;" parent="yQfu56UTnZcEHh2kDQVF-159" vertex="1">
          <mxGeometry x="115" y="140.0000000000001" width="40" height="50" as="geometry"/>
        </mxCell>
        <mxCell id="yQfu56UTnZcEHh2kDQVF-182" value="&lt;font style=&quot;font-size: 14px&quot;&gt;AP&lt;/font&gt;" style="triangle;whiteSpace=wrap;html=1;shadow=0;strokeColor=#000000;strokeWidth=3;fillColor=none;fontSize=24;rotation=-90;rounded=0;verticalAlign=bottom;" parent="yQfu56UTnZcEHh2kDQVF-159" vertex="1">
          <mxGeometry x="595" y="105" width="28.999999999999996" height="25" as="geometry"/>
        </mxCell>
      </root>
    </mxGraphModel>
  </diagram>
</mxfile>
